<svg xmlns="http://www.w3.org/2000/svg" width="1464.995" height="1094.042" viewBox="0 0 1464.995 1094.042"><g data-name="Group 4067"><g data-name="Group 291" fill="#07205e"><path data-name="Union 5" d="M655.594 211.042v297.414h295.457v289.586h-587v-587z"/><path data-name="Union 6" d="M363.508 1094.042V796.628H68.051V507.042h587v587z"/></g><g data-name="Group 293" fill="#2b8fe5"><path data-name="Path 300" d="M1284.332.115l180.664 180.664-59.327 59.326-180.664-180.664z"/><path data-name="Path 301" d="M1405.619 0l59.327 59.326-180.664 180.663-59.327-59.325z"/></g><g data-name="Group 289" fill="#f0c331"><path data-name="Path 303" d="M1123.997 704.938h90.9v29.834h-90.9z"/><path data-name="Path 304" d="M1123.997 756.588h90.9v29.834h-90.9z"/></g><g data-name="Group 292" fill="#f0c331"><path data-name="Union 5" d="M903.572 154.042v72.96h72.48v71.04h-144v-144z"/><path data-name="Union 6" d="M831.532 371.042v-72.96h-72.48v-71.04h144v144z"/></g><path data-name="Path 686" d="M617.997 123.938h90.9v29.834h-90.9z" fill="#2b8fe5"/><path data-name="Path 759" d="M-.003 869.938h90.9v29.834h-90.9z" fill="#2b8fe5"/></g></svg>