<svg xmlns="http://www.w3.org/2000/svg" width="227.547" height="140.591" viewBox="0 0 227.547 140.591"><path d="M101.081 66.422L61.309 26.65a35.915 35.915 0 00-50.79 0 35.915 35.915 0 000 50.79l39.772 39.772a35.915 35.915 0 0050.79 0 35.915 35.915 0 000-50.79z" fill="#5cc9f6"/><path d="M217.026 52.17a35.915 35.915 0 00-50.79 0 35.915 35.915 0 000 50.794 35.915 35.915 0 0050.79 0 35.915 35.915 0 000-50.793z" fill="#fa8807"/><path d="M64.971 52.064L50.122 66.913l-.064-.067a35.918 35.918 0 01-44.4 4.543 36.006 36.006 0 004.869 6.052L26.556 93.47l.161-.06 23.77 23.77 65.115-65.115a35.792 35.792 0 00-50.625 0z" fill="#00aeeb"/><path d="M191.479 26.969l-.034-.034a35.293 35.293 0 00-50.606-.12L75.758 91.896a35.915 35.915 0 01-48.359 2.2l23.084 23.084.026-.023a35.87 35.87 0 0050.726 0l63.384-63.384.1.03c.491-.554.992-1.1 1.524-1.633a35.889 35.889 0 0134.454-9.362 35.735 35.735 0 00-9.224-15.841z" fill="#0080ca"/><path d="M200.679 42.814a35.888 35.888 0 00-34.454 9.363 36.426 36.426 0 00-1.524 1.633l-.1-.03-63.384 63.384c-.116.116-.236.221-.348.333l.041.045a35.915 35.915 0 0050.79 0l39.772-39.772a35.869 35.869 0 009.209-34.956z" fill="#ee5913"/><path d="M93.71 26.991a5.722 5.722 0 11-5.722 5.722 5.722 5.722 0 015.722-5.722zm-12.632-7.022a3.67 3.67 0 11-3.67 3.67 3.67 3.67 0 013.67-3.67zm8.105-9.763a3.67 3.67 0 11-3.67 3.67 3.67 3.67 0 013.67-3.67z" fill="#5cc9f6"/><ellipse cx="108" cy="6.307" rx="108" ry="6.307" fill="#f5f5f5" transform="translate(6.001 127.976)"/><path d="M180.776 131.106h-.6a.518.518 0 01-.473-.485l-3.668-25.527h2.785l2.429 25.358a.555.555 0 01-.473.654z" fill="#407bff"/><path d="M180.776 131.106h-.6a.518.518 0 01-.473-.485l-3.668-25.527h2.785l2.429 25.358a.555.555 0 01-.473.654z" opacity=".3"/><path d="M188.418 131.106h-.6a.518.518 0 01-.473-.485l-3.659-25.527h2.785l2.429 25.358a.555.555 0 01-.482.654z" fill="#407bff"/><path d="M188.418 131.106h-.6a.518.518 0 01-.473-.485l-3.659-25.527h2.785l2.429 25.358a.555.555 0 01-.482.654z" opacity=".3"/><path d="M145.839 131.106h.6a.518.518 0 00.472-.485l3.668-25.527h-2.787l-2.43 25.358a.555.555 0 00.477.654z" fill="#407bff"/><path d="M145.839 131.106h.6a.518.518 0 00.472-.485l3.668-25.527h-2.787l-2.43 25.358a.555.555 0 00.477.654z" opacity=".3"/><path d="M138.197 131.106h.6a.519.519 0 00.473-.485l3.667-25.527h-2.788l-2.429 25.358a.555.555 0 00.477.654z" fill="#407bff"/><path d="M138.197 131.106h.6a.519.519 0 00.473-.485l3.667-25.527h-2.788l-2.429 25.358a.555.555 0 00.477.654z" opacity=".3"/><path d="M128.293 74.834h18.76c3.329-11.559 15.305-20.678 27.571-20.678h6.093c12.838 0 21.124 9.99 18.506 22.313a25.032 25.032 0 01-2.387 6.5l-2.959 17.933c-.382 2.314-2.228 4.19-4.124 4.19h-56.468c-1.9 0-3.742-1.876-4.124-4.19l-3.609-21.878c-.383-2.313.845-4.19 2.741-4.19z" fill="#407bff"/><path d="M128.293 74.834h18.76c3.329-11.559 15.305-20.678 27.571-20.678h6.093c12.838 0 21.124 9.99 18.506 22.313a25.032 25.032 0 01-2.387 6.5l-2.959 17.933c-.382 2.314-2.228 4.19-4.124 4.19h-56.468c-1.9 0-3.742-1.876-4.124-4.19l-3.609-21.878c-.383-2.313.845-4.19 2.741-4.19z" fill="#fff" opacity=".5"/><path d="M123.597 124.5l4.647 2.132a.325.325 0 01.177.423l-1.462 3.779a.806.806 0 01-1.061.4c-1.6-.77-2.335-1.22-4.378-2.158a54.426 54.426 0 01-6.25-3.621c-1.516-1.091-.4-2.617.354-2.283 3.394 1.5 5.556 1.632 7.144 1.251a1.283 1.283 0 01.829.077z" fill="#263238"/><path d="M156.543 67.546s-29.705.369-30.164 12.079c-.659 16.831-3.145 44.776-3.145 44.776l5.009 2.232s8.776-28.043 9.09-41.187c8.334-2.077 29.838.017 32.365-6.834a22.48 22.48 0 00.949-11.066z" fill="#407bff"/><path d="M156.543 67.546s-29.705.369-30.164 12.079c-.659 16.831-3.145 44.776-3.145 44.776l5.009 2.232s8.776-28.043 9.09-41.187c8.334-2.077 29.838.017 32.365-6.834a22.48 22.48 0 00.949-11.066z" opacity=".2"/><path d="M162.866 36.74c-.258 1.081-.519 2.056-.818 3.068s-.6 2-.921 2.992a73.293 73.293 0 01-2.2 5.9 48.74 48.74 0 01-2.863 5.8 28.184 28.184 0 01-1.887 2.842 16.181 16.181 0 01-2.588 2.734l-.082.067a2.56 2.56 0 01-.181.134 4.213 4.213 0 01-1.869.67 5.255 5.255 0 01-1.268-.009 7.791 7.791 0 01-1.706-.413 17.8 17.8 0 01-2.493-1.134 40.664 40.664 0 01-4.137-2.629 66.393 66.393 0 01-3.753-2.9c-1.2-1.019-2.383-2.025-3.532-3.132a1.7 1.7 0 012-2.713l.027.016c1.315.729 2.641 1.5 3.971 2.219 1.325.734 2.646 1.458 3.968 2.136s2.645 1.324 3.915 1.848a11.816 11.816 0 001.775.594 2.135 2.135 0 00.542.072c.038 0 .011-.023-.119-.013a1.72 1.72 0 00-.79.3l-.263.2a10.379 10.379 0 001.442-1.776c.465-.706.92-1.475 1.342-2.283a53 53 0 002.286-5.166c.686-1.8 1.327-3.633 1.922-5.493.6-1.841 1.155-3.773 1.658-5.576l.019-.068a3.409 3.409 0 016.6 1.707zm-12.04 90.178h5.573a.354.354 0 01.368.339l.27 4.409a.878.878 0 01-.868.882c-1.941-.033-2.868-.148-5.318-.148-1.508 0-4.549.156-6.631.156-2.036 0-2.023-2.059-1.14-2.245a14.328 14.328 0 006.892-3.089 1.4 1.4 0 01.854-.304z" fill="#263238"/><path d="M164.55 67.546s-26.939 2.272-26.282 13.972c.726 12.812 12.556 45.4 12.556 45.4h5.449s-4.664-29.84-6.3-42.886c7.594 0 25.208 1.43 27.735-5.42a22.48 22.48 0 00.949-11.066zm-29.566-18.954a9.123 9.123 0 00-1.515-1.859c-1.1 1.033-1.722 4.046-1.722 4.046l1.523.138a2.513 2.513 0 001.714-2.325z" fill="#407bff"/><path d="M129.395 45.885l-1.732-.753a1.012 1.012 0 00-1.271.405l-.82 1.36a1.012 1.012 0 00.136 1.224l2.378 2.482 3.967-.16a1.264 1.264 0 001.074-.687l.458-.9a1.248 1.248 0 00-.4-1.61 13.793 13.793 0 00-3.79-1.361z" fill="#ffc3bd"/><path d="M156.291 35.598c-.8 5-1.823 15.838.277 32.16l22.085-.209c-.132-11.31 1.641-21.93 3.371-32.3a3.088 3.088 0 00-2.624-3.571 81.885 81.885 0 00-19.067-.016 4.739 4.739 0 00-4.042 3.936z" fill="#263238"/><path d="M182.226 33.829c.648 1.608 1.17 3.153 1.7 4.746s.994 3.19 1.432 4.813c.422 1.629.826 3.271 1.134 4.959a40.2 40.2 0 01.677 5.222c.03.451.038.918.043 1.386l-.009.714a4.309 4.309 0 01-.554 2.086 3.764 3.764 0 01-.926 1.082 3.521 3.521 0 01-.553.37 3.464 3.464 0 01-.533.246 4.576 4.576 0 01-1.636.285 7.48 7.48 0 01-1.951-.3 17.145 17.145 0 01-2.7-1.064c-.807-.4-1.565-.818-2.307-1.249a61.439 61.439 0 01-8.168-5.848 1.7 1.7 0 011.821-2.837l.039.019c2.88 1.373 5.807 2.778 8.661 3.961a33.69 33.69 0 002.114.8 11.754 11.754 0 001.9.52.954.954 0 00.458.012.845.845 0 00-.443.075 2.521 2.521 0 00-.257.116 2.684 2.684 0 00-.3.2 2.392 2.392 0 00-.538.619 2.006 2.006 0 00-.287.912l-.032-.5c-.031-.343-.06-.687-.111-1.044a59.37 59.37 0 00-2.079-8.889c-.9-2.988-1.919-6.043-2.962-8.945l-.01-.029a3.409 3.409 0 016.37-2.427z" fill="#263238"/><path d="M173.396 20.47l-2.672 2.216-3.637 3.021a11.922 11.922 0 01.231 1.469c.174 1.756-.211 3.372-2.346 4.19a2.824 2.824 0 00-1.762 1.723c-.288.934.052 1.971 2.983 1.97 4.3 0 6.551-1.914 7.4-2.857a.758.758 0 00.036-.948c-1.707-2.418-.928-7.764-.233-10.784z" fill="#ffc3bd"/><path d="M166.085 34.113a1.705 1.705 0 01.373.758 3.077 3.077 0 01.807-.758 2.883 2.883 0 011.544 1.808 8.166 8.166 0 01-2.317-.861 3.966 3.966 0 01-1.55.482c.038-.964 1.143-1.429 1.143-1.429z" fill="#407bff"/><path d="M167.267 34.112a6.74 6.74 0 011.474 3.247s7.131-1.782 6.8-6.43a7.233 7.233 0 00-1.977-.607s-1.537 2.786-6.297 3.79zm-1.18.001a7.468 7.468 0 00-1.57 3.247s-3.657-3.329-.095-6.391a9.348 9.348 0 011.885-.4s-2.367 1.926-.22 3.544z" fill="#407bff"/><path d="M167.082 25.707a11.917 11.917 0 01.231 1.469c1.356-.273 3.169-1.718 3.359-3.1a6.3 6.3 0 00.047-1.386z" opacity=".2"/><path d="M163.183 10.874c-3.355 2.378-1.478 7.958 1.384 5.823s1.349-7.761-1.384-5.823z" fill="#263238"/><path d="M174.498 15.848c-.929 4.271-1.255 6.81-3.778 8.759a5.682 5.682 0 01-9.192-4.09c-.332-3.976 1.243-10.293 5.736-11.5a5.749 5.749 0 017.234 6.831z" fill="#ffc3bd"/><path d="M172.52 12.677c-2.368-.655-8.473.9-10.64-1.412-2.324-2.479 1.067-3.684 2.066-2.824-1.266-1.446-.793-3 1-2.858a2.173 2.173 0 011.723 1.55s-.218-2.533 2.029-2.359c2.041.158 2.047 2.91 2.047 2.91s4.871-1.378 6.494 3.271c3.065-.069 3 6.382-3.168 8.677-2.503-1.239-2.614-5.639-1.551-6.955z" fill="#263238"/><path d="M176.583 11.886a.62.62 0 01-.112-1.23.9.9 0 00.359-.452 1.466 1.466 0 00.067-1.16.62.62 0 111.128-.514 2.732 2.732 0 01-.134 2.325 1.809 1.809 0 01-1.2 1.021.579.579 0 01-.108.01z" fill="#263238"/><path d="M175.193 19.804a3.893 3.893 0 01-2.346 1.453c-1.208.213-1.575-.9-1.041-1.977.48-.971 1.688-2.251 2.8-1.974 1.105.271 1.303 1.556.587 2.498z" fill="#ffc3bd"/><path d="M167.184 16.234c-.054.35-.284.612-.514.585s-.373-.334-.319-.684.284-.612.514-.584.373.332.319.683zm-3.976-.473c-.054.35-.285.612-.514.584s-.373-.333-.319-.683.284-.612.514-.585.373.334.319.684z" fill="#263238"/><path d="M164.419 15.902a11.3 11.3 0 01-1.661 2.5 1.715 1.715 0 001.415.343z" fill="#ed847e"/><path d="M165.805 20.544a3.051 3.051 0 002.211-.911.104.104 0 00-.157-.137 2.917 2.917 0 01-2.443.816.104.104 0 00-.025.207 3.427 3.427 0 00.414.025zm2.977-6.33a.213.213 0 00.092-.051.209.209 0 00.017-.294 2 2 0 00-1.749-.688.2.2 0 00-.169.241.208.208 0 00.24.169 1.585 1.585 0 011.367.555.207.207 0 00.202.068zm-6.995-.228a.208.208 0 00.191-.04 1.741 1.741 0 011.483-.4.208.208 0 00.114-.4 2.147 2.147 0 00-1.861.484.208.208 0 00.075.36z" fill="#263238"/><path d="M169.039 45.551l-2.438-1.515a1.546 1.546 0 00-2.139.514l-.287.475a1.546 1.546 0 00.158 1.814l1.682 1.931s1.464 3.413 3.161 2.512l1.3-2.243z" fill="#ffc3bd"/><path d="M171.549 49.916a10.27 10.27 0 00-1.274-2.271c-1.224 1.049-2.216 4.392-2.216 4.392l1.5.323a2.788 2.788 0 001.99-2.444zm18.672 24.918h-28.922c-1.9 0-3.124 1.876-2.742 4.191l3.61 21.878c.382 2.314 2.228 4.19 4.124 4.19h20.346z" fill="#407bff"/><path d="M190.221 74.834h-28.922c-1.9 0-3.124 1.876-2.742 4.191l3.61 21.878c.382 2.314 2.228 4.19 4.124 4.19h20.346z" fill="#fff" opacity=".5"/><path d="M40.895 40.024l-1.269 9.341c-.4 3.11-.819 6.229-1.118 9.291-.042.385-.07.761-.1 1.14l-.046.567a1.236 1.236 0 00-.02-.279 1.19 1.19 0 00-.065-.265 1.113 1.113 0 00-.084-.195.835.835 0 00-.077-.126c-.1-.126-.109-.109-.083-.082a1.158 1.158 0 00.189.158 5.584 5.584 0 00.738.432 29.508 29.508 0 004.09 1.518c2.923.887 5.99 1.654 9.019 2.4l-.343 2.661a67.381 67.381 0 01-9.66-1 27.83 27.83 0 01-4.964-1.311 10.494 10.494 0 01-1.376-.645 5.9 5.9 0 01-.777-.528 4.224 4.224 0 01-.889-.948 3.6 3.6 0 01-.421-.852 3.864 3.864 0 01-.132-.554 4.265 4.265 0 01-.033-.574l.014-.618c.009-.412.016-.827.036-1.231.132-3.255.424-6.43.771-9.606s.745-6.322 1.243-9.485z" fill="#7f3e3b"/><path d="M59.082 66.733L57.039 68.6a1.58 1.58 0 01-1.752.257L53.03 67.77s-3.348-.139-3.825-2.184l.866-1.589 5.186-.577a2.42 2.42 0 011.528.34l2.137 1.305a1.047 1.047 0 01.16 1.668zM46.851 20.832c.53 3.2.979 9.059-1.313 11.118a29.986 29.986 0 019.262 8.041c3.923-3.108.638-7.746.638-7.746-3.527-.954-3.357-3.587-2.664-6.043z" fill="#7f3e3b"/><path d="M57.319 34.215s-.3-2.717-1.778-4.06c-1.245-1.129-7.782-.5-9.841-.272a1.124 1.124 0 00-.891.634l-1.493 3.12z" fill="#407bff"/><path d="M57.319 34.215s-.3-2.717-1.778-4.06c-1.245-1.129-7.782-.5-9.841-.272a1.124 1.124 0 00-.891.634l-1.493 3.12z" fill="#fff" opacity=".8"/><path d="M39.208 32.785c-4.033 1.312-4.9 6.72-4.537 10.929l8.141 5.008s1.976-6.146 1.96-9.428c-.017-3.494-2.826-7.401-5.564-6.509z" fill="#092772"/><g fill="#fff"><path d="M40.785 47.495a.778.778 0 01-.535-.217.8.8 0 01-.089-.117.513.513 0 01-.072-.134 1.1 1.1 0 01-.045-.139.674.674 0 01-.016-.145.764.764 0 01.223-.535.776.776 0 011.069 0 .764.764 0 01.223.535.642.642 0 01-.017.145.582.582 0 01-.045.139.5.5 0 01-.067.134 1.88 1.88 0 01-.095.117.759.759 0 01-.534.217z"/><path d="M39.22 46.984h.006a.759.759 0 01-.485-.68.745.745 0 01-.819.123.762.762 0 01-.44-.7.743.743 0 01-.825.072.752.752 0 01-.395-.724.759.759 0 01-.83.028.757.757 0 01-.256-1.036.76.76 0 011.041-.256.776.776 0 01.363.707.748.748 0 01.791-.05.763.763 0 01.4.685.753.753 0 01.786-.095.759.759 0 01.44.657.772.772 0 01.78-.139.759.759 0 01.423.981.75.75 0 01-.7.479.832.832 0 01-.28-.052z"/><path d="M34.674 44.471a.7.7 0 01-.151-.017.581.581 0 01-.139-.045.522.522 0 01-.133-.067.909.909 0 01-.111-.095.577.577 0 01-.095-.112 1.589 1.589 0 01-.072-.133 1.344 1.344 0 01-.045-.139 1.389 1.389 0 01-.012-.15 1.173 1.173 0 01.012-.145 1.438 1.438 0 01.045-.145.561.561 0 01.072-.128.84.84 0 01.095-.117.909.909 0 01.111-.095.724.724 0 01.133-.067.946.946 0 01.139-.045.777.777 0 01.68.206.883.883 0 01.095.117.953.953 0 01.072.128.735.735 0 01.039.145.607.607 0 01.017.145.7.7 0 01-.017.15.685.685 0 01-.039.139 1.565 1.565 0 01-.072.133.6.6 0 01-.095.112.761.761 0 01-.529.225z"/></g><path d="M64.853 40.644c-.341 4.633-1.371 12.435-3.911 25.569l-21.8-.648c.572-8.048-.292-14.049-2.264-28.133a4.579 4.579 0 014.071-5.188c1.4-.144 2.99-.263 4.59-.292a69.308 69.308 0 019.9.295c1.062.129 2.16.3 3.207.475a7.481 7.481 0 016.207 7.922z" fill="#092772"/><path d="M58.13 14.934c.052.43.321.751.6.718s.467-.41.416-.84-.321-.751-.6-.718-.467.41-.416.84z" fill="#263238"/><path d="M58.425 14.131l1-.422s-.436.874-1 .422z" fill="#263238"/><path d="M58.279 15.602a11.561 11.561 0 001.862 2.561 1.864 1.864 0 01-1.5.471z" fill="#630f0f"/><path d="M58.183 11.164a.254.254 0 00-.32-.372 2.523 2.523 0 00-1.449 1.815.254.254 0 00.5.069 2.017 2.017 0 011.163-1.424.252.252 0 00.106-.088z" fill="#263238"/><path d="M43.294 14.836c.958 5.243 1.251 7.483 4.243 9.875 4.5 3.6 10.732 1.274 11.361-4.149.565-4.882-1.1-12.636-6.518-14.119a7.269 7.269 0 00-9.086 8.393z" fill="#7f3e3b"/><path d="M54.841 16.305c.884 2.881 2.99 9.846-1.662 11.4-3.64 1.213-15.035 2.184-16.347-4.493-1.357-6.9 4.8-11.818 4.8-11.818s-4.877-4-1.752-8.358C43.907-2.581 53.55.595 56.413 4.564c2.781 3.854-1.572 11.741-1.572 11.741z" fill="#263238"/><path d="M46.021 28.662a16.234 16.234 0 01-6.087-1.2c-2.588-1.115-4.1-2.837-4.368-4.98-.914-7.281 5.861-11.282 5.929-11.321l.27.467c-.065.038-6.533 3.866-5.664 10.787.309 2.456 2.371 3.831 4.046 4.553 3.308 1.424 7.58 1.417 8.618.656l.319.435a5.805 5.805 0 01-3.063.603z" fill="#263238"/><path d="M39.534 10.346c-.061.931-.834 2.211 2.395 2.692s7.716.436 8.636-.341 1.828-2.634-.1-2.468-10.827-1.475-10.931.117z" fill="#407bff"/><path d="M53.079 17.127a4.177 4.177 0 002.472 2.019c1.406.412 2.128-.842 1.752-2.178-.338-1.2-1.477-2.868-2.9-2.693a1.877 1.877 0 00-1.324 2.852zM87.063 127.22l5.169-.1-2.5-12.9-5.169.1z" fill="#7f3e3b"/><path d="M90.939 121.602c1.367 5.15 6.392 10.6 6.392 10.6l-7.173-1.823-3.135-4.454.549-1.179z" fill="#7f3e3b"/><path d="M85.845 123.996a10.5 10.5 0 00.1 1.8c.3 2.13 1.243 7.776 1.243 7.776h.487a50.519 50.519 0 01-.394-5.2c.067-1.4.971 1.076 2.063 2.478a7.845 7.845 0 006.238 2.776c3.724.116 5.208-.04 4.014-.969a12.493 12.493 0 00-3.73-1.536 11.323 11.323 0 01-5.024-4.2 13.106 13.106 0 00-4.62-4c-.297.057-.36.621-.377 1.075z" fill="#263238"/><path d="M105.37 109.692l6.6.2-7.38-10.972-4.569 3.905z" fill="#7f3e3b"/><path d="M106.937 105.033c4.794 2.233 12.472 1.794 12.472 1.794l-6.241 5.007-5.352-.4-.565-1.189z" fill="#7f3e3b"/><path d="M105.922 110.722a10.461 10.461 0 001.388 1.151c1.751 1.219 6.477 4.343 6.477 4.343l.3-.381a49.979 49.979 0 01-4.063-3.249c-.987-1.011 1.389-.028 3.093.072s3.853-.573 5.89-3.007c2.385-2.849 3.186-4.123 1.767-3.821a11.457 11.457 0 00-3.432 1.883 10.037 10.037 0 01-6.186 1.077 11.579 11.579 0 00-5.789.9c-.143.273.232.708.555 1.032zm-52.584-44.89s35.3-5.221 38.95 3.826c6.358 15.741 15.336 33.778 15.336 33.778l-4.335 3.586S87.9 92.777 82.426 76.961c-6.539 2.116-27.344 8.923-34.964 8.923-8.139 0-11.462-6.939-8.523-18.461a2.315 2.315 0 012.258-1.733c5.123.026 12.141.142 12.141.142z" fill="#263238"/><path d="M56.723 70.428s28.968-.872 29.213 9.391c.4 16.972 5.187 41.291 5.187 41.291l-5.284.492S77.2 102.257 74.915 85.678c-10.319.67-19.832.207-27.452.207-8.54 0-9.245-9.379-.933-20.321 5.079 0 10.193 4.864 10.193 4.864z" fill="#263238"/><path d="M38.852 64.275l-.616 1.935c-.081.149.094.309.346.316l22.438.667c.2.006.362-.085.378-.208l.255-1.946c.018-.135-.149-.255-.364-.261l-22.078-.657a.4.4 0 00-.359.154z" fill="#fff"/><path d="M41.743 66.831l-.591-.018c-.118 0-.206-.067-.2-.141l.353-2.527c.011-.074.115-.132.233-.128l.592.017c.118 0 .206.067.2.141l-.353 2.527c-.011.075-.116.133-.234.129zm17.61.524l-.591-.017c-.118 0-.206-.067-.2-.141l.353-2.527c.011-.074.115-.131.233-.128l.592.017c.118 0 .206.067.195.141l-.353 2.527c-.006.074-.111.132-.229.128zm-8.805-.262l-.592-.018c-.118 0-.206-.067-.195-.14l.353-2.527c.01-.074.115-.132.233-.128l.591.017c.118 0 .206.067.2.141l-.353 2.527c-.015.074-.12.132-.237.128z" fill="#263238"/><path d="M77.417 42.581h14.092a.675.675 0 01.648.864l-5.266 18.074a.674.674 0 01-.648.486H72.152a.675.675 0 01-.648-.864l5.266-18.074a.675.675 0 01.647-.486z" fill="#092772"/><path d="M77.247 43.078l13.7.057-5.074 17.15-13.7-.057z" fill="#fff"/><path d="M64.895 43.432c.028.543.079 1.219.129 1.836s.124 1.263.207 1.891c.156 1.258.365 2.5.623 3.72a26.832 26.832 0 00.995 3.513 16.931 16.931 0 00.68 1.6c.12.26.257.5.391.74l.2.343c-.017-.023-.041-.025-.022 0a2.484 2.484 0 00.887.519 10.7 10.7 0 001.6.48 31 31 0 003.725.575c2.573.251 5.26.375 7.894.429l.266 2.67a50.5 50.5 0 01-8.3.939 29.734 29.734 0 01-4.343-.178 15.3 15.3 0 01-2.332-.472 6.951 6.951 0 01-2.664-1.375 4.784 4.784 0 01-.7-.756l-.359-.5a17.158 17.158 0 01-.641-1 17.537 17.537 0 01-1.051-2.062 27.087 27.087 0 01-1.438-4.213 36.252 36.252 0 01-.829-4.253q-.14-1.067-.23-2.139c-.063-.729-.1-1.4-.109-2.21z" fill="#7f3e3b"/><path d="M63.061 35.217c3.508 3.3 2.663 11.909 2.663 11.909l-6.721 1.175s-4.149-6.171-2.691-8.758c1.519-2.695 4.852-6.113 6.749-4.326z" fill="#092772"/><g fill="#fff"><path d="M65.723 47.885a.773.773 0 01-.535-.223.641.641 0 01-.095-.116.869.869 0 01-.067-.128 1.087 1.087 0 01-.045-.145 1.164 1.164 0 01-.012-.144.759.759 0 01.218-.535.967.967 0 01.117-.095.538.538 0 01.128-.067.669.669 0 01.144-.045.772.772 0 01.68.206.764.764 0 01.223.535.6.6 0 01-.017.144.622.622 0 01-.045.145.561.561 0 01-.067.128.641.641 0 01-.095.116.764.764 0 01-.532.224z"/><path d="M59.617 48.286a.756.756 0 01.69-.819.746.746 0 01.708.357.768.768 0 01.607-.512.767.767 0 01.73.318.748.748 0 01.574-.54.753.753 0 01.746.273.763.763 0 01.546-.58v.006a.751.751 0 01.925.535.757.757 0 01-.541.924.76.76 0 01-.785-.261.766.766 0 01-.59.584.769.769 0 01-.769-.311.754.754 0 01-.619.551.76.76 0 01-.751-.351.764.764 0 01-.652.512h-.062a.761.761 0 01-.757-.686z"/><path d="M59.005 49.061a.727.727 0 01-.15-.017 1.021 1.021 0 01-.139-.045 1 1 0 01-.134-.067.965.965 0 01-.111-.095.5.5 0 01-.095-.117.959.959 0 01-.072-.129.661.661 0 01-.039-.144.608.608 0 01-.017-.145.7.7 0 01.017-.151.629.629 0 01.039-.139c.022-.045.045-.089.072-.133a.575.575 0 01.095-.111.862.862 0 01.111-.095.6.6 0 01.134-.067.557.557 0 01.139-.045.747.747 0 01.68.206.575.575 0 01.095.111c.028.045.05.089.072.133a1.39 1.39 0 01.045.139c.005.051.011.1.011.151a1.3 1.3 0 01-.011.145 1.428 1.428 0 01-.045.144 1.025 1.025 0 01-.072.129.642.642 0 01-.095.117.761.761 0 01-.53.225z"/></g><path d="M88.488 56.289l-2.326-.157a2.623 2.623 0 00-1.64.44l-4.273 2.87-.032 1.809c1.369 1.592 4.4.167 4.4.167l2.812-.09a1.126 1.126 0 001.021-.739l1.016-2.789a1.125 1.125 0 00-.978-1.511z" fill="#7f3e3b"/><path d="M40.244 135.491h.631a.549.549 0 00.5-.512l3.877-26.982h-2.944l-2.567 26.8a.586.586 0 00.503.694z" fill="#407bff"/><path d="M40.244 135.491h.631a.549.549 0 00.5-.512l3.877-26.982h-2.944l-2.567 26.8a.586.586 0 00.503.694z" opacity=".3"/><path d="M32.167 135.491h.631a.548.548 0 00.5-.512l3.877-26.982h-2.944l-2.567 26.8a.587.587 0 00.503.694z" fill="#407bff"/><path d="M32.167 135.491h.631a.548.548 0 00.5-.512l3.877-26.982h-2.944l-2.567 26.8a.587.587 0 00.503.694z" opacity=".3"/><path d="M77.17 135.491h-.631a.548.548 0 01-.5-.512l-3.869-26.982h2.943l2.568 26.8a.587.587 0 01-.511.694z" fill="#407bff"/><path d="M77.17 135.491h-.631a.548.548 0 01-.5-.512l-3.869-26.982h2.943l2.568 26.8a.587.587 0 01-.511.694z" opacity=".3"/><path d="M85.247 135.491h-.631a.549.549 0 01-.5-.512l-3.869-26.982h2.944l2.568 26.8a.587.587 0 01-.512.694z" fill="#407bff"/><path d="M85.247 135.491h-.631a.549.549 0 01-.5-.512l-3.869-26.982h2.944l2.568 26.8a.587.587 0 01-.512.694z" opacity=".3"/><path d="M95.718 76.013h-19.83C72.37 63.795 59.71 54.156 46.746 54.156h-6.441c-13.57 0-22.327 10.559-19.56 23.584a26.462 26.462 0 002.523 6.873l3.127 18.954c.4 2.446 2.356 4.429 4.36 4.429h59.686c2 0 3.955-1.984 4.359-4.43l3.815-23.125c.404-2.445-.893-4.428-2.897-4.428z" fill="#407bff"/><path d="M95.718 76.013h-19.83C72.37 63.795 59.71 54.156 46.746 54.156h-6.441c-13.57 0-22.327 10.559-19.56 23.584a26.462 26.462 0 002.523 6.873l3.127 18.954c.4 2.446 2.356 4.429 4.36 4.429h59.686c2 0 3.955-1.984 4.359-4.43l3.815-23.125c.404-2.445-.893-4.428-2.897-4.428z" fill="#fff" opacity=".5"/></svg>