<svg xmlns="http://www.w3.org/2000/svg" width="141.239" height="73.152" viewBox="0 0 141.239 73.152"><path d="M62.741 34.894L38.058 10.207a22.292 22.292 0 00-31.525 0 22.292 22.292 0 000 31.525L31.22 66.419a22.292 22.292 0 0031.525 0 22.292 22.292 0 000-31.525z" fill="#5cc9f6"/><path d="M134.708 26.047a22.292 22.292 0 00-31.525 0 22.292 22.292 0 000 31.528 22.292 22.292 0 0031.526 0 22.292 22.292 0 000-31.528z" fill="#fa8807"/><path d="M40.327 25.981l-9.217 9.217-.04-.042a22.294 22.294 0 01-27.562 2.82 22.348 22.348 0 003.022 3.756l9.949 9.949.1-.037 14.754 14.754L71.75 25.981a22.216 22.216 0 00-31.423 0z" fill="#00aeeb"/><path d="M118.851 10.405l-.021-.021a21.906 21.906 0 00-31.411-.074l-40.4 40.4a22.292 22.292 0 01-30.017 1.367L31.33 66.405l.016-.014a22.264 22.264 0 0031.486 0l39.345-39.347.065.019c.3-.344.616-.683.946-1.013a22.276 22.276 0 0121.389-5.812 22.181 22.181 0 00-5.725-9.833z" fill="#0080ca"/><path d="M124.563 20.24a22.276 22.276 0 00-21.386 5.811c-.33.33-.641.669-.946 1.013l-.063-.019L62.83 66.389c-.072.072-.146.137-.216.207l.026.028a22.292 22.292 0 0031.525 0l24.687-24.687a22.264 22.264 0 005.716-21.7z" fill="#ee5913"/><path d="M58.166 10.418a3.552 3.552 0 11-3.552 3.552 3.552 3.552 0 013.552-3.552zM50.325 6.06a2.278 2.278 0 11-2.278 2.278 2.278 2.278 0 012.278-2.278zM55.356 0a2.278 2.278 0 11-2.278 2.278A2.278 2.278 0 0155.356 0z" fill="#5cc9f6"/></svg>