<svg xmlns="http://www.w3.org/2000/svg" width="224.424" height="69.948" viewBox="0 0 224.424 69.948"><g data-name="Group 4062"><g data-name="Group 183"><path data-name="Path 119" d="M59.993 33.365L36.388 9.76a21.316 21.316 0 00-30.144 0 21.316 21.316 0 000 30.144l23.605 23.605a21.316 21.316 0 0030.144 0 21.316 21.316 0 000-30.144z" fill="#5cc9f6"/><path data-name="Path 120" d="M128.807 24.905a21.316 21.316 0 00-30.144 0 21.316 21.316 0 000 30.147 21.316 21.316 0 0030.144 0 21.316 21.316 0 000-30.146z" fill="#fa8807"/><path data-name="Path 121" d="M38.565 24.843l-8.813 8.813-.038-.04a21.318 21.318 0 01-26.355 2.7 21.372 21.372 0 002.89 3.592l9.513 9.513.1-.036 14.103 14.104 38.646-38.646a21.242 21.242 0 00-30.047 0z" fill="#00aeeb"/><path data-name="Path 122" d="M113.644 9.949l-.02-.02a20.947 20.947 0 00-30.035-.071L44.963 48.484a21.316 21.316 0 01-28.7 1.307l13.7 13.7.016-.013a21.289 21.289 0 0030.107 0l37.619-37.619.062.018c.291-.329.589-.653.9-.969a21.3 21.3 0 0120.449-5.557 21.21 21.21 0 00-5.474-9.4z" fill="#0080ca"/><path data-name="Path 123" d="M119.106 19.353a21.3 21.3 0 00-20.449 5.557c-.316.316-.613.64-.9.969l-.06-.018L60.078 63.48c-.069.069-.14.131-.207.2l.024.027a21.316 21.316 0 0030.144 0l23.605-23.605a21.289 21.289 0 005.466-20.747z" fill="#ee5913"/><circle data-name="Ellipse 4" cx="3.396" cy="3.396" r="3.396" transform="translate(52.222 9.962)" fill="#5cc9f6"/><circle data-name="Ellipse 5" cx="2.178" cy="2.178" r="2.178" transform="translate(45.943 5.795)" fill="#5cc9f6"/><circle data-name="Ellipse 6" cx="2.178" cy="2.178" r="2.178" transform="translate(50.753)" fill="#5cc9f6"/></g><g data-name="Group 182"><g data-name="Group 4060" fill="#2b8fe5"><path data-name="Path 113" d="M149.251 1.592h3.709a4.468 4.468 0 011.244.173 4.031 4.031 0 011.106.508 4.494 4.494 0 01.91.794 3.693 3.693 0 01.634 1.014q1.337 3.248 2.7 6.44t2.718 6.44a4.41 4.41 0 01.322 1.106q.069.508.092.9a6.439 6.439 0 01.3-1.5 17.288 17.288 0 01.668-1.751l4.907-11.658a2.919 2.919 0 01.6-.933 4.979 4.979 0 01.945-.794 5.048 5.048 0 011.141-.553 3.74 3.74 0 011.21-.208h3.709l-2.627 6.244 2.926 6.958q.461 1.083.9 2.132a5.919 5.919 0 01.484 1.971q.023-.184.057-.426t.127-.61a8.931 8.931 0 01.277-.875q.184-.506.506-1.245l4.913-11.659a3 3 0 01.588-.933 4.662 4.662 0 01.933-.794 5.044 5.044 0 011.141-.553 3.74 3.74 0 011.21-.208h3.709l-10.197 24.213h-6.54l-3.526-8.939q-.184-.484-.322-.99a3.925 3.925 0 01-.139-1.037 2.979 2.979 0 01.161-.99q-.438 1.244-1.624 4.216t-3.168 7.741h-6.542z"/><path data-name="Path 114" d="M192.913 1.588h4.925q.119 0 .346.633a10.279 10.279 0 01.414 1.809 2.461 2.461 0 01.853-1.187 6.2 6.2 0 011.5-.875 9.36 9.36 0 011.763-.541 8.286 8.286 0 011.624-.184h.092a11.536 11.536 0 014.77.99 12.266 12.266 0 013.848 2.685 12.648 12.648 0 01-.035 17.545 12.262 12.262 0 01-3.883 2.661 11.8 11.8 0 01-4.793.979 8.974 8.974 0 01-2.811-.461 7.1 7.1 0 01-2.558-1.5v9.447h-6.06zm11.405 5.668a6.552 6.552 0 00-3.03.726 6.416 6.416 0 00-2.316 1.969v7.419a6.633 6.633 0 005.346 2.719 5.947 5.947 0 002.465-.508 6.113 6.113 0 001.959-1.382 6.47 6.47 0 001.3-2.039 6.821 6.821 0 000-4.989 6.307 6.307 0 00-1.3-2.039 6.215 6.215 0 00-1.959-1.371 5.953 5.953 0 00-2.465-.5z"/></g><g data-name="Group 4061" fill="#092772"><path data-name="Path 115" d="M152.012 41.091a4.8 4.8 0 00.235.441 1.7 1.7 0 01.2.853v1.176a2.415 2.415 0 01.588-.922 4.356 4.356 0 01.951-.711 7.039 7.039 0 011.166-.519 12.135 12.135 0 011.226-.352 9.994 9.994 0 011.127-.2 8.33 8.33 0 01.9-.059 9.845 9.845 0 014.048.833 9.995 9.995 0 013.234 2.274 10.607 10.607 0 012.134 3.371 11.305 11.305 0 010 8.223 10.627 10.627 0 01-2.134 3.362 9.945 9.945 0 01-8.694 3 6.992 6.992 0 01-1.509-.406 7.267 7.267 0 01-1.539-.833 7.809 7.809 0 01-1.5-1.4v9.371h-3.2V41.091zm6.39 17.741a6.887 6.887 0 002.845-.578 6.712 6.712 0 002.224-1.588 7.287 7.287 0 001.451-2.372 8.42 8.42 0 000-5.822 7.3 7.3 0 00-1.451-2.372 6.721 6.721 0 00-2.224-1.588 6.891 6.891 0 00-2.845-.578 8.131 8.131 0 00-3.227.667 8.474 8.474 0 00-2.733 1.862v9.331a7.124 7.124 0 001.219 1.294 7.437 7.437 0 001.46.95 7.833 7.833 0 001.618.588 7.01 7.01 0 001.653.209z"/><path data-name="Path 116" d="M171.317 51.391a10.257 10.257 0 01.833-4.107 10.593 10.593 0 110 8.23 10.3 10.3 0 01-.833-4.123zm3.137 0a7.264 7.264 0 00.588 2.911 7.539 7.539 0 001.6 2.371 7.426 7.426 0 002.362 1.588 7.592 7.592 0 005.812 0 7.449 7.449 0 00-2.911-14.32 7.3 7.3 0 00-2.9.578 7.437 7.437 0 00-2.362 1.588 7.548 7.548 0 00-1.6 2.372 7.264 7.264 0 00-.585 2.911z"/><path data-name="Path 117" d="M195.349 51.391a10.257 10.257 0 01.833-4.107 10.593 10.593 0 110 8.23 10.305 10.305 0 01-.833-4.123zm3.137 0a7.268 7.268 0 00.589 2.911 7.547 7.547 0 001.6 2.372 7.43 7.43 0 002.362 1.588 7.3 7.3 0 002.9.578 7.453 7.453 0 10-5.263-12.732 7.551 7.551 0 00-1.6 2.372 7.264 7.264 0 00-.585 2.911z"/><path data-name="Path 118" d="M224.425 33.591v28.09h-3.2v-28.09z"/></g></g></g></svg>