<svg xmlns="http://www.w3.org/2000/svg" xmlns:xlink="http://www.w3.org/1999/xlink" width="820.949" height="579.911" viewBox="0 0 820.949 579.911"><defs><linearGradient id="i" y1=".5" x2="1" y2=".5" gradientUnits="objectBoundingBox"><stop offset="0" stop-color="#008dec"/><stop offset="1" stop-color="#008bec"/></linearGradient><linearGradient id="j" y1=".5" x2="1" y2=".5" gradientUnits="objectBoundingBox"><stop offset="0" stop-color="#d1e2ff"/><stop offset="1" stop-color="#ecf3ff"/></linearGradient><linearGradient id="h" x1="-.024" y1="1.649" x2=".895" y2="-.016" gradientUnits="objectBoundingBox"><stop offset="0" stop-color="#d0471e"/><stop offset=".22" stop-color="#d95e12"/><stop offset=".488" stop-color="#e17308"/><stop offset=".751" stop-color="#e67f02"/><stop offset="1" stop-color="#e88400"/></linearGradient><linearGradient id="d" x1=".635" y1=".059" x2=".006" y2=".964" gradientUnits="objectBoundingBox"><stop offset="0" stop-color="#eec9c8"/><stop offset=".25" stop-color="#edc3c2"/><stop offset=".57" stop-color="#ebb3b2"/><stop offset=".926" stop-color="#e89a98"/><stop offset="1" stop-color="#e89492"/></linearGradient><linearGradient id="c" x1="14.752" y1=".356" x2="14.752" y2="1.044" gradientUnits="objectBoundingBox"><stop offset="0" stop-color="#e85f5a"/><stop offset="1" stop-color="#eec9c8"/></linearGradient><linearGradient id="e" x1="10.149" y1=".792" x2="9.189" y2=".74" gradientUnits="objectBoundingBox"><stop offset="0" stop-color="#e89492"/><stop offset=".074" stop-color="#e89a98"/><stop offset=".43" stop-color="#ebb3b2"/><stop offset=".75" stop-color="#edc3c2"/><stop offset="1" stop-color="#eec9c8"/></linearGradient><linearGradient id="a" x1="-.138" y1="2.26" x2=".811" y2="1.108" gradientUnits="objectBoundingBox"><stop offset="0" stop-color="#fa902f"/><stop offset=".168" stop-color="#f7a02f"/><stop offset=".455" stop-color="#f3b530"/><stop offset=".735" stop-color="#f0c130"/><stop offset="1" stop-color="#f0c631"/></linearGradient><linearGradient id="k" x1="-.212" y1=".838" x2="1.126" y2=".247" xlink:href="#a"/><linearGradient id="l" x1=".5" y1=".025" x2=".5" y2="1.074" gradientUnits="objectBoundingBox"><stop offset="0" stop-color="#008bec"/><stop offset="1" stop-color="#0056ec"/></linearGradient><linearGradient id="f" y1=".5" x2="1" y2=".5" gradientUnits="objectBoundingBox"><stop offset="0" stop-color="#0056ec"/><stop offset="1" stop-color="#008bec"/></linearGradient><linearGradient id="b" x1=".323" y1=".791" x2=".61" y2=".338" gradientUnits="objectBoundingBox"><stop offset="0" stop-color="#0056ec"/><stop offset="1" stop-color="#00c2ec"/></linearGradient><linearGradient id="m" x1=".101" y1="1.004" x2=".989" y2=".029" xlink:href="#b"/><linearGradient id="n" x1="-90.675" y1=".516" x2="-91.539" y2=".489" xlink:href="#c"/><linearGradient id="o" x1="-.134" y1="-.314" x2=".627" y2=".502" xlink:href="#d"/><linearGradient id="p" x1=".607" y1=".704" x2=".782" y2="1.098" xlink:href="#e"/><linearGradient id="q" x1="-.177" y1=".979" x2="1.02" y2=".253" xlink:href="#a"/><linearGradient id="g" x1=".376" y1=".495" x2="1.328" y2=".51" gradientUnits="objectBoundingBox"><stop offset="0" stop-color="#172b36"/><stop offset="1" stop-color="#325d75"/></linearGradient><linearGradient id="r" x1=".48" y1=".334" x2=".895" y2="1.163" xlink:href="#f"/><linearGradient id="s" x1=".483" y1=".263" x2=".541" y2="1.092" xlink:href="#e"/><linearGradient id="t" x1=".902" y1=".075" x2="-.038" y2=".024" xlink:href="#e"/><linearGradient id="u" y1=".5" x2="1" y2=".5" gradientUnits="objectBoundingBox"><stop offset="0" stop-color="#fff5dc"/><stop offset=".342" stop-color="#fff6df"/><stop offset=".672" stop-color="#fff9eb"/><stop offset=".996" stop-color="#fffefe"/><stop offset="1" stop-color="#fff"/></linearGradient><linearGradient id="v" x1=".566" y1=".689" x2=".711" y2="1.063" xlink:href="#e"/><linearGradient id="w" x1="-.033" y1="1.076" x2="1.033" y2=".202" xlink:href="#a"/><linearGradient id="x" x1=".388" y1=".492" x2="1.334" y2=".516" xlink:href="#g"/><linearGradient id="y" x1="0" y1=".5" x2="1.176" y2=".5" xlink:href="#f"/><linearGradient id="z" x1=".628" y1=".508" x2="-.423" y2=".457" xlink:href="#e"/><linearGradient id="A" x1=".094" y1=".639" x2=".819" y2=".31" xlink:href="#h"/></defs><g transform="translate(-889.216 -212.156)"><path d="M1664.256 380.667a.705.705 0 01-.265-.05l-19.63-7.852a.712.712 0 01-.448-.662v-25.52a.71.71 0 01.916-.681l19.427 5.828 19.427-5.828a.709.709 0 01.916.681v25.52a.712.712 0 01-.448.662l-19.632 7.852a.7.7 0 01-.263.05zm-18.92-9.045l18.92 7.568 18.92-7.568v-24.083l-18.717 5.615a.688.688 0 01-.408 0l-18.715-5.614z" fill="#b3cdfa"/><path d="M1683.888 347.295a.727.727 0 01-.2-.03l-19.427-5.828-19.427 5.828a.711.711 0 01-.408-1.363l19.63-5.889a.689.689 0 01.408 0l19.631 5.889a.712.712 0 01-.2 1.393z" fill="#b3cdfa"/><path d="M1664.256 379.811v-27.484l19.632-5.744v25.521zm23.558 34.23a.712.712 0 01-.319-.074l-15.7-7.854a.714.714 0 01-.394-.636V387.81a.713.713 0 01.306-.585.705.705 0 01.656-.081l15.456 5.795 15.447-5.795a.711.711 0 01.962.666v17.668a.714.714 0 01-.394.636l-15.7 7.854a.711.711 0 01-.32.073zm-14.995-9l14.995 7.5 14.993-7.5v-16.2l-14.741 5.523a.718.718 0 01-.5 0l-14.744-5.529z" fill="#b3cdfa"/><path d="M1703.52 388.522a.7.7 0 01-.25-.046l-15.454-5.8-15.456 5.8a.711.711 0 01-.5-1.332l15.7-5.89a.718.718 0 01.5 0l15.7 5.89a.711.711 0 01-.249 1.377z" fill="#b3cdfa"/><path d="M1687.814 413.184v-19.631l15.705-5.744v17.668zm-47.116 18.526a.721.721 0 01-.225-.037l-23.558-7.852a.708.708 0 01-.485-.674v-31.411a.712.712 0 01.3-.578.7.7 0 01.64-.1l23.332 7.778 23.331-7.775a.7.7 0 01.64.1.712.712 0 01.3.578v31.411a.709.709 0 01-.487.674l-23.562 7.847a.726.726 0 01-.226.039zm-22.845-9.076l22.845 7.615 22.847-7.615v-29.911l-22.621 7.541a.719.719 0 01-.451 0l-22.621-7.541z" fill="#b3cdfa"/><path d="M1664.257 392.446a.682.682 0 01-.225-.037l-23.334-7.777-23.332 7.777a.711.711 0 11-.451-1.349l23.558-7.852a.719.719 0 01.451 0l23.557 7.852a.711.711 0 01-.225 1.386z" fill="#b3cdfa"/><path d="M1640.698 399.443v31.41l23.558-7.707v-31.41z" fill="#b3cdfa"/><path d="M1593.733 633.399l-489.5-37.386c-3.208-.245-5.8-3.628-5.8-7.558v-321.9c0-3.93 2.594-7.313 5.8-7.558l489.5-37.386a7.977 7.977 0 018.714 8.078v395.634a7.977 7.977 0 01-8.714 8.076z" fill="#ecf3ff"/><path d="M1576.067 624.682l-489.5-37.385c-3.208-.246-5.8-3.63-5.8-7.558V257.833c0-3.928 2.6-7.312 5.8-7.556l489.5-37.386a7.977 7.977 0 018.714 8.079v395.635a7.976 7.976 0 01-8.714 8.077z" fill="#fff"/><path d="M1584.781 220.973a7.977 7.977 0 00-8.714-8.079l-489.5 37.386c-3.208.245-5.8 3.628-5.8 7.556v30.013l504.014-29.991z" fill="#ecf3ff"/><path d="M1576.734 625.421c-.238 0-.48-.008-.723-.027l-489.5-37.386c-3.561-.272-6.459-3.981-6.459-8.266v-321.9c0-4.285 2.9-7.993 6.459-8.266l489.5-37.386a8.7 8.7 0 019.483 8.788v395.626a8.694 8.694 0 01-8.76 8.817zm0-411.838c-.2 0-.407.007-.613.023l-489.5 37.386c-2.837.218-5.145 3.289-5.145 6.848v321.9c0 3.56 2.308 6.632 5.145 6.846l489.5 37.388a7.281 7.281 0 007.95-7.369V220.973a7.286 7.286 0 00-7.337-7.393z" fill="#252784"/><path d="M1097.68 268.138c0 2.244-1.49 4.16-3.325 4.281s-3.316-1.594-3.316-3.83 1.484-4.153 3.316-4.281 3.325 1.586 3.325 3.83z" fill="#2b8fe5"/><path d="M1108.755 267.387c0 2.255-1.505 4.182-3.359 4.3s-3.348-1.6-3.348-3.849 1.5-4.174 3.348-4.3 3.359 1.593 3.359 3.849z" fill="#f0c331"/><path d="M1119.942 266.625c0 2.265-1.521 4.2-3.393 4.327s-3.382-1.608-3.382-3.867 1.512-4.2 3.382-4.327 3.393 1.597 3.393 3.867z" fill="#092772"/><path d="M1382.421 279.545v32.762l195.832-8.334v-35.326zm134.834 332.717l-134.834-9.893V321.608l134.834-5.237zM1370.373 458.96l-148.667-2.4V288.489l148.667-8.273z" fill="#ecf3ff"/><path d="M374.692 437.513l-27.027-2V149.264l27.027-1.5z" transform="translate(737.74 146.81)" fill="url(#i)"/><path d="M1486.381 491.646l-3.491-.084a4.87 4.87 0 01-4.64-4.933v-3.617a4.626 4.626 0 014.64-4.735l3.491.065a4.872 4.872 0 014.669 4.934v3.634a4.628 4.628 0 01-4.669 4.736zm17.196.41l-3.537-.085a4.917 4.917 0 01-4.7-4.965v-3.641a4.671 4.671 0 014.7-4.765l3.537.067a4.917 4.917 0 014.732 4.967v3.659a4.671 4.671 0 01-4.732 4.763z" fill="#b3cdfa"/><path d="M1403.674 506.831l-3.274-.1a4.69 4.69 0 01-4.353-4.8v-3.5a4.38 4.38 0 014.351-4.557l3.274.084a4.687 4.687 0 014.378 4.8v3.518a4.38 4.38 0 01-4.376 4.555zm16.118.498l-3.315-.1a4.733 4.733 0 01-4.408-4.835v-3.524a4.422 4.422 0 014.408-4.587l3.315.085a4.73 4.73 0 014.433 4.835v3.543a4.421 4.421 0 01-4.433 4.583zm16.326.501l-3.358-.1a4.778 4.778 0 01-4.465-4.867v-3.547a4.463 4.463 0 014.465-4.615l3.358.087a4.773 4.773 0 014.49 4.867v3.564a4.459 4.459 0 01-4.49 4.611zm16.537.507l-3.4-.1a4.821 4.821 0 01-4.522-4.9v-3.571a4.5 4.5 0 014.522-4.644l3.4.088a4.819 4.819 0 014.55 4.9v3.588a4.5 4.5 0 01-4.55 4.639zm16.754.515l-3.446-.105a4.866 4.866 0 01-4.58-4.933v-3.592a4.545 4.545 0 014.58-4.674l3.446.088a4.866 4.866 0 014.608 4.933v3.611a4.545 4.545 0 01-4.608 4.672z" fill="#fff"/><path d="M1486.381 509.374l-3.491-.108a4.911 4.911 0 01-4.64-4.964v-3.617a4.589 4.589 0 014.64-4.7l3.491.09a4.912 4.912 0 014.669 4.966v3.634a4.591 4.591 0 01-4.669 4.699zm17.196.528l-3.537-.108a4.961 4.961 0 01-4.7-5v-3.639a4.633 4.633 0 014.7-4.734l3.537.091a4.959 4.959 0 014.732 5v3.659a4.634 4.634 0 01-4.732 4.731z" fill="#b3cdfa"/><path d="M1403.674 523.999l-3.274-.124a4.727 4.727 0 01-4.353-4.832v-3.5a4.345 4.345 0 014.351-4.529l3.274.107a4.726 4.726 0 014.375 4.831v3.52a4.345 4.345 0 01-4.373 4.527zm16.118.604l-3.315-.125a4.772 4.772 0 01-4.408-4.864v-3.525a4.385 4.385 0 014.408-4.556l3.315.107a4.77 4.77 0 014.433 4.866v3.541a4.384 4.384 0 01-4.433 4.556zm16.326.612l-3.358-.125a4.816 4.816 0 01-4.465-4.9v-3.544a4.425 4.425 0 014.465-4.584l3.358.108a4.814 4.814 0 014.49 4.9v3.566a4.423 4.423 0 01-4.49 4.579zm16.537.622l-3.4-.128a4.861 4.861 0 01-4.522-4.93v-3.57a4.466 4.466 0 014.52-4.614l3.4.109a4.859 4.859 0 014.55 4.93v3.588a4.467 4.467 0 01-4.548 4.615zm16.754.628l-3.446-.128a4.906 4.906 0 01-4.58-4.963v-3.594a4.509 4.509 0 014.58-4.642l3.446.112a4.906 4.906 0 014.608 4.964v3.61a4.508 4.508 0 01-4.608 4.641z" fill="#fff"/><path d="M1486.381 527.102l-3.491-.131a4.952 4.952 0 01-4.64-5v-3.612a4.552 4.552 0 014.64-4.672l3.491.114a4.952 4.952 0 014.669 5v3.634a4.552 4.552 0 01-4.669 4.667zm17.196.646l-3.537-.132a5 5 0 01-4.7-5.031v-3.641a4.6 4.6 0 014.7-4.7l3.537.114a5 5 0 014.732 5.032v3.658a4.6 4.6 0 01-4.732 4.7z" fill="#b3cdfa"/><path d="M1403.674 541.164l-3.274-.145a4.768 4.768 0 01-4.353-4.863v-3.5a4.309 4.309 0 014.351-4.5l3.274.128a4.766 4.766 0 014.375 4.863v3.52a4.31 4.31 0 01-4.373 4.497zm16.118.715l-3.315-.147a4.812 4.812 0 01-4.408-4.894v-3.526a4.35 4.35 0 014.408-4.526l3.315.129a4.81 4.81 0 014.433 4.9v3.54a4.349 4.349 0 01-4.433 4.524zm16.326.725l-3.358-.149a4.856 4.856 0 01-4.465-4.927v-3.547a4.391 4.391 0 014.465-4.554l3.358.132a4.853 4.853 0 014.49 4.928v3.564a4.389 4.389 0 01-4.49 4.553zm16.537.732l-3.4-.151a4.9 4.9 0 01-4.522-4.96v-3.57a4.431 4.431 0 014.522-4.583l3.4.134a4.9 4.9 0 014.55 4.961v3.587a4.431 4.431 0 01-4.55 4.582zm16.754.746l-3.446-.152a4.947 4.947 0 01-4.58-4.994v-3.594a4.473 4.473 0 014.58-4.611l3.446.135a4.947 4.947 0 014.608 5v3.611a4.473 4.473 0 01-4.608 4.605z" fill="#fff"/><path d="M1486.381 544.832l-3.491-.155a4.994 4.994 0 01-4.64-5.028v-3.617a4.515 4.515 0 014.64-4.64l3.491.137a5 5 0 014.669 5.03v3.634a4.516 4.516 0 01-4.669 4.639zm17.196.762l-3.537-.156a5.043 5.043 0 01-4.7-5.064v-3.639a4.559 4.559 0 014.7-4.67l3.537.138a5.043 5.043 0 014.732 5.064v3.659a4.56 4.56 0 01-4.732 4.668z" fill="#b3cdfa"/><path d="M1403.674 558.33l-3.274-.166a4.808 4.808 0 01-4.353-4.893v-3.5a4.277 4.277 0 014.351-4.47l3.274.151a4.806 4.806 0 014.375 4.892v3.519a4.275 4.275 0 01-4.373 4.467zm16.118.826l-3.315-.171a4.851 4.851 0 01-4.408-4.924v-3.529a4.317 4.317 0 014.408-4.5l3.315.154a4.849 4.849 0 014.433 4.926v3.541a4.315 4.315 0 01-4.433 4.503zm16.326.834l-3.358-.171a4.9 4.9 0 01-4.465-4.958v-3.547a4.356 4.356 0 014.465-4.524l3.358.155a4.894 4.894 0 014.49 4.958v3.564a4.354 4.354 0 01-4.49 4.523zm16.537.846l-3.4-.175a4.943 4.943 0 01-4.522-4.991v-3.57a4.4 4.4 0 014.522-4.552l3.4.157a4.941 4.941 0 014.55 4.993v3.582a4.4 4.4 0 01-4.55 4.556zm16.754.857l-3.446-.176a4.988 4.988 0 01-4.58-5.025v-3.594a4.437 4.437 0 014.58-4.58l3.446.159a4.988 4.988 0 014.608 5.027v3.611a4.438 4.438 0 01-4.608 4.578z" fill="#fff"/><path d="M1486.381 562.56l-3.491-.179a5.035 5.035 0 01-4.64-5.059v-3.617a4.478 4.478 0 014.64-4.608l3.491.161a5.036 5.036 0 014.669 5.061v3.634a4.48 4.48 0 01-4.669 4.607zm17.196.88l-3.537-.181a5.087 5.087 0 01-4.7-5.095v-3.641a4.522 4.522 0 014.7-4.637l3.537.162a5.085 5.085 0 014.732 5.1v3.658a4.524 4.524 0 01-4.732 4.634z" fill="#b3cdfa"/><path d="M1403.674 575.496l-3.274-.189a4.847 4.847 0 01-4.353-4.921v-3.5a4.242 4.242 0 014.351-4.439l3.274.172a4.847 4.847 0 014.375 4.921v3.519a4.24 4.24 0 01-4.373 4.437zm107.954-270.595l-8.719.377c-6.382.276-11.534-4.45-11.534-10.557v-8.291c0-6.107 5.152-11.339 11.534-11.689l8.719-.479c6.458-.354 11.717 4.368 11.717 10.548v8.393c0 6.181-5.259 11.418-11.717 11.698zm45.327-1.962l-9.022.39c-6.6.286-11.933-4.517-11.933-10.728v-8.434c0-6.21 5.33-11.537 11.933-11.9l9.022-.5c6.681-.367 12.124 4.431 12.124 10.719v8.544c-.001 6.286-5.446 11.62-12.124 11.909z" fill="#fff"/><path d="M1543.922 280.127v11.7l4.643-.221v4.04l4.72-4.265 7.721-.368v-11.775zm-31.226 17.76h-.027c-5.6.151-12.584-6.721-12.7-12.462a3.767 3.767 0 011.6-2.7l1.255-.821a1.576 1.576 0 01.782-.259 1.424 1.424 0 011.238.576l2.285 3.16a1.471 1.471 0 01-.349 2.029l-1.35 1.041a11.043 11.043 0 001.855 2.181 11.247 11.247 0 002.323 1.706l1-1.373a1.6 1.6 0 012.061-.442l3.369 2.083a1.416 1.416 0 01.435 1.968l-.778 1.275a5.065 5.065 0 01-2.999 2.038z" fill="#b3cdfa"/><path d="M1354.184 591.25a4.347 4.347 0 01-4.5 4.608 5.143 5.143 0 01-4.486-5.234 4.348 4.348 0 014.486-4.61 5.14 5.14 0 014.5 5.236zm-16.352-1.14a4.305 4.305 0 01-4.443 4.58 5.1 5.1 0 01-4.428-5.2 4.307 4.307 0 014.428-4.58 5.09 5.09 0 014.443 5.2zm-15.065-1.05a4.267 4.267 0 01-4.389 4.553 5.049 5.049 0 01-4.372-5.165 4.27 4.27 0 014.372-4.554 5.047 5.047 0 014.389 5.166zm-15.005-1.046c0 2.672-1.942 4.7-4.335 4.527a5.008 5.008 0 01-4.319-5.131c0-2.663 1.932-4.691 4.319-4.53a5 5 0 014.335 5.134zm-13.194-.92c0 2.658-1.922 4.675-4.288 4.506a4.973 4.973 0 01-4.274-5.1c0-2.649 1.912-4.667 4.274-4.506a4.966 4.966 0 014.288 5.1z" fill="#b3cdfa" opacity=".47"/><path d="M1350.289 599.291c-.171 0-.344-.006-.518-.018-4.177-.306-7.575-4.247-7.575-8.787 0-4.567 3.416-8.1 7.673-7.824 4.2.282 7.62 4.223 7.62 8.79 0 4.396-3.162 7.839-7.2 7.839zm-.895-15.221c-3.238 0-5.775 2.817-5.775 6.415 0 3.81 2.806 7.115 6.254 7.367 3.44.276 6.193-2.649 6.193-6.4 0-3.832-2.823-7.138-6.292-7.369a5.442 5.442 0 00-.38-.013z" fill="#b3cdfa" opacity=".47"/><path d="M1356.984 538.436c-.822-7.169-9.894-46.338-33.956-47.054-19.108-.568-28.845 24.963-34.027 25.445-5.159.48-8.9-12.419-16.572-10.844-7.625 1.565-9.466 13.888-15.2 17.372-5.708 3.467-9.574.285-19.52-.832-7.313-.822-13.283 5.866-15.884 9.383z" fill="#b3cdfa"/><path d="M1371.215 549.821l-159.86-8.364v-70.72l.727.016 159.133 3.6zm-158.437-9.715l157.014 8.215v-72.583l-157.014-3.548z" fill="#b3cdfa"/><path d="M1300.957 299.738c-28.393 1.623-50.883 28.151-51.079 59.581l51.079-1.282z" fill="#fff"/><path d="M1257.186 359.97c.2 26.865 19.523 48.591 43.767 48.716v-49.8zm82.095-2.895c-.211-23.026-17.082-41-37.563-40.37v41.313z" fill="#b3cdfa"/><path d="M1301.717 391.679c16.218-.411 29.528-15.329 29.737-33.546l-29.737.736z" fill="#fff"/><path d="M1232.077 418.461a.712.712 0 110-1.423h2.579a.712.712 0 010 1.423zm12.429-.006a.712.712 0 010-1.423h2.579a.712.712 0 010 1.423zm12.431-.006a.712.712 0 110-1.423h2.578a.712.712 0 110 1.423zm12.429 0a.712.712 0 110-1.423h2.579a.712.712 0 110 1.423zm12.429-.006a.712.712 0 110-1.423h2.582a.712.712 0 110 1.423zm12.431-.006a.712.712 0 110-1.423h2.578a.712.712 0 110 1.423zm12.429-.006a.712.712 0 010-1.423h2.58a.712.712 0 010 1.423zm12.429-.006a.712.712 0 010-1.423h2.579a.712.712 0 010 1.423zm12.431-.006a.712.712 0 010-1.423h2.578a.712.712 0 010 1.423zm12.429 0a.712.712 0 010-1.423h2.579a.712.712 0 010 1.423zm12.429-.006a.712.712 0 010-1.423h2.58a.712.712 0 110 1.423zm6.257-4.342a.712.712 0 01-.711-.711v-2.59a.712.712 0 111.423 0v2.579a.712.712 0 01-.712.715zm-134.037-3.486a.711.711 0 01-.711-.711v-2.578a.712.712 0 111.423 0v2.574a.711.711 0 01-.712.709zm134.037-8.945a.711.711 0 01-.711-.711v-2.578a.712.712 0 111.423 0v2.578a.711.711 0 01-.712.705zm-134.037-3.484a.712.712 0 01-.711-.711v-2.579a.712.712 0 111.423 0v2.579a.712.712 0 01-.712.704zm134.037-8.945a.712.712 0 01-.711-.711v-2.579a.712.712 0 111.423 0v2.579a.712.712 0 01-.712.704zm-134.037-3.491a.712.712 0 01-.711-.711v-2.579a.712.712 0 111.423 0v2.579a.712.712 0 01-.712.711zm134.037-8.95a.712.712 0 01-.711-.711v-2.579a.712.712 0 111.423 0v2.579a.712.712 0 01-.712.711zm-134.037-3.486a.711.711 0 01-.711-.711V370a.712.712 0 011.423 0v2.578a.711.711 0 01-.712.711zm134.037-8.945a.711.711 0 01-.711-.711v-2.578a.712.712 0 111.423 0v2.578a.711.711 0 01-.712.716zm-134.037-3.479a.712.712 0 01-.711-.711v-2.579a.712.712 0 111.423 0v2.579a.712.712 0 01-.712.711zm134.037-8.945a.712.712 0 01-.711-.711v-2.579a.712.712 0 111.423 0v2.579a.712.712 0 01-.712.711zm-134.037-3.485a.712.712 0 01-.711-.711v-2.579a.712.712 0 111.423 0v2.579a.712.712 0 01-.712.711zm134.037-8.946a.711.711 0 01-.711-.711v-2.578a.712.712 0 111.423 0v2.575a.711.711 0 01-.712.714zM1228.593 336a.711.711 0 01-.711-.711v-2.579a.712.712 0 111.423 0v2.578a.711.711 0 01-.712.712zm134.037-8.945a.712.712 0 01-.711-.711v-2.574a.712.712 0 011.423 0v2.578a.712.712 0 01-.712.707zm-134.037-3.485a.712.712 0 01-.711-.711v-2.578a.712.712 0 111.423 0v2.578a.712.712 0 01-.712.711zm134.037-8.945a.712.712 0 01-.711-.711v-2.579a.712.712 0 111.423 0v2.579a.712.712 0 01-.712.711zm-134.037-3.484a.712.712 0 01-.711-.711v-2.58a.712.712 0 111.423 0v2.58a.712.712 0 01-.712.711zm134.037-8.946a.711.711 0 01-.711-.711v-2.578a.712.712 0 111.423 0v2.578a.711.711 0 01-.712.711zm-134.037-3.485a.711.711 0 01-.711-.711v-1.211a5.076 5.076 0 01.245-1.564.711.711 0 011.353.437 3.652 3.652 0 00-.175 1.127v1.211a.711.711 0 01-.712.711zm8.831-5.481a.711.711 0 01-.037-1.421l2.574-.138a.706.706 0 01.748.672.714.714 0 01-.673.75l-2.575.138zm12.412-.664a.712.712 0 01-.038-1.423l2.577-.138a.712.712 0 01.074 1.421l-2.575.138zm12.411-.666a.711.711 0 01-.037-1.421l2.575-.138a.724.724 0 01.748.673.713.713 0 01-.673.748l-2.575.138zm12.414-.664a.712.712 0 01-.038-1.423l2.575-.137a.72.72 0 01.747.672.712.712 0 01-.672.75l-2.575.137zm12.416-.665a.712.712 0 01-.037-1.423l2.575-.138a.712.712 0 01.074 1.421l-2.574.138zm12.412-.666a.711.711 0 01-.037-1.421l2.574-.138a.712.712 0 01.075 1.421l-2.575.138zm63.076-.135a.712.712 0 01-.7-.585 3.154 3.154 0 00-.99-1.808.711.711 0 01.939-1.069 4.571 4.571 0 011.451 2.625.71.71 0 01-.575.825.636.636 0 01-.13.013zm-50.664-.529a.711.711 0 01-.038-1.421l2.577-.138a.712.712 0 01.075 1.421l-2.577.138zm12.411-.664a.712.712 0 01-.037-1.423l2.577-.137a.712.712 0 01.074 1.421l-2.575.137zm12.414-.666a.711.711 0 01-.037-1.421l2.574-.138a.712.712 0 11.075 1.421l-2.575.138zm12.412-.664a.711.711 0 01-.038-1.421l2.575-.138a.712.712 0 01.075 1.421l-2.575.138zm-240.383 15.911l-20.245 1.05v-3.711l20.245-1.085zm0 9.959l-20.245.96v-7.422l20.245-1.028zm0 9.96l-20.245.869v-7.422l20.245-.938z" fill="#b3cdfa"/><path d="M1173.456 299.496l-54.459 2.833v-8.128l54.459-3.031zm0 15.399l-54.459 2.467v-8.124l54.459-2.665zm0 15.4l-54.459 2.1v-8.122l54.459-2.3zm0 15.4l-54.46 1.734v-8.124l54.459-1.934zm0 15.4l-54.459 1.37v-8.124l54.459-1.568zm0 15.4l-54.459 1v-8.124l54.459-1.2zm0 15.4l-54.459.639v-8.124l54.459-.836zm40.334 15.197l-94.793.475v-8.124l94.793-.819zm0 15.671l-94.793-.162v-8.124l94.793-.183zm0 15.67l-94.793-.8v-8.126l94.793.454zm0 15.672l-94.793-1.435v-8.124l94.793 1.091zm-20.041 15.237l-74.752-1.633v-8.124l74.752 1.362zm0 15.531l-74.752-2.135v-8.129l74.752 1.864zm0 15.537l-74.753-2.633v-8.124l74.752 2.366zm0 15.534l-74.752-3.139v-8.124l74.752 2.868zm0 15.537l-74.752-3.641v-8.129l74.752 3.37zm0 15.537l-74.753-4.139v-8.124l74.752 3.872zm0 15.536l-74.752-4.645v-8.124l74.752 4.374zm0 15.536l-74.752-5.147v-8.129l74.752 4.876zm72.519 10.671l-5.513-.393c0-14.682-10.467-27.256-23.208-28.02-12.6-.757-22.762 10.346-22.762 24.746l-5.277-.377c0-17.736 12.495-31.449 28.039-30.557 15.75.905 28.721 16.432 28.721 34.601z" fill="#ecf3ff"/><path d="M1214.785 585.095l-5.277-.377c0-12.429 6.284-23.486 16.076-28.2l2.266 5.714c-7.953 3.805-13.065 12.771-13.065 22.863zm25.269-.302h.007a33741.1 33741.1 0 01-7.731-12.007l-.017.01a.923.923 0 00-1.214-.394 1.123 1.123 0 00-.451 1.3l-.017.01c.612 2.173 1.988 7.048 3.955 14.029h.009a4 4 0 00.2.58 3.121 3.121 0 004.251 1.8 3.714 3.714 0 001.3-4.793 4.207 4.207 0 00-.292-.535zm-1.791 3.574a1.466 1.466 0 01-2-.844 1.742 1.742 0 01.61-2.247 1.464 1.464 0 012 .841 1.745 1.745 0 01-.611 2.25zm104.458-282.753l-11.623.534a.2.2 0 00-.182.211v5.718a.183.183 0 00.182.193l4.419-.192a.174.174 0 01.159.1l1.06 1.975a.176.176 0 00.319-.013l1.061-2.069a.192.192 0 01.159-.108l4.445-.193a.2.2 0 00.185-.211v-5.747a.183.183 0 00-.184-.198z" fill="#b3cdfa"/><path d="M1348.759 385.795l-11.678.157a.2.2 0 00-.185.2v5.732a.192.192 0 00.185.2l4.44-.048a.178.178 0 01.159.1l1.066 2.016a.177.177 0 00.32 0l1.066-2.039a.187.187 0 01.161-.1l4.466-.048a.2.2 0 00.186-.206v-5.762a.193.193 0 00-.186-.202z" fill="#fff"/><path d="M1246.098 380.887l-10.73.172a.187.187 0 00-.169.2v5.493a.179.179 0 00.169.192l4.081-.054a.163.163 0 01.146.1l.979 1.929a.16.16 0 00.294 0l.979-1.956a.175.175 0 01.148-.1l4.1-.056a.186.186 0 00.171-.2v-5.52a.182.182 0 00-.168-.2z" fill="#b3cdfa"/><path d="M1248.468 313.976l-10.752.477a.192.192 0 00-.169.2v5.5a.174.174 0 00.169.188l4.088-.171a.157.157 0 01.148.091l.98 1.9a.161.161 0 00.3-.011l.98-1.986a.177.177 0 01.148-.1l4.112-.172a.193.193 0 00.171-.2v-5.526a.175.175 0 00-.175-.19z" fill="#fff"/><path d="M1213.79 391.422l-36.136.424V290.94l36.136-2.011zm364.207-68.495l-56.593 2.011v-8.475l56.593-2.193zm0 14.138l-56.593 1.714v-8.477l56.593-1.9zm0 14.139l-56.593 1.418v-8.477l56.593-1.6zm0 14.138l-56.588 1.125v-8.477l56.593-1.3zm0 14.137l-56.593.825v-8.477l56.593-1.006zm0 14.137l-56.593.528v-8.476l56.593-.71zm0 14.139l-56.593.231v-8.477l56.593-.413zm0 14.138l-56.593-.065v-8.477l56.593-.117zm0 14.137l-56.593-.362v-8.477l56.593.18zm0 14.138l-56.593-.658v-8.479l56.593.477zm0 14.138l-56.593-.955v-8.477l56.593.773zm0 14.138l-56.593-1.251v-8.477l56.593 1.07zm0 14.138l-56.593-1.548v-8.478l56.593 1.366zm0 14.137l-56.593-1.845v-8.477l56.593 1.663zm0 14.138l-56.593-2.141v-8.477l56.593 1.956zm0 14.138l-56.593-2.438v-8.478l56.593 2.256zm0 14.138l-56.593-2.734v-8.478l56.593 2.553zm0 14.138l-56.593-3.031v-8.477l56.593 2.849zm0 14.138l-56.593-3.327v-8.477l56.593 3.142zm0 14.138l-56.593-3.624v-8.478l56.593 3.443zm0 14.138l-56.593-3.921v-8.477l56.593 3.739zm0 14.137l-56.593-4.217v-8.477l56.593 4.035z" fill="#ecf3ff"/><path d="M1446.753 334.845v48.767l-45.381.625c.286 25.927 20.136 46.919 44.988 47 25.482.078 46.478-21.788 46.478-48.841 0-26.921-20.781-48.109-46.085-47.551z" fill="#fff"/><path d="M1401.359 383.667v.159l45-.625v-48.355c-25.034.775-45 22.632-45 48.821zm95.722 57.653l-2.584-.016a.712.712 0 010-1.423l2.579.016a3.694 3.694 0 002.036-.61.711.711 0 01.78 1.189 5.114 5.114 0 01-2.811.844zm-12.429-.077l-2.58-.017a.712.712 0 010-1.423l2.58.017a.712.712 0 010 1.423zm-12.431-.078l-2.578-.016a.712.712 0 01-.707-.716.731.731 0 01.716-.707l2.578.016a.712.712 0 010 1.423zm-12.43-.079l-2.58-.017a.712.712 0 010-1.423l2.579.017a.712.712 0 010 1.423zm-12.429-.078l-2.579-.016a.712.712 0 010-1.423l2.58.016a.712.712 0 010 1.423zm-12.431-.077l-2.578-.017a.712.712 0 010-1.423l2.578.017a.712.712 0 010 1.423zm-12.429-.078l-2.578-.017a.712.712 0 010-1.423l2.58.017a.712.712 0 010 1.423zm-12.429-.078l-2.58-.016a.712.712 0 010-1.423l2.58.016a.712.712 0 010 1.423zm-12.431-.078h-.251a4.708 4.708 0 01-2.584-.8.712.712 0 11.79-1.184 3.278 3.278 0 001.8.558h.25a.712.712 0 010 1.423zm103.949-9.249a.711.711 0 01-.711-.711v-2.578a.712.712 0 011.423 0v2.578a.711.711 0 01-.712.711zm-108.381-.613a.712.712 0 01-.711-.711v-2.578a.712.712 0 011.423 0v2.578a.711.711 0 01-.717.71zm108.381-11.817a.712.712 0 01-.711-.711v-2.579a.712.712 0 111.423 0v2.579a.712.712 0 01-.712.711zm-108.381-.613a.712.712 0 01-.711-.711v-2.58a.712.712 0 011.423 0v2.58a.711.711 0 01-.717.711zm108.381-11.819a.712.712 0 01-.711-.711v-2.58a.712.712 0 011.423 0v2.58a.712.712 0 01-.712.711zm-108.381-.615a.711.711 0 01-.711-.711v-2.574a.712.712 0 011.423 0v2.578a.71.71 0 01-.717.71zm108.381-11.813a.711.711 0 01-.711-.711v-2.578a.712.712 0 111.423 0v2.578a.711.711 0 01-.712.711zm-108.381-.613a.712.712 0 01-.711-.711v-2.578a.712.712 0 011.423 0v2.578a.711.711 0 01-.717.711zm108.381-11.816a.712.712 0 01-.711-.711v-2.579a.712.712 0 111.423 0v2.579a.712.712 0 01-.712.711zm-108.381-.613a.712.712 0 01-.711-.711v-2.579a.712.712 0 011.423 0v2.579a.711.711 0 01-.717.711zm108.381-11.817a.712.712 0 01-.711-.711v-2.58a.712.712 0 111.423 0v2.58a.712.712 0 01-.712.711zm-108.386-.613a.711.711 0 01-.711-.711v-2.578a.712.712 0 011.423 0v2.578a.71.71 0 01-.712.711zm108.386-11.817a.711.711 0 01-.711-.711v-2.578a.712.712 0 111.423 0v2.578a.711.711 0 01-.712.711zm-108.381-.613a.712.712 0 01-.711-.711v-2.579a.712.712 0 011.423 0v2.578a.711.711 0 01-.717.712zm108.381-11.817a.712.712 0 01-.711-.711v-2.579a.712.712 0 111.423 0v2.579a.712.712 0 01-.712.711zm-108.381-.613a.712.712 0 01-.711-.711v-2.579a.712.712 0 011.423 0v2.579a.711.711 0 01-.717.711zm108.381-11.816a.712.712 0 01-.711-.711v-2.4a.777.777 0 01.676-.815.648.648 0 01.743.6c0 .075.006.152 0 .228v2.386a.712.712 0 01-.708.712zm-108.078-.578a.689.689 0 01-.248-.044.713.713 0 01-.42-.915 5.377 5.377 0 011.726-2.373.712.712 0 11.875 1.123 3.933 3.933 0 00-1.266 1.747.712.712 0 01-.672.462zm11.14-3.19a.712.712 0 01-.023-1.423l2.577-.087a.7.7 0 01.735.686.714.714 0 01-.689.736l-2.577.087zm12.424-.424a.711.711 0 01-.024-1.421l2.577-.088a.711.711 0 11.048 1.421l-2.578.088zm12.422-.423a.712.712 0 01-.024-1.423l2.578-.087a.711.711 0 11.047 1.421l-2.577.087zm12.422-.423a.712.712 0 01-.023-1.423l2.577-.087a.71.71 0 11.048 1.42l-2.578.088zm12.424-.424a.711.711 0 01-.024-1.421l2.577-.088a.7.7 0 01.734.687.711.711 0 01-.687.734l-2.577.088zm12.421-.423a.712.712 0 01-.023-1.423l2.577-.087a.7.7 0 01.735.686.713.713 0 01-.688.736l-2.577.087zm12.424-.424a.711.711 0 01-.024-1.421l2.578-.088a.7.7 0 01.734.687.713.713 0 01-.687.736l-2.578.087zm12.422-.423a.711.711 0 01-.023-1.421l2.577-.088a.7.7 0 01.736.686.712.712 0 01-.689.736l-2.577.088z" fill="#b3cdfa"/><path d="M932.691 492.883h-21.6a.341.341 0 00-.341.341v9.675a.342.342 0 00.341.343h8.235a.345.345 0 01.3.171l1.971 3.413a.342.342 0 00.592 0l1.972-3.413a.341.341 0 01.3-.171h8.235a.343.343 0 00.343-.343v-9.675a.342.342 0 00-.348-.341z" fill="#092772"/><path d="M969.424 454.983h-21.6a.342.342 0 00-.343.342V465a.343.343 0 00.343.343h8.233a.342.342 0 01.3.171l1.972 3.413a.341.341 0 00.592 0l1.97-3.413a.344.344 0 01.3-.171h8.236a.342.342 0 00.341-.343v-9.675a.341.341 0 00-.344-.342z" fill="#e88400"/><path d="M1004.464 416.985h-21.595a.343.343 0 00-.343.341v9.676a.343.343 0 00.343.341h8.235a.342.342 0 01.3.171l1.972 3.413a.341.341 0 00.592 0l1.971-3.413a.344.344 0 01.3-.171h8.236a.342.342 0 00.341-.341v-9.677a.342.342 0 00-.352-.34z" fill="#f0c331"/><path d="M1039.741 381.272h-21.6a.342.342 0 00-.341.343v9.675a.342.342 0 00.341.343h8.236a.344.344 0 01.3.171l1.971 3.413a.342.342 0 00.592 0l1.972-3.413a.342.342 0 01.3-.171h8.235a.343.343 0 00.343-.343v-9.675a.343.343 0 00-.349-.343z" fill="#2b8fe5"/><ellipse cx="15.958" cy="6.918" rx="15.958" ry="6.918" transform="translate(905.934 522.207)" fill="#ecf3ff"/><path d="M237.481 319.537c-8.813 0-15.958-3.1-15.958-6.919v31.916c0 3.822 7.145 6.919 15.958 6.919s15.958-3.1 15.958-6.919v-31.916c0 3.822-7.144 6.919-15.958 6.919z" transform="translate(684.411 216.507)" fill="url(#j)"/><ellipse cx="15.958" cy="6.918" rx="15.958" ry="6.918" transform="translate(977.707 448.233)" fill="#ecf3ff"/><path d="M287.927 267.542c-8.814 0-15.958-3.1-15.958-6.917v63.831c0 3.822 7.144 6.919 15.958 6.919s15.958-3.1 15.958-6.919v-63.831c0 3.82-7.146 6.917-15.958 6.917z" transform="translate(705.738 194.526)" fill="url(#j)"/><ellipse cx="15.958" cy="6.918" rx="15.958" ry="6.918" transform="translate(1012.985 412.977)" fill="#ecf3ff"/><path d="M312.722 242.764c-8.813 0-15.958-3.1-15.958-6.919v79.79c0 3.82 7.145 6.918 15.958 6.918s15.958-3.1 15.958-6.918v-79.79c0 3.822-7.144 6.919-15.958 6.919z" transform="translate(716.221 184.05)" fill="url(#j)"/><ellipse cx="15.958" cy="6.918" rx="15.958" ry="6.918" transform="translate(942.667 485.056)" fill="#ecf3ff"/><path d="M263.3 293.425c-8.814 0-15.958-3.1-15.958-6.919v47.875c0 3.82 7.144 6.918 15.958 6.918s15.958-3.1 15.958-6.918v-47.875c-.001 3.821-7.147 6.919-15.958 6.919z" transform="translate(695.326 205.468)" fill="url(#j)"/><path d="M1345.42 391.424c-1.407 1.2-5.368 5.883-5.368 5.883s5.291-8.811 5.787-9.614-.29-1.8-.962-1.554a5.565 5.565 0 01.5-1.056c.68-.773-.745-2.008-2.406-.283s-6.881 8.757-7.713 8.693 3.341-8.679 3.921-10.278-1.339-1.9-4.183 2.589-6.165 11.005-7.653 12.34-2.45-.622-2.839-1.915-3.267-5.546-4.681-4.093.9 2.917.845 4.436a15.057 15.057 0 001.1 7.916 44.594 44.594 0 001.834 3.773 7.423 7.423 0 00-1.026 1.111l-.7.955a2.916 2.916 0 00-1.813 1.208l-.019.026-.047.065-17.991 24.533-44.733.461v.01c-.075 0-.147-.007-.222-.006a14.372 14.372 0 00-2.218.248c-2.75-1.814-9.487-5.5-20.482-6.94a9.714 9.714 0 00-5.132-6.169l-.966-4.143a19.14 19.14 0 0010.063-22.793l-3.6-11.926a19.048 19.048 0 00-5.855-8.971l-.228-.637 2.931-1.044-.03-.084a8.925 8.925 0 00-11.4-5.414l-10.917 3.887-5.927 2.111a15.5 15.5 0 00-9.4 19.8l6.331 17.779a8.062 8.062 0 005.389 5.049 4817.88 4817.88 0 001.6 6.851 5.208 5.208 0 00-4.533 5.583l.219 2.672c-16.117 4.917-23.957 14.084-25 15.968a.941.941 0 00-.056.249 14.277 14.277 0 00-1.652 4.2s-4.705 21.481-8.461 38.685a11.277 11.277 0 00-.4 2.5c0 .021-.006.043-.006.064a11.233 11.233 0 007.057 11.025l20.676 12.506c-.3 12.294-.659 27.072-.8 34.65a4.1 4.1 0 00.626 2.244 21101.476 21101.476 0 00-5.4 41.169l32.67 2.5c3.075-14.051 5.6-25.627 7.02-32.1l.144 32.651 31.759 2.426c2.311-24.682 4.054-43.268 4.054-43.268l.094-1.148.121-1.327c.05-.552.087-1.111.087-1.679a18.179 18.179 0 00-.37-3.652 3.435 3.435 0 00.314-1.46c-.175-8.2-4.039-53.364-6.673-83.426.208-.018.421-.023.627-.05l50.229-6.715h.067a11.244 11.244 0 009.03-7.189 11.188 11.188 0 001.952-2.78l.007.006c7.922-16.072 14.036-28.844 14.563-30.072a2.583 2.583 0 00-.326-2.37 7.037 7.037 0 00.344-1.051 6.945 6.945 0 00.158-1.622 10.089 10.089 0 00.531-1c4.826-9.035 10.924-20.437 11.109-20.7.306-.464-.165-1.494-1.571-.293zm-153.318 99.386l.334-.864.662 1.63z" fill="#7c96c4" opacity=".3"/><path d="M1710.164 728.041c-1.053-4.46-12.719-28.8-44.083-28.8-25.349 0-38.422 16.567-45.422 17.012s-12.091-7.783-22.589-6.585-13.045 9.252-21 11.681-13.363.461-27.363.017c-10.366-.33-18.879 4.263-22.6 6.67z" fill="#ecf3ff"/><path d="M1267.056 754.083l99.039 3.734 36.7-32.916-76.412-2.349z" fill="#7c96c4" opacity=".2"/><path d="M476.1 476.682l99.039 3.734 36.7-32.916-74.586-3.1z" transform="translate(792.039 272.219)" fill="url(#j)"/><path d="M1213.533 767.259l99.039 3.734 36.7-32.916-76.412-2.349z" fill="#7c96c4" opacity=".2"/><path d="M438.48 485.943l99.039 3.734 36.7-32.916-74.586-3.1z" transform="translate(776.135 276.135)" fill="url(#j)"/><g fill="#2b8fe5"><path d="M1654.798 279.796h5.518v16.813h-5.518z"/><path d="M1649.166 285.439h16.813v5.518h-16.813z"/></g><g fill="#f0c331"><path d="M1005.62 308.146l11.886 11.886-3.9 3.9-11.89-11.883z"/><path d="M1013.599 308.138l3.9 3.9-11.883 11.889-3.9-3.9z"/></g><g fill="#f0c331"><path d="M1625.321 317.564l11.886 11.886-3.9 3.9-11.89-11.883z"/><path d="M1633.3 317.556l3.9 3.9-11.883 11.889-3.9-3.9z"/></g><path d="M1043.008 291.09h16.816v5.518h-16.816zm568.844 5.651h16.816v5.518h-16.816z" fill="#e88400"/><g transform="translate(1127.069 353.625)"><ellipse cx="79.201" cy="18.98" rx="79.201" ry="18.98" transform="translate(0 345.382)" fill="#ecf3ff"/><path d="M398.811 448.561v-6.466a2.184 2.184 0 012.184-2.184l14.076-.057-.139-3a1.034 1.034 0 011.579-1l7.2 4.561a7.163 7.163 0 004.389 1.185l7.3-.36a2.967 2.967 0 013.108 2.76l.312 4.56z" transform="translate(-367.705 -85.088)" fill="url(#h)"/><path d="M503.557 221.391a47.025 47.025 0 003.075 5.926c-1.347 2.245-4.634 8.433-3.429 6.178l9.255 5.243c.5-1.48 5.058-8.934 5.21-9.444 4.826-9.035 10.925-20.437 11.11-20.7.307-.438-.165-1.468-1.571-.267s-5.368 5.883-5.368 5.883 5.291-8.811 5.786-9.614-.29-1.8-.962-1.554a5.653 5.653 0 01.5-1.056c.68-.773-.746-2.008-2.406-.283s-6.881 8.759-7.713 8.695 3.341-8.68 3.922-10.279-1.34-1.9-4.184 2.589-6.163 11.005-7.652 12.34-2.452-.622-2.84-1.915-3.267-5.546-4.681-4.093.9 2.917.845 4.438a15.052 15.052 0 001.103 7.913z" transform="translate(-324.436 -185.132)" fill="url(#d)"/><ellipse cx="27.981" cy="6.706" rx="27.981" ry="6.706" transform="translate(161.217 341.199)" fill="#ecf3ff"/><path d="M432.54 209.8a10.771 10.771 0 00-12.4 13.05l6.865 29.427.024.1v.02a10.772 10.772 0 1020.98-4.894l-6.865-29.429-.024-.1v-.021a10.772 10.772 0 00-8.58-8.153z" transform="translate(-358.806 -180.66)" fill="url(#c)"/><path d="M443.718 240.834l-.371.111a19.155 19.155 0 01-23.877-12.795l-3.6-11.927a19.156 19.156 0 0112.8-23.877l.37-.112a19.154 19.154 0 0123.877 12.8l3.6 11.926a19.157 19.157 0 01-12.799 23.874z" transform="translate(-360.843 -188.361)" fill="url(#e)"/><path d="M60.638 6.518l5.927-2.111L77.482.52a8.925 8.925 0 0111.4 5.414l.03.085-2.931 1.043 3.257 9.143a7.662 7.662 0 01-3.257 9.128l-.135-.383a4.229 4.229 0 00-5.4-2.565l-.081.028a4.231 4.231 0 00-2.565 5.4l2.868 8.051a8.08 8.08 0 01-4.9 10.322l-7.874 2.8a8.079 8.079 0 01-10.322-4.9l-6.331-17.779a15.5 15.5 0 019.397-19.789z" fill="#172b36"/><path d="M451.468 240.524l-31.631 2.589-.694-8.477a5.217 5.217 0 014.775-5.627l16.742-1.372a9.722 9.722 0 0110.482 8.9z" transform="translate(-359.117 -173.059)" fill="url(#a)"/><path d="M93.621 361.583a7.4 7.4 0 01-4.507-7.814l8.067-60.706a7.4 7.4 0 0114.67 1.951l-8.069 60.7a7.4 7.4 0 01-10.161 5.865z" fill="#2b8fe5"/><path d="M438.178 448.561v-6.466a2.184 2.184 0 012.184-2.184l14.075-.057-.139-3a1.034 1.034 0 011.579-1l7.2 4.561a7.163 7.163 0 004.389 1.188l7.3-.36a2.967 2.967 0 013.109 2.757l.312 4.56z" transform="translate(-351.062 -85.088)" fill="url(#h)"/><path d="M81.663 147.385v-.006l-38.91-29.956-.006.007a11.23 11.23 0 10-12.658 18.502l42.017 25.416a8.475 8.475 0 009.558-13.967z" fill="#2b8fe5"/><path d="M60.93 92.893a14.342 14.342 0 10-27.387-8.229s-4.845 22.121-8.628 39.445h.013a11.117 11.117 0 00-.255 1.8 11.234 11.234 0 0021.7 4.647l.037-.1.03-.078 14.49-37.485zM36.858 359.485a7.4 7.4 0 01-4.507-7.815l8.067-60.7a7.4 7.4 0 0114.67 1.949l-8.067 60.705a7.406 7.406 0 01-10.163 5.865z" fill="#2b8fe5"/><path d="M107.12 354.037c.7-8 15.355-164.333 15.355-164.333l.1-1.148.12-1.328c.05-.552.087-1.111.087-1.679a18.156 18.156 0 00-36.312-.017s.734 162.7.652 168.86 19.296 7.642 19.998-.355z" fill="#172b36"/><path d="M51.703 355.927c2.447-9.814 36.049-163.674 36.049-163.674l.608-2.813a18.129 18.129 0 00-17.728-22.046 18.164 18.164 0 00-18 15.882l-.209 1.545C34.712 318.815 31.659 350.758 31.175 356.474c-.532 6.3 18.837 6.218 20.528-.547z" fill="#172b36"/><path d="M496.682 259.681a9.8 9.8 0 01-5.728-15.347l1-1.367 17.523-23.9A7.044 7.044 0 01522.1 224.7a7.248 7.248 0 01-.555 1.551l-.556 1.138-12.648 25.66-.7 1.4a9.753 9.753 0 01-10.959 5.232z" transform="translate(-329.552 -177.924)" fill="url(#k)"/><path d="M176.716 78.813a11.232 11.232 0 00-11.348-10.941v-.007l-50.742.524v.01c-.074 0-.147-.007-.221-.006a14.351 14.351 0 10.736 28.693 14.706 14.706 0 001.534-.124l50.229-6.715h.068a11.236 11.236 0 009.744-11.434z" fill="#0f8efc"/><path d="M192.526 50.202c1.852-4.3-12.323-11.25-15.11-6.9l-.018.026-.047.065c-7.931 10.813-7.962 10.857-18.527 25.266a11.231 11.231 0 1019.131 11.606l.007.006c7.921-16.069 14.036-28.842 14.564-30.069z" fill="#0f8efc"/><path d="M35.246 80.217c1.32-2.389 13.569-16.506 39.8-18.789s38.583 8.252 38.583 8.252 8.828 98.259 9.094 110.757-71.394 18.043-71.124 3.653 1.308-54.741 1.308-54.741-19.208-46.323-17.661-49.132z" fill="#2b8fe5"/></g><g transform="translate(889.216 520.982)"><ellipse cx="43.317" cy="14.154" rx="43.317" ry="14.154" transform="translate(63.863 233.03)" fill="#004fa0" opacity=".4"/><ellipse cx="43.316" cy="14.154" rx="43.316" ry="14.154" transform="translate(61.129 229.837)" fill="url(#j)"/><path d="M104.445 256.462c-20.578 0-36.7-5.478-36.7-12.471s16.12-12.471 36.7-12.471 36.7 5.478 36.7 12.471-16.122 12.471-36.7 12.471zm0-23.518c-21.1 0-35.275 5.712-35.275 11.048s14.174 11.048 35.275 11.048 35.276-5.712 35.276-11.048-14.175-11.048-35.276-11.048z" fill="#fff"/><ellipse cx="22.089" cy="7.218" rx="22.089" ry="7.218" transform="translate(82.356 236.773)" fill="#7c96c4" opacity=".2"/><path d="M296.561 505.861h-.81c-22.128 0-40.067-17.358-40.067-38.769v-43.308h80.943v43.308c.001 21.408-17.937 38.769-40.066 38.769z" transform="translate(-190.362 -257.476)" fill="url(#j)"/><ellipse cx="40.471" cy="9.672" rx="40.471" ry="9.672" transform="translate(65.323 156.637)" fill="#b3cdfa"/><path d="M334.9 426.278c0 2.234-6.061 5.037-16.76 6.758-.341.057-.711.114-1.067.171-2.077.313-4.325.583-6.716.8-.37.043-.754.085-1.138.114-3.287.27-6.872.455-10.7.512-.356.014-.711.014-1.081.014-.555.014-1.11.014-1.679.014a150.5 150.5 0 01-17.244-.925c-.384-.028-.754-.085-1.124-.128-13.175-1.622-20.773-4.823-20.773-7.327 0-2.276 6.289-5.136 17.344-6.858.356-.057.711-.1 1.067-.156a145.416 145.416 0 0120.73-1.366c1.551 0 3.073.014 4.553.057l1.053.043a136.7 136.7 0 0113.787 1.081 3.569 3.569 0 01.384.057c.256.028.512.071.754.1a2.619 2.619 0 01.327.057c11.641 1.689 18.283 4.649 18.283 6.982z" transform="translate(-189.966 -259.965)" fill="url(#l)"/><path d="M298.549 442.152c2.494 2.932 24.669-.279 36.734-8.077s11.361-13.461 16.272-18.748 12.648-6.808 17.11-13.837c6.464-10.187 5.671-29.605.629-30.854-3.725-.922-6.913 10.725-18.153 13.051s-24.544.669-38 12.705c-12.064 10.791-19.401 40.108-14.592 45.76z" transform="translate(-172.871 -279.967)" fill="url(#f)"/><path d="M120.392 174.039a108.108 108.108 0 011.764-5.35 76.721 76.721 0 013.529-8.167c.2-.427.413-.839.64-1.252a6.3 6.3 0 01.285-.541c14.726-27.829 42.6-41.218 55.232-47.293 1.565-.754 2.874-1.38 3.842-1.892a20.357 20.357 0 0011.268-18.923.54.54 0 00-.583-.484.53.53 0 00-.47.583 19.307 19.307 0 01-10.713 17.884c-.967.5-2.248 1.124-3.813 1.878-12.506 6-39.823 19.122-54.9 46.254q-.491.854-.939 1.75c-.114.2-.228.413-.342.626a81.928 81.928 0 00-4.026 9.22 93.395 93.395 0 00-1.907 5.819z" fill="#b3cdfa"/><path d="M191.611 107.182a21.344 21.344 0 01-2.382-.121.533.533 0 01.128-1.058c.071.01 7.107.815 10.7-2.187a.534.534 0 11.683.82c-2.584 2.157-6.586 2.546-9.129 2.546zm-16.783 7.646a.529.529 0 01-.468-.277c-2.42-4.431.9-10.4 1.039-10.655a.534.534 0 01.929.526c-.031.055-3.167 5.708-1.032 9.617a.534.534 0 01-.468.79zm19.267 1.648c-6.95 0-13.908-4.123-14.266-4.34a.533.533 0 11.551-.913c.1.061 10.42 6.169 18.056 3.5a.533.533 0 11.353 1.006 14.163 14.163 0 01-4.694.747zm-42.401 12.87a.534.534 0 01-.47-.279c-4.684-8.653 3.1-21.056 3.439-21.579a.533.533 0 01.9.572c-.08.124-7.785 12.4-3.4 20.5a.534.534 0 01-.215.724.544.544 0 01-.254.062zm31.858.843a35.418 35.418 0 01-22.165-8.07.534.534 0 01.724-.784 34.133 34.133 0 0024.587 7.63.533.533 0 11.105 1.061 32.385 32.385 0 01-3.251.163zm-20.411 14.075c-14 0-20.953-6.946-21.037-7.033a.533.533 0 11.764-.744c.1.1 10.315 10.243 31.082 5.4a.534.534 0 11.24 1.04 48.63 48.63 0 01-11.049 1.337zm-26.804-.257a.529.529 0 01-.4-.185c-7.7-8.9-.013-23.2.319-23.8a.534.534 0 01.936.514c-.078.141-7.663 14.253-.448 22.591a.534.534 0 01-.4.882zm14.743 12.942a45.64 45.64 0 01-19.822-4.417.533.533 0 11.509-.936 45.114 45.114 0 0030.514 2.823.534.534 0 01.277 1.031 44.313 44.313 0 01-11.478 1.499z" fill="#b3cdfa"/><path d="M284.447 426.15s.948-24.722-10.78-36.239c-9.608-9.436-23.4-13.447-29.976-16.066-10.095-4.021-28.6-14.431-31.113-22.682-1.024-3.368-6.32 10.483 1.023 30.082 17.721 47.301 66.032 49.505 70.846 44.905z" transform="translate(-209.773 -288.392)" fill="url(#b)"/><path d="M88.551 173.769c-.384-.029-.754-.085-1.124-.128-.4-1.906-.839-3.884-1.323-5.89-.654-2.717-1.309-5.478-2.106-8.295-4.268-15.238-12.335-32-42.5-49.584C9.984 91.49 1.717 63.29 1.632 63.006a.534.534 0 011.024-.3c.085.285 8.252 28.086 39.382 46.24 30.618 17.842 38.714 34.872 43.025 50.352.783 2.789 1.437 5.52 2.077 8.209.514 2.136.984 4.227 1.411 6.262z" fill="#b3cdfa"/><path d="M25.082 97.633a.532.532 0 01-.478-.295c-3.617-7.209-.482-15.985-.347-16.356a.533.533 0 111 .367c-.031.085-3.109 8.719.3 15.511a.534.534 0 01-.475.773zm-10.56-11.548a.532.532 0 01-.494-.333c-1.97-4.829-1.077-11.237-1.039-11.507a.526.526 0 01.6-.452.533.533 0 01.452.6c-.009.063-.888 6.4.97 10.952a.532.532 0 01-.292.7.526.526 0 01-.197.04zm27.251 23.855a.534.534 0 01-.457-.258c-5.428-8.975-1.767-21.491-1.609-22.019a.534.534 0 011.023.306c-.038.125-3.681 12.6 1.5 21.159a.534.534 0 01-.455.811zm13.933 9.134a.536.536 0 01-.491-.322 21.812 21.812 0 012.676-22.225.531.531 0 01.753-.051.537.537 0 01.05.754 20.732 20.732 0 00-2.5 21.1.534.534 0 01-.279.7.527.527 0 01-.209.044zm12.218 10.754a.533.533 0 01-.522-.424 14.725 14.725 0 014.227-13.479.535.535 0 01.711.8c-.056.048-5.461 5.012-3.894 12.465a.533.533 0 01-.413.632.585.585 0 01-.109.006zM18.211 90.58a.525.525 0 01-.357-.137c-5.963-5.364-15.6-2.7-15.693-2.676a.533.533 0 11-.292-1.024c.417-.118 10.3-2.844 16.7 2.907a.534.534 0 01-.357.93zm-8.979 14.375a.534.534 0 01-.262-1c.413-.23 10.253-5.614 21.434-2.921a.531.531 0 01.394.643.525.525 0 01-.643.393c-10.765-2.592-20.568 2.764-20.664 2.817a.539.539 0 01-.259.068zm11.117 14.724a.534.534 0 01-.333-.95c.118-.094 12-9.436 26.428-7.083a.533.533 0 01.441.612.543.543 0 01-.612.441c-13.967-2.276-25.476 6.772-25.591 6.863a.523.523 0 01-.333.117zm21.252 14.58a.533.533 0 01-.387-.9c.425-.451 10.577-11.029 22.594-8.742a.533.533 0 11-.2 1.047c-11.452-2.165-21.519 8.32-21.62 8.428a.527.527 0 01-.387.167z" fill="#b3cdfa"/><path d="M301.774 413.395s-6.986-23.8 1.581-37.681c7.019-11.372 19.431-18.435 25.177-22.491 8.821-6.225 24.247-20.589 24.659-29.181.169-3.506 8.71 8.733 6.387 29.459-5.611 50.019-51.999 63.257-57.804 59.894z" transform="translate(-172.012 -299.896)" fill="url(#m)"/><path d="M128.175 173.072c-.555-3.77-1.11-8.423-1.522-13.744l-.043-.6c-.057-.655-.1-1.309-.142-1.992v-.014c-.242-3.571-.4-7.413-.455-11.468-.228-17.827-.484-38.031 29.124-66.472 26.108-25.1 27.232-54.393 27.232-54.691a.516.516 0 00-.512-.541.5.5 0 00-.555.512c0 .285-1.124 29.167-26.9 53.952-29.935 28.754-29.679 49.214-29.451 67.254.057 4.709.27 9.148.583 13.218-.014.014 0 .014 0 .014 0 .228.028.441.043.669.028.455.071.911.114 1.352v.014c.4 4.88.925 9.177 1.423 12.705z" fill="#b3cdfa"/><path d="M167.963 63.145a.557.557 0 01-.118-.013.533.533 0 01-.4-.636c1.645-7.384-3.464-15.064-3.516-15.141a.534.534 0 01.884-.6c.222.329 5.419 8.133 3.674 15.969a.534.534 0 01-.524.421zm7.423-13.645a.452.452 0 01-.075-.006.533.533 0 01-.454-.6c.69-4.859-1.72-10.8-1.744-10.861a.533.533 0 01.986-.405c.105.255 2.545 6.273 1.814 11.418a.532.532 0 01-.527.454zm-20.619 29.43a.505.505 0 01-.158-.023.534.534 0 01-.353-.667c2.93-9.508-3.668-20.787-3.735-20.9a.533.533 0 11.916-.545c.283.477 6.909 11.793 3.839 21.758a.534.534 0 01-.509.377zm-11.292 12.079a.576.576 0 01-.085-.007.535.535 0 01-.442-.613 20.942 20.942 0 00-7.609-19.929.534.534 0 01.615-.872 22.077 22.077 0 018.049 20.973.534.534 0 01-.528.448zm-9.234 13.251a.533.533 0 01-.532-.512c-.307-7.6-6.781-11.184-6.846-11.22a.533.533 0 11.505-.939 14.972 14.972 0 017.407 12.118.535.535 0 01-.512.553zm38.663-49.545a.535.535 0 01-.44-.834c4.8-7.064 15.079-6.673 15.512-6.664a.533.533 0 01.509.556.552.552 0 01-.556.511c-.1-.016-10.117-.366-14.583 6.2a.538.538 0 01-.442.231zm-8.902 13.948a.54.54 0 01-.477-.292.534.534 0 01.235-.717c10.2-5.186 21.08-2.217 21.538-2.087a.535.535 0 01.368.659.542.542 0 01-.659.37c-.107-.031-10.944-2.982-20.764 2.009a.531.531 0 01-.241.058zm13.964 14.81a.55.55 0 01-.225-.05c-.134-.061-13.549-6.2-26.546-.79a.533.533 0 11-.41-.985c13.442-5.6 27.27.744 27.408.807a.534.534 0 01-.228 1.017zm-17.067 19.046a.527.527 0 01-.289-.087c-.125-.08-12.5-7.956-23.073-3.224a.533.533 0 11-.437-.972c11.112-4.977 23.565 2.961 24.09 3.3a.534.534 0 01-.292.982z" fill="#b3cdfa"/><path d="M257.695 328.941s13.952 25.274 25.229 34.724c14.911 12.5 30.806 40.683 24 70.567-3.615 15.868-11.867 19.368-11.867 19.368s-7.632-22.377-15.349-30.535-16.167-15.367-18.623-35.386-3.39-58.738-3.39-58.738z" transform="translate(-189.512 -297.573)" fill="url(#f)"/><path d="M103.457 175.132a163.78 163.78 0 002.846-16.632c1.28-10.955 1.366-22.494-.882-33.393-3.386-16.376-11.752-28.783-19.833-40.777-4.439-6.573-8.636-12.8-11.781-19.378-8.75-18.24-5.876-54.947-5.848-55.317a.528.528 0 10-1.053-.085c-.043.37-2.931 37.362 5.933 55.858 3.187 6.659 7.4 12.9 11.866 19.52 8.024 11.909 16.319 24.216 19.663 40.407 2.234 10.8 2.148 22.252.882 33.122a164.847 164.847 0 01-2.874 16.689z" fill="#b3cdfa"/><path d="M80.957 78.89a.533.533 0 01-.494-.331c-4.388-10.772 1.2-23.38 1.44-23.911a.533.533 0 11.972.44c-.057.127-5.637 12.727-1.424 23.069a.533.533 0 01-.292.7.559.559 0 01-.202.033zm9.535 14.335a.535.535 0 01-.507-.363c-4.159-12.463 2.656-26.419 2.948-27.007a.534.534 0 01.956.475c-.07.141-6.909 14.154-2.893 26.192a.533.533 0 01-.337.676.494.494 0 01-.167.027zm9.074 16.309a.531.531 0 01-.5-.354c-4.472-12.5 7.487-26.163 8-26.74a.534.534 0 01.8.708c-.121.137-12.048 13.767-7.791 25.673a.535.535 0 01-.323.683.567.567 0 01-.186.03zm5.333 16.225a.535.535 0 01-.529-.468c-1.671-13.132 12.389-19.665 12.529-19.732a.534.534 0 01.44.973c-.134.061-13.481 6.277-11.916 18.62a.534.534 0 01-.461.6.582.582 0 01-.063.007zm1.961 17.674h-.028a.531.531 0 01-.505-.559c.566-10.762 12.027-13.576 12.142-13.6a.534.534 0 01.245 1.04c-.441.1-10.8 2.666-11.321 12.62a.536.536 0 01-.533.499z" fill="#b3cdfa"/><path d="M92.059 95.699a.533.533 0 01-.437-.228c-6.307-8.948-21.943-5.084-22.1-5.044a.535.535 0 01-.264-1.036c.672-.171 16.51-4.078 23.237 5.465a.535.535 0 01-.435.841zm9.122 17.654a.534.534 0 01-.465-.272c-5.789-10.245-24.19-3.486-24.374-3.413a.534.534 0 01-.376-1c.792-.294 19.445-7.139 25.678 3.888a.535.535 0 01-.464.8zm4.785 18.922a.532.532 0 01-.492-.327c-3.328-7.925-14.283-5.133-14.4-5.109a.533.533 0 11-.272-1.03c.121-.034 11.963-3.058 15.652 5.725a.536.536 0 01-.492.741z" fill="#b3cdfa"/><path d="M67.857 0s11.079 24.553 9.046 46.873-3.614 55.416 3.422 67.461a40.49 40.49 0 01-11.1-27.949c-.12-17.759.59-26.385-4.015-32.94S53.809 12.919 67.857 0z" fill="#172b36"/></g><g transform="translate(1377.089 493.354)"><path d="M662.171 350.481c-.553-.009-11.044-9.178-11.044-9.178l2.892-10.709s9 3.5 9.319 7.212 2.731 12.729-1.167 12.675z" transform="translate(-511.053 -269.247)" fill="url(#n)"/><path d="M147.398 83.897h-54.56a4.393 4.393 0 01-3.908-2.992L77.506 43.587a2.137 2.137 0 012.077-2.992h54.56a4.4 4.4 0 013.909 2.992l11.422 37.316a2.136 2.136 0 01-2.076 2.994z" fill="#005ff0"/><path d="M92.379 82.402a2.2 2.2 0 01-1.955-1.5L79.002 43.586a1.069 1.069 0 011.037-1.5h54.562a2.2 2.2 0 011.953 1.5l11.425 37.319a1.07 1.07 0 01-1.039 1.5zm30.671 1.104h-6.1a.543.543 0 01-.484-.37v-.007a.265.265 0 01.258-.371h6.1a.544.544 0 01.484.371v.007a.264.264 0 01-.258.37z" fill="#b3cdfa"/><path d="M97.194 68.452a8.835 8.835 0 01-7.857-6 5.135 5.135 0 01.591-4.6 4.688 4.688 0 013.9-1.811 8.844 8.844 0 017.859 6 5.148 5.148 0 01-.592 4.605 4.7 4.7 0 01-3.901 1.806zm-3.364-10.99a3.3 3.3 0 00-2.759 1.235 3.684 3.684 0 00-.373 3.339 7.323 7.323 0 006.495 4.993 3.309 3.309 0 002.76-1.234 3.7 3.7 0 00.374-3.342 7.328 7.328 0 00-6.496-4.99z" fill="#fff"/><path d="M88.658 62.665a5.841 5.841 0 01.7-5.236 5.385 5.385 0 014.475-2.1v2.846a2.616 2.616 0 00-2.187.946 3.009 3.009 0 00-.265 2.709z" fill="#005ff0"/><path d="M115.172 68.452a8.839 8.839 0 01-7.858-6 5.143 5.143 0 01.592-4.6 4.69 4.69 0 013.9-1.81 8.837 8.837 0 017.857 6 5.133 5.133 0 01-.59 4.6 4.688 4.688 0 01-3.901 1.81zm-3.363-10.99a3.311 3.311 0 00-2.76 1.233 3.692 3.692 0 00-.373 3.341 7.325 7.325 0 006.5 4.993 3.306 3.306 0 002.76-1.235 3.69 3.69 0 00.371-3.341 7.322 7.322 0 00-6.498-4.99z" fill="#fff"/><path d="M106.634 62.665a5.844 5.844 0 01.7-5.236 5.39 5.39 0 014.476-2.1v2.846a2.616 2.616 0 00-2.187.946 3 3 0 00-.267 2.709z" fill="#005ff0"/><path d="M133.149 68.452a8.834 8.834 0 01-7.857-6 5.131 5.131 0 01.591-4.6 4.688 4.688 0 013.9-1.811 8.842 8.842 0 017.858 6 5.144 5.144 0 01-.592 4.605 4.69 4.69 0 01-3.9 1.806zm-3.363-10.99a3.306 3.306 0 00-2.76 1.235 3.684 3.684 0 00-.371 3.339 7.32 7.32 0 006.5 4.993 3.3 3.3 0 002.759-1.234 3.693 3.693 0 00.374-3.342 7.327 7.327 0 00-6.502-4.99z" fill="#fff"/><path d="M124.613 62.665a5.845 5.845 0 01.7-5.236 5.386 5.386 0 014.476-2.1v2.846a2.616 2.616 0 00-2.187.946 3.009 3.009 0 00-.266 2.709z" fill="#005ff0"/><path d="M98.339 63.383h-4.956l-.7-2.271h4.956zm17.977 0h-4.956l-.7-2.271h4.956zm17.977 0h-4.956l-.7-2.271h4.956z" fill="#fff" opacity=".5"/><path d="M680.838 355.477c-3.358-2-6.569-4.012-9.339-5.96l-3.217-2.947s-3.837-12.579-4.791-13.673-9.528-4.419-9.528-4.419l1.329 4.423c-1.5-.649-3.583-1.835-3.715-1.9-.388-.195-2.574 1.663-.1 3.426a56.531 56.531 0 006.015 3.565s2.679 10.9 4.243 13.972c.693 1.357 9.057 11.4 19.1 21.067z" transform="translate(-511.397 -270.141)" fill="url(#o)"/><ellipse cx="76.4" cy="18.309" rx="76.4" ry="18.309" transform="translate(0 258.056)" fill="#ecf3ff"/><ellipse cx="45.528" cy="10.911" rx="45.528" ry="10.911" transform="translate(150.508 276.892)" fill="#ecf3ff"/><path d="M636.589 497.306a7.5 7.5 0 01-9.626-3.789 6.871 6.871 0 01-.38-1.175l-.592-2.518h-.006l-17.119-73.269-.72-3.139a10.837 10.837 0 016.784-12.516 11.7 11.7 0 0115.02 5.912 10.633 10.633 0 01.788 2.887l.381 2.949h.008l9.583 74.552.347 2.757a7.008 7.008 0 01-4.468 7.349z" transform="translate(-529.343 -239.88)" fill="url(#p)"/><path d="M643.034 462.171l-.711-4.459-9.846 2.78-.9 3.587-2.8-2.541-8.791 2.481-.182 18.749a4.172 4.172 0 01-1.966 3.47l-7.972 5.075a2.176 2.176 0 00-.942 2.483l.01.035a2.336 2.336 0 002.555 1.574l16.793-2.229a4.442 4.442 0 003.082-1.86l6.777-9.847 3.248 8.76 4.749-1.342 1.909-19.177z" transform="translate(-528.938 -215.505)" fill="url(#q)"/><path d="M629.427 476.661l3.248 8.759 4.749-1.341 1.493-14.993z" transform="translate(-520.227 -210.696)" fill="url(#g)"/><path d="M640.592 469.656l-7.376-62.088-.178-1.3-.24-1.855a12.9 12.9 0 00-.95-3.482 13.749 13.749 0 00-12.7-8.1 14.115 14.115 0 00-5.244 1 13.039 13.039 0 00-8.142 15.074l.771 3.358s11.752 50.831 14.2 60.176 20.522 2.799 19.859-2.783z" transform="translate(-530.377 -242.935)" fill="url(#r)"/><path d="M680.033 311.837a11.094 11.094 0 0114.211 5.762 9.982 9.982 0 01.791 4.146c-.353 14.639-.354 14.689-.7 29.244v.12a10.447 10.447 0 01-6.822 9.429 11.1 11.1 0 01-14.211-5.761 9.982 9.982 0 01-.791-4.147c.351-14.639.353-14.687.7-29.244v-.121a10.453 10.453 0 016.822-9.428z" transform="translate(-502.017 -277.499)" fill="url(#s)"/><path d="M678.7 336.649l.364.083c9.972 2.274 19.987-3.607 22.366-13.134l2.8-11.22c2.38-9.527-3.775-19.094-13.747-21.367l-.366-.084c-9.972-2.274-19.986 3.607-22.366 13.135l-2.8 11.219c-2.384 9.528 3.771 19.095 13.749 21.368z" transform="translate(-505.427 -286.223)" fill="url(#t)"/><path d="M670.5 336.489l28.3-1.211-.477-6.959a2.619 2.619 0 00-3.093-2.325l-19.3 3.436a6.46 6.46 0 00-5.431 7z" transform="translate(-502.879 -271.209)" fill="url(#u)"/><path d="M587.274 502.278a7.21 7.21 0 01-7.361-7.033 6.748 6.748 0 01.122-1.224l.467-2.542h-.007l13.68-73.924.6-3.163a11.534 11.534 0 0122.787 1.911 10.556 10.556 0 01-.435 2.954l-.835 2.863h.01l-21.155 72.344-.79 2.673a7.334 7.334 0 01-7.083 5.141z" transform="translate(-541.161 -237.652)" fill="url(#v)"/><path d="M604.813 469.647l.522-3.917-18.8-2.225-9.4 17.137c-.575 1.285-2.928 2.318-4.364 2.585l-9.4 1.759a2.269 2.269 0 00-1.87 1.946v.036a2.231 2.231 0 001.724 2.39l16.4 4.11a4.592 4.592 0 003.593-.586l10.219-6.6-.526 9.278 4.924.507 9.48-17z" transform="translate(-548.952 -213.056)" fill="url(#w)"/><path d="M584.1 480.556l-.527 9.279 4.924.506 7.411-13.293z" transform="translate(-539.615 -207.33)" fill="url(#x)"/><path d="M732.6 406.649v-.435a20.154 20.154 0 00-22.076-20.063l-103.474 9.91-.257.043c-.366.044-.727.1-1.083.165l-.249.056a14.7 14.7 0 00-1 .245l-.286.09c-.3.092-.6.194-.9.309l-.332.134c-.262.11-.522.222-.8.356l-.381.195c-.223.115-.444.238-.664.367-.154.091-.3.185-.443.275-.184.119-.366.242-.544.368s-.333.242-.488.363-.288.229-.435.354a16.4 16.4 0 00-.522.458l-.319.314c-.192.188-.377.383-.551.573l-.212.248c-.2.232-.388.467-.57.71l-.118.167c-.2.273-.385.552-.607.918a12.9 12.9 0 00-1.646 4.318l-.293 1.552c-1.8 9.729-3.994 21.693-6.162 33.5-2.114 11.516-5.234 29.411-6.418 35.83s17.883 10.194 19.572 5.078 17.8-59.742 17.8-59.742l92.541 3.483a20.154 20.154 0 0020.917-20.139z" transform="translate(-540.397 -245.798)" fill="url(#y)"/><path d="M191.736 165.486c-3.856 9.728-63.392-15.983-58.07-22.363 7.105-8.52 12.34-14.6 12.34-14.6s-3.718-52.424-.589-56.125c4.884-5.782 20.595-8.175 37.188-9.911 13.851-1.448 19.263 4.119 20.673 7.31 3.426 7.751-13.862 70.466-13.862 70.466s4.479 19.78 2.32 25.223z" fill="#172b36"/><path d="M657.272 383.171c-4.241-3.159-22.639-18.247-29.494-24.577-2.057-2.328-3.322-3.915-3.382-4-.259-.357.283-4.063.083-5.049s-.306-5.065-.447-5.54-4.036-5.7-4.47-6.2-2.2-.5-1.685 1.453 1.807 4.218 1.1 4.282-3.038-1.978-3.28-2.294-.236-8.474-.256-9.241-2.022-2.3-2.436-.729-1.293 9.05-1.293 9.05-2.669 4.9-2.282 5.859c.085.211.266.647.266.647a3.507 3.507 0 00-.635 1.37 5.213 5.213 0 00.595 1.628 18.214 18.214 0 00-.034 2.207 71.1 71.1 0 008.133 9.921c.064.055 27.636 47.24 40.649 38.778 7.372-4.794 3.616-14.03-1.132-17.565z" transform="translate(-528.836 -269.247)" fill="url(#z)"/><path d="M635.481 358.321s-.982-.629-4.1-3.159-12.785 7.48-9.968 11.159c2.121 2.77 5.01 6.284 5.01 6.284z" transform="translate(-523.831 -259.031)" fill="url(#u)"/><path d="M166.01 79.37a11.424 11.424 0 00-11.675-11.154 11.743 11.743 0 00-10.342 5.99 286957.91 286957.91 0 00-19.139 34.979c-4.11-3.122-10.782-8.256-12.415-9.45-3.783-2.764-14.394 8.8-11.2 12.89 2.059 2.639 9.836 11.729 12.8 14.5a31.12 31.12 0 008.054 5.747 9.475 9.475 0 004.391 1.067h.023c.03 0 .058-.007.087-.007a9.28 9.28 0 007.615-4.026l29.951-44.5h-.007a10.735 10.735 0 001.857-6.036z" fill="#172b36"/><path d="M219.404 86.764H163.37a6.555 6.555 0 00-6.253 4.591l-27.28 86.951H83.804a4.116 4.116 0 00-4.116 4.116v.083a4.116 4.116 0 004.116 4.116h113.195l28.657-91.343a6.553 6.553 0 00-6.252-8.514z" fill="#f7ede2"/><path fill="#fff5dc" d="M151.106 186.622h10.158v70.335h-10.158z"/><path fill="#f0daa5" d="M148.673 186.622h15.181v11.176h-15.181z"/><path fill="#f7ede2" d="M150.502 224.049h11.523v37.755h-11.523z"/><path d="M106.711 279.403a6.32 6.32 0 106.32-6.318 6.32 6.32 0 00-6.32 6.318z" fill="#172b36"/><path d="M109.73 279.404a3.3 3.3 0 103.3-3.3 3.3 3.3 0 00-3.3 3.3z" fill="#fff"/><path fill="#172b36" d="M109.635 266.098h2.241v8.137h-2.241zm96.022 13.305a6.319 6.319 0 11-6.32-6.318 6.32 6.32 0 016.32 6.318z"/><path d="M202.64 279.404a3.3 3.3 0 11-3.3-3.3 3.3 3.3 0 013.3 3.3z" fill="#fff"/><path fill="#172b36" d="M200.494 266.098h2.241v8.137h-2.241z"/><g transform="translate(147.935 261.804)"><circle cx="6.32" cy="6.32" transform="translate(0 6.987)" fill="#172b36" r="6.32"/><path d="M9.621 13.306a3.3 3.3 0 11-3.3-3.3 3.3 3.3 0 013.3 3.3z" fill="#fff"/><path fill="#172b36" d="M7.476 0h2.241v8.137H7.476z"/></g><path d="M109.635 270.995l40.788-9.15v-7.773l-40.788 11.527zm93.179 0l-40.788-9.15v-7.773l40.788 11.527z" fill="#f7ede2"/><path d="M133.182 167.649l.467-1.487h69.77l-.467 1.487zm7.656-24.4l-.467 1.487h69.77l.467-1.487zm-3.594 11.459l-.467 1.485h69.768l.467-1.485zm14.379-45.83l-.467 1.485h69.768l.467-1.485zm3.594-11.459l-.467 1.487h69.77l.467-1.487zm-7.189 22.917l-.467 1.487h69.77l.467-1.487zm-3.6 11.458l-.465 1.487h69.768l.467-1.487z" fill="#f0daa5"/><path d="M707.044 315.981c-.081 0-.159.011-.241.011.155-1.409.3-2.769.411-4.039 1.108-12.244-4.786-18.324-12.694-20.521l-1.8-.5-.343-.1-6.609-1.832a12.273 12.273 0 00-2.605-1.067 12.09 12.09 0 00-14.8 7.629l7.777 2.161c-1.636 3.905-1.636 12.219 4.059 15.646a4.2 4.2 0 012.39 8.047c.642 1.565 8.059 53.936 24.455 53.936a29.686 29.686 0 100-59.372z" transform="translate(-503.767 -287.476)" fill="url(#A)"/></g><path d="M1038.299 321.814h14.566v4.78h-14.566zm0 8.275h14.566v4.78h-14.566z" fill="#092772"/></g></svg>