<svg xmlns="http://www.w3.org/2000/svg" width="28" height="28" viewBox="0 0 28 28"><circle cx="14" cy="14" r="14" fill="#0270ad"/><path d="M20.722 19.742h-2.723v-4.181a3.157 3.157 0 00-.112-.9 1.288 1.288 0 00-.447-.7 1.324 1.324 0 00-1.006-.238 1.441 1.441 0 00-1.246 1.05 1.86 1.86 0 00-.057.593v4.368h-2.725v-7.908h2.723v1.1c.112-.139.2-.259.3-.373a2.568 2.568 0 011.645-.882 3.62 3.62 0 011.72.163 2.606 2.606 0 011.132.785 3.4 3.4 0 01.738 1.787c.02.149.041.3.059.446zM8 9.2c.01-.041.022-.081.033-.122A1.367 1.367 0 019.256 8.02a1.832 1.832 0 011.1.163 1.325 1.325 0 01.682 1.447 1.276 1.276 0 01-.961 1.023 1.787 1.787 0 01-1.331-.09 1.292 1.292 0 01-.724-.95c-.006-.022-.014-.042-.022-.064zm.169 2.627h2.711v7.912H8.274c-.089.006-.113-.017-.113-.104v-7.716c0-.029.006-.057.008-.092z" fill="#fff"/></svg>