<svg xmlns="http://www.w3.org/2000/svg" width="99.782" height="99.774" viewBox="0 0 99.782 99.774"><g stroke="#092772"><path d="M9.695 59.931a41.02 41.02 0 004.488 10.965 10.273 10.273 0 0014.395 14.516 40.942 40.942 0 0010.926 4.586 10.288 10.288 0 0010.18 9.277h.039a10.293 10.293 0 0010.213-9.192 40.978 40.978 0 0010.967-4.492 10.265 10.265 0 0013.762-.629 10.3 10.3 0 00.75-13.758 41 41 0 004.586-10.926 10.269 10.269 0 00.09-20.434 41.121 41.121 0 00-4.488-10.969 10.272 10.272 0 00-14.395-14.511 40.942 40.942 0 00-10.926-4.586 10.272 10.272 0 00-20.438-.086 41.1 41.1 0 00-10.965 4.488 10.272 10.272 0 00-14.516 14.391 40.966 40.966 0 00-4.586 10.93 10.267 10.267 0 00-.082 20.43zm8.371-17.449a10.243 10.243 0 00-3.672-2.371 36.287 36.287 0 013.649-8.69A10.255 10.255 0 0031.695 17.88a36.325 36.325 0 018.723-3.574 10.247 10.247 0 009.59 6.727h.047a10.283 10.283 0 009.594-6.648 36.381 36.381 0 018.7 3.648 10.257 10.257 0 0013.543 13.66 36.381 36.381 0 013.569 8.728 10.259 10.259 0 00-3.754 16.859 10.176 10.176 0 003.664 2.371 36.473 36.473 0 01-3.645 8.688 10.265 10.265 0 00-13.66 13.551 36.288 36.288 0 01-8.73 3.576 10.251 10.251 0 00-19.223-.086 36.381 36.381 0 01-8.7-3.648 10.257 10.257 0 00-13.534-13.661 36.288 36.288 0 01-3.574-8.727 10.287 10.287 0 006.731-9.581 10.166 10.166 0 00-2.969-7.281zm.027 38.926a5.654 5.654 0 117.992.035 5.784 5.784 0 01-7.992-.035zm31.625 13.25h-.023a5.667 5.667 0 01-5.633-5.68 6.566 6.566 0 01.082-.793h0a5.644 5.644 0 115.574 6.477zm31.7-12.977a5.8 5.8 0 01-8-.035 5.656 5.656 0 118 .035zm13.25-31.6a5.669 5.669 0 01-5.652 5.633v.078c-.008 0-.02 0-.027-.008v-.07c-.113 0-.223-.027-.332-.035h0a2.223 2.223 0 00-.477-.051 5.61 5.61 0 01-4.82-5.6 5.657 5.657 0 0111.313.051zm-12.98-31.72a5.649 5.649 0 01-.035 8 5.79 5.79 0 01-8-.035 5.656 5.656 0 118.035-7.961zM50.083 5.107a5.657 5.657 0 01-.02 11.314h-.027a5.655 5.655 0 01-5.633-5.68 5.672 5.672 0 015.676-5.633zM18.368 18.084a5.657 5.657 0 117.968 8.031 5.793 5.793 0 01-8-.039 5.644 5.644 0 01.035-7.992zm-7.57 25.973a5.657 5.657 0 01-.023 11.313v.151c-.008 0-.016 0-.023.008v-.152a5.658 5.658 0 01.051-11.316z" fill="#2b8fe5"/><path d="M49.785 73.47h.105a23.587 23.587 0 0016.368-40.567 2.308 2.308 0 00-3.2 3.324 18.938 18.938 0 01.497 26.794 13.853 13.853 0 00-3.82-7.352 14.167 14.167 0 00-3.457-2.548 9.087 9.087 0 10-12.586-.309c.035.035.078.07.117.105a13.991 13.991 0 00-7.7 9.973 18.955 18.955 0 0113.857-31.984 2.258 2.258 0 002.32-2.3 2.311 2.311 0 00-2.3-2.316 23.588 23.588 0 00-.2 47.176zm.395-31.562a4.492 4.492 0 01-.02 8.984h-.016a4.488 4.488 0 01-4.465-4.512 4.5 4.5 0 014.5-4.473zm-.359 14.242h.039a9.342 9.342 0 019.3 9.391 2.216 2.216 0 00.145.793 18.848 18.848 0 01-9.426 2.52h-.082a18.834 18.834 0 01-9.48-2.613 2.377 2.377 0 00.152-.785 9.364 9.364 0 019.348-9.3z" fill="#f0c331"/></g></svg>