<svg xmlns="http://www.w3.org/2000/svg" width="89.999" height="88.215" viewBox="0 0 89.999 88.215"><path d="M45.047 36.403a11.578 11.578 0 1011.578 11.578 11.593 11.593 0 00-11.578-11.578zm0 19.156a7.578 7.578 0 117.578-7.578 7.585 7.585 0 01-7.578 7.578z" fill="#2b8fe5"/><path d="M78.418 59.559A11.578 11.578 0 1066.84 47.981a11.59 11.59 0 0011.578 11.578zm0-19.156a7.578 7.578 0 11-7.578 7.578 7.585 7.585 0 017.578-7.578z" fill="#f0c331"/><path d="M83.156 61.153h-6.348a9.863 9.863 0 00-7.418 3.367l-5.238 5.989a4.189 4.189 0 01-2.723 1.391v-3.036a7.724 7.724 0 00-7.729-7.707h-1.243c-.8 0-.844 0-7.414 6.566l-5.993-5.992a2 2 0 00-1.55-.582c-.258.008-1.129 0-1.129 0a7.715 7.715 0 00-7.707 7.707v3.053a4.164 4.164 0 01-2.816-1.4l-5.248-6a9.851 9.851 0 00-7.414-3.371H6.839A6.861 6.861 0 000 67.985v18.23a2 2 0 002 2h17.155a2 2 0 002-2v-4.949l.133.121a6.269 6.269 0 002.2 1.27v3.559a2 2 0 004 0V83h6.441c.09 0 .18-.008.27-.016.125.012.234.016.313.016h21.07c.082 0 .164-.008.246-.012s.156.012.238.012h6.441v3.215a2 2 0 004 0v-3.559a6.219 6.219 0 002.2-1.27l.133-.121v4.949a2 2 0 002 2H88a2 2 0 002-2V67.985a6.844 6.844 0 00-6.844-6.832zm-46.785 4.008h.445l6.813 6.813a2 2 0 002.828 0c2.281-2.281 5.531-5.527 6.82-6.809h.43a3.719 3.719 0 013.727 3.707v3.086H56.07a5.531 5.531 0 00-5.523 5.523 5.439 5.439 0 00.219 1.523H39.239a5.461 5.461 0 00.219-1.523 5.531 5.531 0 00-5.523-5.523h-1.27v-3.09a3.713 3.713 0 013.707-3.707zM18.1 73.118a2 2 0 00-2.68 2.969l1.738 1.57v6.559H4V67.985a2.842 2.842 0 012.844-2.836H13.2a5.853 5.853 0 014.406 2l5.238 5.992a8.218 8.218 0 006.18 2.809h4.922a1.524 1.524 0 010 3.047H25.5a2.249 2.249 0 01-1.52-.586zM86 84.216H72.844v-6.559l1.738-1.57a2 2 0 10-2.68-2.969l-5.875 5.3a2.256 2.256 0 01-1.52.586h-8.44a1.524 1.524 0 010-3.047h4.926a8.2 8.2 0 006.18-2.809l5.238-6a5.857 5.857 0 014.406-2h6.352a2.842 2.842 0 012.844 2.836L86 84.216z" fill="#2b8fe5"/><path d="M0 47.981a11.578 11.578 0 1011.582-11.578A11.59 11.59 0 000 47.981zm19.156 0a7.578 7.578 0 11-7.578-7.578 7.585 7.585 0 017.578 7.578z" fill="#f0c331"/><path d="M43.719 0H22.11a9.537 9.537 0 00-9.531 9.519v12.329a9.532 9.532 0 008.891 9.488l-.84 3.066a2 2 0 002.77 2.34l11.609-5.375h8.711a9.529 9.529 0 009.52-9.52V9.519A9.535 9.535 0 0043.717 0zm5.52 21.848a5.526 5.526 0 01-5.52 5.519H34.54a1.925 1.925 0 00-.211.02c-.062.008-.129.012-.187.023s-.1.031-.148.047a1.666 1.666 0 00-.234.082c-.008 0-.016 0-.023.008l-8.108 3.762.387-1.41c0-.02 0-.035.008-.055a1.98 1.98 0 00.035-.211 1.719 1.719 0 00.02-.2c0-.02.008-.039.008-.062 0-.043-.012-.082-.012-.121a2 2 0 00-.02-.215 2.6 2.6 0 00-.043-.184 1.436 1.436 0 00-.059-.184 1.492 1.492 0 00-.082-.18 1.7 1.7 0 00-.09-.164c-.035-.055-.074-.105-.113-.16s-.078-.1-.121-.148-.09-.09-.137-.133a1.436 1.436 0 00-.148-.121 2.505 2.505 0 00-.172-.109 1.263 1.263 0 00-.16-.086 1.965 1.965 0 00-.211-.082c-.035-.012-.07-.031-.105-.039a.311.311 0 01-.059-.012 1.841 1.841 0 00-.2-.035 1.277 1.277 0 00-.207-.02c-.02 0-.039-.008-.059-.008h-1.972a5.531 5.531 0 01-5.531-5.519V9.52a5.531 5.531 0 015.531-5.519h21.6a5.526 5.526 0 015.52 5.519v12.328z" fill="#2b8fe5"/><path d="M23.379 13.266h9.691a2 2 0 100-4h-9.691a2 2 0 000 4zm19.062-4h-2.953a2 2 0 000 4h2.953a2 2 0 100-4zM27.07 18.102h-3.691a2 2 0 000 4h3.691a2 2 0 000-4zm15.371 0h-8.789a2 2 0 000 4h8.789a2 2 0 000-4z" fill="#f0c331"/></svg>