<svg xmlns="http://www.w3.org/2000/svg" width="70.836" height="95.832" viewBox="0 0 70.836 95.832"><path d="M70.836 35.418a35.418 35.418 0 10-54.141 30l.023 28.332a2.044 2.044 0 001.109 1.832 2.124 2.124 0 002.141-.109l15.45-10.332 15.5 10.332a2.207 2.207 0 001.168.359 2.015 2.015 0 00.973-.25 2.088 2.088 0 001.109-1.832l-.028-28.332a35.127 35.127 0 0016.695-30zm-34.25 45.5a2.207 2.207 0 00-1.168-.359 2 2 0 00-1.168.359l-13.359 8.945-.027-22.195a35.027 35.027 0 0029.109 0L50 89.863zm-1.168-14.25a31.25 31.25 0 1131.25-31.25 31.3 31.3 0 01-31.25 31.25z" fill="#2b8fe5"/><path d="M52.641 27.863l-10.609-1.555-4.75-9.609a2.068 2.068 0 00-1.864-1.11 2.026 2.026 0 00-1.859 1.109l-4.741 9.61-10.614 1.555a2.118 2.118 0 00-1.7 1.418 2.058 2.058 0 00.527 2.141l7.668 7.473-1.8 10.555a2.052 2.052 0 00.832 2.027 2.068 2.068 0 002.2.141l9.473-5 9.473 4.973a2.094 2.094 0 002.2-.168 2.066 2.066 0 00.832-2.027l-1.8-10.555 7.668-7.473a2.042 2.042 0 00-1.121-3.5zm-10.223 8.805a2.055 2.055 0 00-.609 1.832l1.277 7.473-6.723-3.527a2.184 2.184 0 00-1.945 0l-6.723 3.527 1.277-7.473a2.062 2.062 0 00-.609-1.832l-5.445-5.3 7.5-1.087a2.064 2.064 0 001.555-1.141l3.445-6.804 3.359 6.8a2.072 2.072 0 001.555 1.141l7.527 1.082z" fill="#f0c331"/></svg>