<svg xmlns="http://www.w3.org/2000/svg" width="96.876" height="96.877" viewBox="0 0 96.876 96.877"><path d="M39.554 68.833l-.988 2.961a8.372 8.372 0 015.262 5.262l2.961-.988a11.473 11.473 0 00-7.234-7.234z" fill="#2b8fe5"/><path d="M48.437 18.75c7.543 0 20.312-1.316 20.312-6.25s-12.77-6.25-20.312-6.25-20.312 1.316-20.312 6.25 12.77 6.25 20.312 6.25zm0-9.375c10.1 0 16.258 1.945 17.141 3.125-.883 1.18-7.041 3.125-17.141 3.125S32.179 13.68 31.296 12.5c.883-1.18 7.041-3.125 17.141-3.125z" fill="#f0c331"/><path d="M48.437 25c21.953 0 26.562-6.8 26.562-12.5S70.39 0 48.437 0 21.875 6.8 21.875 12.5 26.484 25 48.437 25zm0-21.875c8.754 0 23.438 1.219 23.438 9.375s-14.684 9.375-23.438 9.375-23.438-1.219-23.438-9.375 14.684-9.375 23.438-9.375z" fill="#f0c331"/><path d="M96.875 46.876a3.129 3.129 0 00-3.125-3.125H74.176a7.778 7.778 0 00-6.988 4.32l-1.867 3.734a6.226 6.226 0 00-4.383-1.8h-3.125V35.938a4.691 4.691 0 00-4.687-4.687 4.618 4.618 0 00-1.742.344 4.677 4.677 0 00-9.2 1.219v14.352a4.62 4.62 0 00-1.562-.289 4.685 4.685 0 00-4.508 3.469 4.618 4.618 0 00-1.742-.344 4.673 4.673 0 00-3.117 1.211l-1.57-3.141a7.774 7.774 0 00-6.988-4.32H3.125A3.129 3.129 0 000 46.877a6.23 6.23 0 003.242 5.445 3.034 3.034 0 00-.117.8 6.23 6.23 0 003.242 5.445 3.034 3.034 0 00-.117.8 6.23 6.23 0 003.242 5.445 3.034 3.034 0 00-.117.8 6.258 6.258 0 006.25 6.25h14.887a30.317 30.317 0 004.141 9.66 3.117 3.117 0 00-1.84 2.84v9.375a3.129 3.129 0 003.124 3.14h25a3.129 3.129 0 003.125-3.125v-9.375a3.117 3.117 0 00-1.84-2.84 30.192 30.192 0 004.141-9.66h14.888a6.258 6.258 0 006.25-6.25 3.034 3.034 0 00-.117-.8 6.23 6.23 0 003.242-5.445 3.035 3.035 0 00-.117-.8 6.23 6.23 0 003.242-5.445 3.035 3.035 0 00-.117-.8 6.23 6.23 0 003.242-5.445zm-43.75-12.5a1.562 1.562 0 011.563 1.562v14.063h-3.125V35.938a1.562 1.562 0 011.562-1.562zm-7.812-1.562a1.563 1.563 0 013.125 0v17.187h-3.125zm-6.25 18.75a1.563 1.563 0 013.125 0v9.374a1.563 1.563 0 11-3.125 0zm-6.25 3.125a1.563 1.563 0 013.125 0v6.249a1.563 1.563 0 11-3.125 0zM15.625 68.751a3.135 3.135 0 01-3.129-3.125h9.379v-3.125H12.5a3.135 3.135 0 01-3.129-3.125h9.379v-3.125H9.375a3.135 3.135 0 01-3.129-3.125h9.379v-3.125H6.25a3.129 3.129 0 01-3.125-3.125h19.574a4.664 4.664 0 014.191 2.59l2.8 5.59v9.938a29.329 29.329 0 00.266 3.754zm45.312 25h-25v-9.375h25zm3.125-28.754a27.04 27.04 0 01-5.48 16.254h-20.29a27.028 27.028 0 01-5.465-15.906 4.6 4.6 0 001.547.281 4.654 4.654 0 003.125-1.219 4.667 4.667 0 007.813-3.469v-1.711a7.574 7.574 0 002.605 1.238l5.875 1.473a33.9 33.9 0 00-3.547 8.777l-.2.785 3.031.758.2-.785a30.936 30.936 0 014.273-9.664l1.23-1.844-10.104-2.527a4.442 4.442 0 01-3.363-4.312h15.625a3.129 3.129 0 013.125 3.125zm26.562-15h-9.375v3.125h9.375a3.129 3.129 0 01-3.125 3.125h-9.375v3.125h9.375a3.129 3.129 0 01-3.125 3.125h-9.375v3.125h9.375a3.129 3.129 0 01-3.125 3.125H66.921a29.378 29.378 0 00.266-3.754v-8.742a5.932 5.932 0 00-.1-.992l2.895-5.789a4.666 4.666 0 014.2-2.594h19.566a3.129 3.129 0 01-3.125 3.125z" fill="#2b8fe5"/></svg>