<svg xmlns="http://www.w3.org/2000/svg" width="92.748" height="93.75" viewBox="0 0 92.748 93.75"><path d="M32.973 92.063a6.6 6.6 0 01-4.472-1.788 1.076 1.076 0 01-.113-.117 6.6 6.6 0 01-1.258-1.977 6.34 6.34 0 01-9.777-2.551l-.1.1a6.335 6.335 0 01-8.945-8.973l9.729-9.582a1.947 1.947 0 012.75.012l11.125 11.118.02.02 4.449 4.586a2.918 2.918 0 001.863.7 2.189 2.189 0 00.773-.133 1.954 1.954 0 012.02 3.246l-3.648 3.508a6.2 6.2 0 01-4.41 1.832zm-1.762-4.6a2.687 2.687 0 001.762.7 2.312 2.312 0 001.664-.7l.027-.027.625-.6a6.912 6.912 0 01-1.555-1.035c-.035-.031-.07-.066-.105-.1l-2.026-2.099a1.924 1.924 0 01-.395.566 2.421 2.421 0 00.008 3.293zm-11.1-9.164a1.951 1.951 0 011.383 3.332 2.292 2.292 0 000 3.289 2.462 2.462 0 003.43 0l3.52-3.52a1.914 1.914 0 01.621-.418l-9.668-9.664-8.334 8.214a2.427 2.427 0 003.441 3.422l.023-.023 4.223-4.082a1.967 1.967 0 011.363-.551z" fill="#2b8fe5"/><path d="M43.773 93.75a6.284 6.284 0 01-4.48-1.84 6.462 6.462 0 01-1.02-7.715 1.96 1.96 0 011.051-.863 2.57 2.57 0 00.523-.379 2.607 2.607 0 00.031-3.551 1.953 1.953 0 012.871-2.645l4.5 4.5a2.312 2.312 0 001.664.7 2.68 2.68 0 001.762-.7 2.421 2.421 0 000-3.293 1.953 1.953 0 112.762-2.762l3.52 3.52c.121.121.3.3.379.359a1.955 1.955 0 01.477 3.1l-9.574 9.715a6.247 6.247 0 01-4.48 1.852zm-2.316-7.133a2.562 2.562 0 00.6 2.531 2.462 2.462 0 003.43 0l3.238-3.285a6.22 6.22 0 01-4.223-1.836l-.465-.465a6.421 6.421 0 01-1.418 2.156 6.539 6.539 0 01-1.16.9z" fill="#2b8fe5"/><path d="M38.135 87.566a6.311 6.311 0 01-4.477-1.852l-.02-.02-4.5-4.637-15.331-15.335a1.931 1.931 0 01-.5-.844l-1.684-5.914a1.956 1.956 0 01.5-1.918l13.934-13.938a1.954 1.954 0 012.762 0 1.14 1.14 0 00.363.23 1.862 1.862 0 01.324.145c2.906 1.605 7.586.32 12.109-.922.652-.18 1.3-.355 1.938-.523a1.955 1.955 0 011.879.508l20.715 20.715a1.782 1.782 0 01.234.285 2.331 2.331 0 01.285.234l3.387 3.387 3.5 3.367.027.027a6.334 6.334 0 01-8.945 8.969l-.094-.09a6.353 6.353 0 01-9.781 2.547 6.6 6.6 0 01-1.258 1.977c-.035.039-.074.078-.113.117a6.409 6.409 0 01-8.9-.055l-.465-.465a6.421 6.421 0 01-1.418 2.156 6.3 6.3 0 01-4.473 1.848zm-1.707-4.605a2.459 2.459 0 003.422-.008 2.611 2.611 0 00.031-3.551 1.953 1.953 0 012.871-2.645l4.5 4.5a2.379 2.379 0 003.434-3.293 1.953 1.953 0 012.762-2.762l3.52 3.52a2.462 2.462 0 003.43 0 2.292 2.292 0 000-3.289 1.953 1.953 0 012.738-2.785l4.223 4.082.023.023a2.428 2.428 0 003.445-3.422l-3.5-3.363-.027-.027-3.4-3.4a1.783 1.783 0 01-.234-.285 2.332 2.332 0 01-.293-.233L43.467 46.105l-.816.223c-4.977 1.367-10.609 2.91-14.891.652l-.039-.016L15.69 58.995l1.234 4.32 14.988 14.989.02.02z" fill="#2b8fe5"/><path d="M63.904 66.547l-.258-.262a1.953 1.953 0 012.762-2.762l.262.262a1.954 1.954 0 01-2.766 2.762zM34.896 39.121a1.951 1.951 0 01-1.5-3.2l.7-.844a1.274 1.274 0 01.121-.129l.422-.422a1.956 1.956 0 012.668-.09l1.125.984a1.954 1.954 0 01-.965 3.4c-.469.078-.891.117-1.262.152-.355.035-.66.063-.93.117a2.083 2.083 0 01-.383.035z" fill="#2b8fe5"/><path d="M12.795 61.227a1.967 1.967 0 01-1.383-.57L.573 49.813a1.953 1.953 0 010-2.758l24.913-25.062a1.954 1.954 0 011.383-.574 1.967 1.967 0 011.383.57l10.84 10.84a1.948 1.948 0 01.031 2.727l-2.816 2.957a1.957 1.957 0 01-1.2.594c-5.043.559-6.785 2.059-7 2.773-.129.426.316.883.594 1.117a1.954 1.954 0 01.125 2.863L14.181 60.645a1.942 1.942 0 01-1.383.578zm-8.086-12.8l8.078 8.078 12.027-12.142a4.53 4.53 0 01-.441-3.621c.5-1.637 2.418-4.465 9.594-5.426l1.02-1.07-8.109-8.109z" fill="#2b8fe5"/><path d="M68.689 70.52a1.962 1.962 0 01-1.383-.57l-23.84-23.844-.816.223a38.29 38.29 0 01-9.711 1.8 10.76 10.76 0 01-5.309-1.223c-2.57-1.371-3.852-3.625-3.34-5.883.465-2.074 2.781-5.621 13.051-6.094h.032c1.191-.031 2.137-.715 3.582-1.82 1.719-1.316 3.859-2.957 7.1-2.957a13.036 13.036 0 015.371 1.3l.957-.516a1.95 1.95 0 012.309.34L79.22 53.812a1.948 1.948 0 01.508 1.875l-1.547 5.914a1.97 1.97 0 01-.52.9l-7.6 7.461a1.97 1.97 0 01-1.371.559zM44.048 41.975a1.954 1.954 0 011.383.57l23.27 23.27 5.836-5.73 1.129-4.31-20.707-20.7-.551.3a1.948 1.948 0 01-1.809.023 10.414 10.414 0 00-4.539-1.328c-1.914 0-3.215 1-4.719 2.152-1.559 1.2-3.328 2.551-5.832 2.625-7.227.336-9.238 2.313-9.4 3.047-.1.449.465 1.1 1.375 1.586a.1.1 0 01.027.016 7.007 7.007 0 003.434.746 35.545 35.545 0 008.676-1.668c.652-.18 1.3-.355 1.938-.523a1.631 1.631 0 01.492-.07z" fill="#2b8fe5"/><path d="M79.955 59.254a1.962 1.962 0 01-1.383-.57L53.65 33.762a1.954 1.954 0 010-2.762l10.84-10.84a1.962 1.962 0 012.766 0l24.917 24.915a1.962 1.962 0 010 2.766l-10.84 10.84a1.975 1.975 0 01-1.383.57zm-22.16-26.879l22.16 22.16 8.078-8.078-22.16-22.156z" fill="#2b8fe5"/><path d="M45.096 9.094a1.954 1.954 0 01-1.953-1.953V1.953a1.953 1.953 0 113.906 0V7.14a1.954 1.954 0 01-1.953 1.954zm15.109 8.719a1.953 1.953 0 01-.984-3.641l4.508-2.629a1.954 1.954 0 011.969 3.375l-4.508 2.629a1.973 1.973 0 01-.984.266zm-30.219 0a1.938 1.938 0 01-.98-.266l-4.508-2.629a1.954 1.954 0 011.969-3.375l4.506 2.632a1.953 1.953 0 01-.988 3.641zm23.375-5.715a1.953 1.953 0 01-1.688-2.938l1.578-2.707a1.954 1.954 0 013.375 1.969l-1.578 2.707a1.963 1.963 0 01-1.691.969zm-16.609 0a1.952 1.952 0 01-1.687-.969l-1.578-2.707a1.954 1.954 0 013.375-1.969L38.44 9.16a1.953 1.953 0 01-1.687 2.938zM5.834 27.344a4.883 4.883 0 114.883-4.883 4.89 4.89 0 01-4.883 4.883zm0-5.859a.977.977 0 10.977.977.977.977 0 00-.977-.977zm77.148-.001a5.859 5.859 0 115.859-5.859 5.867 5.867 0 01-5.859 5.859zm0-7.812a1.953 1.953 0 101.953 1.953 1.954 1.954 0 00-1.953-1.95zM81.6 48.258a1.953 1.953 0 112.762 0 1.954 1.954 0 01-2.762 0zM9.334 50.211a1.953 1.953 0 112.762 0 1.954 1.954 0 01-2.762 0z" fill="#f0c331"/></svg>