<svg xmlns="http://www.w3.org/2000/svg" width="82.442" height="97.25" viewBox="0 0 82.442 97.25"><g stroke="#092772"><path d="M41.221 12.841a2.473 2.473 0 002.466-2.471v-7.4a2.467 2.467 0 00-4.933 0v7.4a2.473 2.473 0 002.466 2.471zm-28.38 28.38a2.473 2.473 0 00-2.466-2.466h-7.4a2.467 2.467 0 000 4.933h7.4a2.473 2.473 0 002.471-2.466zm66.635-2.466h-7.4a2.467 2.467 0 100 4.933h7.4a2.467 2.467 0 100-4.933zM17.662 21.156a2.47 2.47 0 003.494-3.494l-5.243-5.234h0a2.468 2.468 0 10-3.48 3.48zm47.118 40.13a2.47 2.47 0 00-3.494 3.494l5.243 5.234h0a2.468 2.468 0 103.48-3.48zm-1.744-39.412a2.474 2.474 0 001.74-.717l5.234-5.243h0a2.468 2.468 0 10-3.48-3.48l-5.243 5.234h0a2.471 2.471 0 001.749 4.206zM17.662 61.286l-5.234 5.243h0a2.468 2.468 0 103.48 3.48l5.243-5.234h0a2.47 2.47 0 10-3.489-3.489z" fill="#f0c331"/><path d="M56.029 24.673a22.225 22.225 0 00-31.725 30.986 9.432 9.432 0 012.11 6.168v2.841a12.343 12.343 0 003.7 8.8v2.309a11.106 11.106 0 0022.212 0v-2.312a12.343 12.343 0 003.7-8.8v-2.972a9.52 9.52 0 012.132-6.168 22.208 22.208 0 00-2.119-30.851zm-7.751 45.792a7.99 7.99 0 01-.963.652 7.545 7.545 0 01-.986.444l-.222.074a6.815 6.815 0 01-1.013.273h-.231a6.713 6.713 0 01-1.175.162h-4.93a6.835 6.835 0 01-1.111-.1h-.239a7.113 7.113 0 01-1.013-.268l-.222-.074a7.832 7.832 0 01-.986-.444 8.606 8.606 0 01-.963-.657 7.408 7.408 0 01-2.753-4.627 31.724 31.724 0 009.75 1.236 31.722 31.722 0 009.75-1.236 7.415 7.415 0 01-2.693 4.567zm-7.057 11.476a6.167 6.167 0 01-6.163-5.492l.421.111.578.148.481.088a4.172 4.172 0 01.666.111h7.973a1.409 1.409 0 00.666-.111l.481-.088.578-.148.421-.111h0a6.165 6.165 0 01-6.094 5.493zM54.4 52.326a14.27 14.27 0 00-3.308 8.084c-.356.347-2.318 1.791-9.87 1.791s-9.564-1.444-9.871-1.791a14.113 14.113 0 00-3.248-8.01 17.276 17.276 0 0111.193-28.38 17.8 17.8 0 011.925-.074 17.054 17.054 0 0111.5 4.405 17.276 17.276 0 011.68 23.974z" fill="#2b8fe5"/><path d="M49.86 91.813H32.581a2.469 2.469 0 000 4.937H49.86a2.469 2.469 0 000-4.937zm-2.975-53.568l-8.13 8.121-3.2-3.184a2.468 2.468 0 00-3.48 3.48l4.937 4.937a2.475 2.475 0 003.48 0l9.87-9.87h0a2.468 2.468 0 00-3.48-3.48z" fill="#f0c331"/></g></svg>