<svg xmlns="http://www.w3.org/2000/svg" width="93.743" height="78.028" viewBox="0 0 93.743 78.028"><path d="M66.086 42.375l-10.543-2.992v-3.4a10.674 10.674 0 003.313-5.293c.168-.637.3-1.148.406-1.555a3.751 3.751 0 002.887-3.082l.645-4.051a4.17 4.17 0 00-.957-3.352 4.433 4.433 0 00-.488-.488 13.246 13.246 0 00.426-3.236v-.055a14.2 14.2 0 00-4.77-10.383 2.2 2.2 0 00-.852-1.543A14.457 14.457 0 0047.434 0h-1.3a12.746 12.746 0 00-6.988 2.539 2.18 2.18 0 00-1.73.414c-3.27 2.5-5.523 7.289-5.613 11.977a13.034 13.034 0 00.438 3.23 4.255 4.255 0 00-.5.492 4.17 4.17 0 00-.957 3.356l.645 4.051a3.763 3.763 0 002.887 3.074c.105.406.238.918.414 1.555a10.6 10.6 0 003.313 5.293v3.4l-10.555 2.99a10.011 10.011 0 00-7.852 9.781v19.939a5.95 5.95 0 005.949 5.938h42.4a5.957 5.957 0 005.957-5.937V52.153a10 10 0 00-7.852-9.777zm-30.043-17.52h-.375l-.523-3.312a2.186 2.186 0 001.863-2.927l-.273-.77a.972.972 0 00.113-.176l2.137-4.644a6.749 6.749 0 004.926-1.676l1.387.957a12.186 12.186 0 009.227 1.914l2.324 3.637c0 .008.008.008.008.012a1.013 1.013 0 01-.043.145l-.219.563a2.183 2.183 0 001.852 2.961l-.531 3.313h-.367a2.148 2.148 0 00-2.145 1.758c-.02.094-.137.57-.77 2.957a6.276 6.276 0 01-3.105 3.918l-1.758.938a6.316 6.316 0 01-5.937 0l-1.759-.939a6.272 6.272 0 01-3.113-3.918c-.648-2.449-.75-2.883-.762-2.918a2.194 2.194 0 00-2.156-1.793zM69.57 72.093a1.574 1.574 0 01-1.582 1.563h-42.4a1.57 1.57 0 01-1.574-1.562V52.155a5.614 5.614 0 014.438-5.512c.055-.012.105-.023.156-.039l11.227-3.2a3.326 3.326 0 002.582-3.25v-1.55a10.677 10.677 0 008.75 0v1.555a3.317 3.317 0 002.57 3.25l11.23 3.2c.051.012.1.023.156.039a5.617 5.617 0 014.452 5.507z" fill="#2b8fe5"/><path d="M20.975 43.586a12.047 12.047 0 015.98-3.336l7.27-2.062a9.236 9.236 0 00.8-2.039c.012-.039.02-.074.031-.113a12.679 12.679 0 01-2.449-4.793 2.81 2.81 0 01-.074-.273 2.1 2.1 0 00-1.062 1.477c-.012.043-.094.4-.676 2.586a5.253 5.253 0 01-2.596 3.283l-1.543.824a5.281 5.281 0 01-4.98 0l-1.552-.824a5.265 5.265 0 01-2.605-3.289c-.57-2.137-.656-2.523-.664-2.551a2.193 2.193 0 00-2.156-1.789h-.105l-.387-2.437a2.188 2.188 0 001.586-2.891l-.23-.645c0-.008.008-.012.012-.02l1.832-3.977a6.09 6.09 0 004.227-1.43l1.105.758a10.81 10.81 0 005.852 1.906 6.412 6.412 0 01.492-3.125 7.775 7.775 0 01-4.574-1.355l-2.148-1.477a1.561 1.561 0 00-1.977.176l-.6.586a3 3 0 01-2.883.738 1.546 1.546 0 00-.531-.051 9.445 9.445 0 01.867-1.344 2.216 2.216 0 001.176-.445c1.512-1.156 3.477-2.488 5.176-2.488h1.145a8.558 8.558 0 014.367 1.2 2.2 2.2 0 00.543 1.043c-.008-.164-.023-.32-.023-.477v-.07a19.043 19.043 0 01.727-4.781 13.019 13.019 0 00-5.613-1.293h-1.149a11.4 11.4 0 00-6.211 2.228 2.18 2.18 0 00-1.617.43 14.349 14.349 0 00-5.051 10.75 12.1 12.1 0 00.355 2.758c-.125.113-.238.23-.352.355a3.945 3.945 0 00-.9 3.164l.57 3.57a3.587 3.587 0 002.586 2.883c.086.332.2.73.32 1.219a9.642 9.642 0 002.914 4.711v2.676l-9.086 2.582a9.1 9.1 0 00-7.117 8.879v11.3a5.5 5.5 0 005.5 5.492h12.038v-4.379H5.5a1.119 1.119 0 01-1.125-1.117v-11.3a4.685 4.685 0 013.7-4.6c.051-.012.105-.023.156-.039l9.875-2.8a1.951 1.951 0 00.313-.1 12.15 12.15 0 012.156-3.423c.133-.145.27-.3.406-.441zm65.662 2.53l-9.094-2.58V40.86a9.689 9.689 0 002.914-4.711c.125-.488.23-.887.32-1.219a3.552 3.552 0 002.586-2.887l.57-3.57a3.908 3.908 0 00-.9-3.156 3.242 3.242 0 00-.344-.352 12.1 12.1 0 00.352-2.758v-.062a12.757 12.757 0 00-4.219-9.262 2.167 2.167 0 00-.836-1.437 12.951 12.951 0 00-7.832-2.645h-1.142a10.793 10.793 0 00-5.648 1.863 16.665 16.665 0 01.605 4.156v.1c0 .227-.02.445-.031.668 1.5-1.145 3.406-2.414 5.074-2.414h1.145a8.558 8.558 0 014.367 1.2 2.193 2.193 0 00.813 1.289 8.455 8.455 0 012.461 3 1.571 1.571 0 00-1.223-.147 7.784 7.784 0 01-6.645-1.043l-2.155-1.472a1.571 1.571 0 00-1.977.176l-.6.586a2.964 2.964 0 01-1.449.77 6.319 6.319 0 011.211 2.914 6.074 6.074 0 002.086-1.148l1.105.758a10.88 10.88 0 008.137 1.742l1.887 2.948a.7.7 0 00-.023.086l-.2.492a2.187 2.187 0 001.574 2.922l-.395 2.438h-.1a2.137 2.137 0 00-2.145 1.75c-.012.043-.094.4-.676 2.586a5.253 5.253 0 01-2.605 3.289l-1.551.824a5.273 5.273 0 01-4.977 0l-1.551-.824a5.24 5.24 0 01-2.6-3.294c-.57-2.137-.664-2.523-.668-2.551a2.186 2.186 0 00-1.211-1.57l-.086.336a12.7 12.7 0 01-2.332 4.637c.023.086.043.168.07.262a9.491 9.491 0 00.836 2.094l7.074 2.008a12.01 12.01 0 016.024 3.384c.18.188.355.383.523.582a12.409 12.409 0 011.977 3.176 3.388 3.388 0 00.488.156l9.883 2.8c.051.012.105.023.156.039a4.7 4.7 0 013.707 4.6v11.3a1.125 1.125 0 01-1.133 1.117H76.043v4.375h12.191a5.5 5.5 0 005.508-5.492v-11.3a9.074 9.074 0 00-7.105-8.853zm-36.262 1.275v.043a.923.923 0 01-.031.176.079.079 0 01-.012.043.567.567 0 01-.086.176.07.07 0 01-.02.027l-.051.06-1.621 3.723 2.59 9.324-1.023 2.1-3.328 6.84-3.336-6.836-1.023-2.1 2.594-9.328-1.618-3.723-.043-.059c0-.012-.012-.016-.016-.027a.733.733 0 01-.086-.164 1.515 1.515 0 01-.043-.191v-.031a.866.866 0 01.012-.2 1.45 1.45 0 01.063-.184v-.02l.039-.062c.012-.016.016-.027.027-.043s.016-.016.02-.027l.016-.016a1.2 1.2 0 01.125-.117s.012-.016.02-.02.012 0 .016-.012.012-.012.016-.012l2.781-2.52a.8.8 0 01.879 0l2.777 2.52.012.012a.018.018 0 01.02.012c.012 0 .016.016.02.02a.816.816 0 01.117.113c0 .012.016.016.02.02s.016.02.02.031a.681.681 0 01.1.207.149.149 0 01.02.059.506.506 0 01.035.191z" fill="#092772"/></svg>