<svg xmlns="http://www.w3.org/2000/svg" width="78" height="76" viewBox="0 0 78 76"><path d="M77.98 27.501a1.6 1.6 0 000-.35v-.057a1.432 1.432 0 00-.112-.3v-.048L71.07 13.945a6.561 6.561 0 00-5.806-3.5h-11.36V6.523A6.539 6.539 0 0047.352.001H30.563a6.538 6.538 0 00-6.552 6.523v3.921H13.989a6.558 6.558 0 00-5.554 3.09L.179 26.625v.057a1.759 1.759 0 00-.131.283v.108a1.637 1.637 0 00-.048.309v4.219a7.853 7.853 0 005.554 7.485v28.76a8.123 8.123 0 002.4 5.765A8.207 8.207 0 0013.744 76h50.513a8.174 8.174 0 008.19-8.154V39.118a7.867 7.867 0 005.554-7.485zM27.288 6.522a3.269 3.269 0 013.276-3.261h16.788a3.27 3.27 0 013.276 3.262v11.415h-23.34zM11.212 15.24a3.279 3.279 0 012.777-1.532h10.023v5.861a1.635 1.635 0 001.638 1.632h26.62a1.635 1.635 0 001.638-1.631v-5.862h11.36a3.277 3.277 0 012.9 1.745l5.47 10.406H4.567zM62.25 31.632v1.376a6.672 6.672 0 01-13.343 0v-3.88H62.24zm-16.626 1.376a6.67 6.67 0 01-13.34 0v-3.88h13.34zm-16.616 0a6.677 6.677 0 01-13.343 0v-3.88h13.35zm-25.8-1.376v-2.5h9.188v2.5a4.594 4.594 0 01-9.188 0zm29.655 41.105V59.043a6.094 6.094 0 0112.188 0v13.694zm31.389 0H48.328V59.043a9.37 9.37 0 00-18.74 0v13.694H13.66a4.9 4.9 0 01-4.914-4.892V39.401a7.836 7.836 0 004.594-2.217 9.947 9.947 0 0017.314 1.249 9.95 9.95 0 0016.617 0 9.948 9.948 0 0017.307-1.249 7.856 7.856 0 004.592 2.21v28.45a4.9 4.9 0 01-4.914 4.893zm10.452-41.105a4.594 4.594 0 01-9.188 0v-2.5h9.188z" fill="#2b8fe5"/><path d="M19.307 49.657a6.269 6.269 0 00-6.264 6.254v6.264a1.64 1.64 0 001.641 1.639h9.248a1.64 1.64 0 001.64-1.64v-6.263a6.269 6.269 0 00-6.264-6.254zm2.984 10.888h-5.969v-4.63a2.984 2.984 0 115.969 0zm36.844-10.888h-1.049a5.737 5.737 0 00-5.738 5.738v6.791a1.64 1.64 0 001.638 1.635h9.248a1.64 1.64 0 001.64-1.64v-6.786a5.74 5.74 0 00-5.738-5.738zm2.459 10.888h-5.969v-5.15a2.46 2.46 0 012.461-2.459h1.05a2.46 2.46 0 012.459 2.459zM43.777 8.609h-9.631a1.64 1.64 0 100 3.279h9.631a1.64 1.64 0 100-3.279z" fill="#092772"/></svg>