<svg xmlns="http://www.w3.org/2000/svg" width="78" height="76.75" viewBox="0 0 78 76.75"><path d="M74.04 42.636v-32.55A10.078 10.078 0 0063.954.001H10.086A10.186 10.186 0 000 10.086v40.26a10.078 10.078 0 0010.086 10.086h25.828l10.905 10.906a17.906 17.906 0 0012.956 5.413A18.155 18.155 0 0077.9 60.026c.163-2.05.083-10 .083-11.889v-.083a5.893 5.893 0 00-3.94-5.416zM4.017 10.086a6.052 6.052 0 016.066-6.066h53.952a6.052 6.052 0 016.065 6.066v7.626H4.017zm0 40.26V21.812h66v20.989a5.708 5.708 0 00-5.493-4.263 7.008 7.008 0 00-2.213.41 5.708 5.708 0 00-5.493-4.263 8.287 8.287 0 00-2.05.327v-3.441a5.656 5.656 0 10-11.312 0v20.415l-2.053-2.05a5.693 5.693 0 00-8.036 0 5.569 5.569 0 00-1.64 4.016 4.945 4.945 0 00.573 2.46H10.086a6.055 6.055 0 01-6.069-6.066zM74.2 59.365a14.483 14.483 0 01-14.508 13.613 14.312 14.312 0 01-10.332-4.347l-8.28-8.2-4.02-4.016-1.067-1.067a1.921 1.921 0 01-.573-1.393 1.98 1.98 0 01.573-1.393 1.921 1.921 0 011.393-.573 1.793 1.793 0 011.393.573l5.083 5.083a1.96 1.96 0 00.9.493c.163 0 .327.083.493 0a1.212 1.212 0 00.493-.163 1.835 1.835 0 00.41-.247c.163-.083.247-.247.327-.327a2.334 2.334 0 00.327-.983V31.491a2.05 2.05 0 114.1 0v16.476a1.803 1.803 0 003.606 0v-7.706a2.05 2.05 0 014.1 0v7.706a1.803 1.803 0 003.606 0v-3.853a2.05 2.05 0 014.1 0v5.739a1.82 1.82 0 001.8 1.8 1.713 1.713 0 001.64-1.067c.083-.083.083-.247.163-.41 0-.163.083-.247.083-.41v-2.3a1.531 1.531 0 01.573-.983 2.145 2.145 0 011.393-.573h.41c.083 0 .163.083.247.083h.083c.083.083.247.083.327.163l.247.247.083.083c.083.083.083.163.163.163l.083.083c.083.083.083.163.163.327a2.4 2.4 0 01.163.82c.247 3.933.247 7.706.247 11.479z" fill="#2b8fe5"/><path d="M14.186 10.906a2.542 2.542 0 11-5.083 0 2.542 2.542 0 115.083 0m7.379 0a2.542 2.542 0 01-5.083 0 2.542 2.542 0 015.083 0m7.296 0a2.542 2.542 0 11-5.083 0 2.542 2.542 0 115.083 0" fill="#092772"/></svg>