<svg xmlns="http://www.w3.org/2000/svg" width="348.651" height="255.344" viewBox="0 0 348.651 255.344"><path d="M151.29 54.762c-11.759-42.657-64.747-56.4-95.115-24.519q-.655.687-1.307 1.4c-43.536 47.326-22.97 163.951 67.89 193.51s185.365-24.422 190.674-72.673-36.609-63.415-101.661-49.922c-36.753 7.622-53.161-21.242-60.481-47.796z" fill="#fff"/><path d="M226.874 62.058c-12.157 1.979-15.526 12.75-6.139 20.39 3.1 2.525 7.533 4.624 13.844 5.671 24.044 3.989 36.8-6.649 27.165-20.441-5.948-8.514-22.824-7.584-34.87-5.62zM33.041 148.247c-7.557-9.725-18.626-7.527-20.84 4.372-.732 3.932-.453 8.827 1.649 14.87 8.009 23.023 23.457 29.123 30.952 14.063 4.627-9.298-4.271-23.667-11.761-33.305zm288.956 9.839c-1.12 5.862 3.721 10.015 9.206 7.756a11.606 11.606 0 005.269-4.716c6.2-9.641 3.058-17.911-5.57-17.063-5.322.524-7.791 8.213-8.905 14.023zm-30.728-61.865c5.843 1.22 10.077-3.549 7.912-9.072a11.611 11.611 0 00-4.627-5.348c-9.534-6.361-17.857-3.363-17.154 5.279.43 5.333 8.078 7.932 13.869 9.141zM149.26 33.486c4.626 3.771 10.58 1.486 11.2-4.414a11.606 11.606 0 00-1.646-6.877c-5.537-10.035-14.3-11.2-17.659-3.208-2.071 4.935 3.521 10.761 8.105 14.499z" fill="#bbe2f2"/><path d="M336.486 187.412c9.277-9.326 16.342-19.865 9.314-21.508s-18.849 16.722-20.908 33.439l-2.06 5.519c1.713-12.157-2.452-26.964-8.552-27.575-6.06-.606-2.392 9 2.421 17.213a33.986 33.986 0 014.871 13.735l-9.731 26.067c2.658-19.259-3.941-42.625-13.591-43.591-9.616-.962-3.8 14.279 3.841 27.313 5.772 9.85 7.325 17.64 7.722 21.711l-1.94 5.2q1.272.717 2.553 1.418l11.583-31.014a37.408 37.408 0 0110.453-5.316c9.019-3.05 18.083-7.9 13.109-11.416-4.318-3.048-14.468 2.82-21.46 11.1l4-10.726a54.341 54.341 0 018.375-11.569zM44.054 65.743c1.2-11.264.266-22.15-5.339-19.465S35.071 67.669 42.7 80.005l1.591 4.817c-5.4-9.087-16.182-16.787-20.608-13.909-4.4 2.86 3.245 7.333 10.905 10.255a29.293 29.293 0 0110.675 6.6l7.516 22.752c-8.6-14.367-25.624-26.5-32.625-21.948-6.976 4.537 5.148 11.635 17.3 16.271 9.185 3.5 14.428 7.9 16.888 10.418l1.5 4.537q1.242-.2 2.479-.424l-8.943-27.068a32.224 32.224 0 014.154-9.2c4.412-6.911 7.884-15.055 2.649-14.732-4.543.28-8.2 9.692-8.428 19.024l-3.093-9.361a46.824 46.824 0 01-.606-12.294z" fill="#1c31b5"/><path d="M273.864 218.394c.118.639.254 1.335.414 2.075 1.67 7.766 5.771 20.48 15 22.98 0 0-5.023-26.189 12.878-33.009s15.921-13.315 14.9-24.875-4.979-13.764 7.442-24.593 10.045-26.958 10.045-26.958-11.755 18.416-24.31 18.843-14.753 11.145-14.218 19.116-10.127 8.871-15.9 13.495-6.856 28.9-6.856 28.9.159 1.59.605 4.026z" fill="#009cf8"/><path d="M273.864 218.394c.118.639.254 1.335.414 2.075a39.665 39.665 0 014.793-9.682c4.015-5.949 9.67-10.836 14.756-12.754 8.1-3.052 12.052-10.994 12.819-25.755.444-8.568 9.407-13.629 9.5-13.678a.544.544 0 00-.527-.952c-.391.216-9.583 5.4-10.06 14.573-.74 14.27-4.476 21.918-12.115 24.8-5.367 2.022-11.078 6.942-15.276 13.161a41.291 41.291 0 00-4.304 8.212zM75.722 243.308h12.579c-6.8-1.124-23.648-8.358-25.151-22.865-1.9-18.374-8.446-18.145-19.471-20.066s-14.062 1.217-21.062-13.049S0 171.265 0 171.265s14.234 15.531 11.51 27.335 6.716 16.518 14.274 18 5.747 11.642 8.619 18.167c1.311 2.977 6.677 6.064 12.124 8.54z" fill="#006bde"/><path d="M48.476 225.221c.549 5.5 3.713 12.047 8.464 17.5.167.192.341.387.518.583h1.427c-.41-.431-.8-.857-1.159-1.272-4.544-5.221-7.692-11.7-8.214-16.92-.828-8.3-7.245-13.963-20.807-18.348-7.872-2.544-10.358-12.154-10.382-12.252a.524.524 0 00-1.017.254c.1.418 2.643 10.271 11.075 13 13.115 4.243 19.312 9.622 20.095 17.455z" fill="#1c31b5"/><path d="M82.506 209.208a106.76 106.76 0 01-.909 2.9c-3.576 10.823-10.913 29.053-24.462 31.2 0 0 10.723-37.311-13.765-49.793s-20.666-21.443-17.429-37.776 9.217-18.87-6.837-36.225-10.186-40-10.186-40 13.938 28.078 31.783 30.617 19.334 18.168 17.345 29.456 13.084 14.212 20.6 21.695 5.339 42.282 5.339 42.282-.468 2.237-1.479 5.644z" fill="#009cf8"/><path d="M82.506 209.208a106.76 106.76 0 01-.909 2.9 56.947 56.947 0 00-5.349-14.549c-4.813-9.1-12.13-16.946-19.091-20.464-11.084-5.6-15.5-17.537-14.328-38.712.683-12.291-11.326-20.889-11.449-20.973a.782.782 0 01.9-1.278c.524.369 12.842 9.171 12.111 22.336-1.138 20.47 3.017 31.955 13.472 37.237 7.345 3.71 14.735 11.607 19.768 21.124a59.164 59.164 0 014.875 12.379z" fill="#006bde"/><path d="M92.22 234.535c.041 2.837.093 5.789.154 8.774h27.359c.052-3.268.093-6.4.122-9.339.083-7.963.092-14.516.086-18.589 0-2.889-.015-4.528-.015-4.528l-27.9-.3s0 2.41.022 6.352c.019 4.386.068 10.659.172 17.63z" fill="#18315b"/><path d="M92.049 216.909c.018 4.382.067 10.654.171 17.626a137.12 137.12 0 0027.635-.565c.083-7.962.092-14.516.086-18.589z" fill="#000b29"/><path d="M57.74 228.244c.031 4.459.084 9.568.172 15.065h27.362c.068-3.218.122-6.4.166-9.436.095-6.52.144-12.391.168-16.61.021-4.153.021-6.706.021-6.706l-27.91.3s-.022 2.959-.015 7.938c0 2.63.012 5.825.036 9.449z" fill="#18315b"/><path d="M57.703 218.797c0 2.633.012 5.828.036 9.452a171.062 171.062 0 0027.7 5.629c.095-6.52.144-12.391.168-16.61z" fill="#000b29"/><path d="M103.569 63.773s4.4-4.234 4.382-8.415-2.857-2.947-4.382-6.843-6.057-6.272-8.543-5.8-7.733-9.218-14.85-7.508-6.5 10.835-9.564 12.165-2.211 6.747-.594 7.983 2.3 6.2 3.208 6.088 30.343 2.33 30.343 2.33z" fill="#18315b"/><path d="M73.978 63.673s-2.764-3.686-4.819-.638.851 12.048 5.883 9.851z" fill="#f97853"/><path d="M73.943 70.105a.426.426 0 01-.409-.311 6.576 6.576 0 00-3.688-3.917.427.427 0 01.3-.8 7.321 7.321 0 014.205 4.482.426.426 0 01-.294.524.438.438 0 01-.114.022z" fill="#ea5143"/><path d="M71.037 68.705a.425.425 0 01-.357-.655 3.886 3.886 0 011.6-1.287.426.426 0 01.348.777 3.087 3.087 0 00-1.229.971.424.424 0 01-.362.194z" fill="#ea5143"/><path d="M102.465 63.673s2.764-3.686 4.819-.638-.851 12.048-5.883 9.851z" fill="#f97853"/><path d="M102.501 70.105a.426.426 0 00.409-.311 6.574 6.574 0 013.688-3.917.427.427 0 00-.3-.8 7.323 7.323 0 00-4.206 4.482.427.427 0 00.295.524.438.438 0 00.114.022z" fill="#ea5143"/><path d="M105.403 68.705a.425.425 0 00.357-.655 3.885 3.885 0 00-1.6-1.287.426.426 0 00-.348.777 3.08 3.08 0 011.228.971.425.425 0 00.363.194z" fill="#ea5143"/><path d="M95.026 80.521v8.951s-2.67 4.559-6.28 4.869-6.811-3.925-6.811-3.925v-9.267z" fill="#ffa681"/><path d="M95.026 80.521v3.971c-2.423 2.689-6.725 3.36-13.091 2.42V81.15z" fill="#f97853"/><path d="M104.464 57.532a87.135 87.135 0 01-1.161 11.307 28.467 28.467 0 01-.561 2.415c-1.884 6.6-6.6 17.908-19.787 13.2-5.826-2.08-8.527-8.569-9.73-15.169a63.824 63.824 0 01-.88-12.247 9.347 9.347 0 014.742-7.953c7.786-4.414 16-2.768 21.411-.689a9.316 9.316 0 015.966 9.136z" fill="#ffa681"/><path d="M73.225 69.28s1.28 7.626 2.489 10.406 4.514 3.3 5.754 5.654c1.769 3.35 4.466 6 8.9 4.387 3.691-1.346 3.524-3.233 5.592-4.693 3.543-2.5 5.3-5.254 5.441-7.534a72.205 72.205 0 011.9-8.662l-1.9-.134a49.489 49.489 0 01-2.677 4.716c-1.6-3.512-9.306-.958-9.306-.958l-1.472.476-1.511-.476s-7.8-2.446-9.336 1.238a13.886 13.886 0 01-2.059-4.784zm14.723 4.847c8.838-1.517 7.259 3.658 7.2 3.843a8.762 8.762 0 01-1.816 1.377c-3.424 1.85-3.795 1.571-5.146 1.631a10.158 10.158 0 01-5.194-1.417 14.731 14.731 0 01-2.475-1.882s-1.39-4.741 7.431-3.552zm-5.312-9.286c0 .956-.493 1.731-1.1 1.731s-1.1-.775-1.1-1.731.492-1.73 1.1-1.73 1.1.774 1.1 1.73zm13.075 0c0 .956-.493 1.731-1.1 1.731s-1.1-.775-1.1-1.731.493-1.73 1.1-1.73 1.1.774 1.1 1.73zm3.232-5.698s-4.545-1.8-8.045-.284l.35 1.946s5.136-.434 7.725.615a3.375 3.375 0 00-.03-2.277zm-21.612.01s4.579-1.81 8.1-.287l-.352 1.961s-5.175-.438-7.782.619a3.4 3.4 0 01.034-2.293z" fill="#18315b"/><path d="M88.369 72.092a4.531 4.531 0 001.54-.324.425.425 0 00-.321-.788 2.553 2.553 0 01-1.706.161.461.461 0 01-.209-.4 64.543 64.543 0 01.257-6.513.425.425 0 00-.847-.07 63.161 63.161 0 00-.255 6.671 1.3 1.3 0 00.619 1.038 1.789 1.789 0 00.922.225z" fill="#f97853"/><path d="M82.949 74.978c.322 1.624 1.4 4.613 5.01 4.613s4.64-2.731 4.99-4.613z" fill="#fff"/><path d="M104.464 57.532a87.135 87.135 0 01-1.161 11.307l-1.9-.135s.461-2.937.673-4.85.574-5.491-1.059-5.937-.673-4.523-2.94-6.292-7.3-3.334-10.644-1.275-7.145.918-8.684 1.275-3.636 2.479-3.07 4.465-1.131 3.19-1.543 5.243.905 7.583.905 7.583l-1.816.366a63.824 63.824 0 01-.88-12.247 9.347 9.347 0 014.742-7.953c7.786-4.414 16-2.768 21.411-.689a9.316 9.316 0 015.966 9.139z" fill="#18315b"/><path d="M125.707 224.302a151.265 151.265 0 01-25.819 4.236c-.391.029-.777.057-1.168.084q-1.775.12-3.55.2a146.508 146.508 0 01-17.573-.3q-1.772-.137-3.543-.317a55.216 55.216 0 01-1.134-.12 153.889 153.889 0 01-20.986-3.783c-.07-6.449.01-26.833.406-48.941.046-2.657.1-5.339.156-8.024.62-29.136 1.817-58.711 3.969-61.674 2.063-2.835 8.282-6.439 14.227-9.689l1.062-.578c1.336-.727 2.643-1.43 3.872-2.1 2.634-1.433 4.906-2.708 6.31-3.692v.81s3.2 4.237 6.808 3.924c3.288-.283 5.792-4.081 6.217-4.762a83.308 83.308 0 007.567 4.3c.9.476 1.828.964 2.777 1.467q.523.275 1.053.558c6.575 3.487 13.664 7.418 15.792 10.341a3.623 3.623 0 01.455 1.075c1.259 4.263 2.041 18.411 2.516 35.544l.006.186c.021.692.038 1.391.055 2.092 0 .091.005.184.008.277.156 6.011.273 12.337.364 18.694.008.5.017 1.009.023 1.513 0 .254.006.5.008.758q.032 1.878.046 3.749.019 1.379.032 2.758c.234 22.986.134 44.661.044 51.414z" fill="#006bde"/><path d="M125.182 145.146a233.351 233.351 0 00-6.388-9.886l-.015-.023a142.334 142.334 0 00-2.549-3.6.422.422 0 00-.042-.056 96.491 96.491 0 00-.752-1.013.63.63 0 01-.09-.178.571.571 0 011-.506c2.515 3.333 5.731 8.123 8.773 12.985l.006.186c.023.692.04 1.39.057 2.091z" fill="#264cbe"/><path d="M122.237 105.78s12.976 23.774 20.886 35.822c0 0 4.5-4.133 10.349-9.661 6.343-5.994 15.018-16.012 15.018-16.012l4.8 5.693s-19.492 35.076-28.234 39.484-24.853-26.793-24.853-26.793z" fill="#006bde"/><path d="M67.296 199.476h-.021a.586.586 0 01-.566-.607c.68-19.2-9.275-25.419-9.376-25.48a.587.587 0 01.6-1.008 17.9 17.9 0 015.291 5.762c2.327 3.74 5.023 10.379 4.655 20.768a.587.587 0 01-.583.565zm42.475-18.088a.587.587 0 01-.585-.541c-.315-4.043 1.017-6.993 2.7-10.726.494-1.093 1-2.221 1.526-3.488 3.272-7.936 1.628-17.01 1.61-17.1a.587.587 0 111.154-.216c.072.385 1.725 9.51-1.679 17.765a114.318 114.318 0 01-1.541 3.524c-1.68 3.72-2.894 6.408-2.6 10.151a.588.588 0 01-.54.631z" fill="#264cbe"/><path d="M75.626 93.302c.251 1.89.619 4.342 1.02 7.127.123.827.245 1.685.371 2.566.407 2.877.829 6.007 1.189 9.172.1.85.188 1.7.273 2.552.317 3.133.556 6.247.642 9.14q.043 1.314.034 2.561a40.692 40.692 0 01-.4 5.976q-.257 1.646-.456 3.218-.167 1.3-.3 2.566c-.342 3.265-.513 6.3-.562 9.169q-.021 1.3-.008 2.557c.026 3.253.211 6.284.479 9.169.08.864.169 1.713.26 2.552.351 3.153.779 6.155 1.181 9.123q.175 1.275.342 2.543c.175 1.357.339 2.714.482 4.08.151 1.449.248 3.142.293 5.02.023.822.034 1.679.037 2.566a207.98 207.98 0 01-.191 9.172q-.051 1.274-.114 2.58c-.145 3.022-.336 6.13-.55 9.2q-.095 1.3-.191 2.577a555.025 555.025 0 01-1.003 11.769c-.3 3.184-.6 6.016-.861 8.273a146.206 146.206 0 0017.574.3c.137-2.4.51-6.281.878-10.845.068-.835.134-1.7.2-2.574.22-2.9.419-6 .55-9.135.038-.858.068-1.719.092-2.577.088-3.125.091-6.23-.043-9.141a71.06 71.06 0 00-.16-2.588c-.068-.861-.151-1.7-.251-2.509a51.181 51.181 0 01-.376-6.655c0-.861.026-1.716.065-2.574.134-2.977.459-5.959.835-9.126.1-.841.205-1.7.311-2.569.339-2.817.693-5.8.972-9.075.074-.838.14-1.7.2-2.574.194-2.805.325-5.819.345-9.1q.008-1.27-.009-2.594c-.031-2.843-.15-5.884-.381-9.16-.02-.29-.04-.585-.063-.881a54.629 54.629 0 01-.105-1.73 87.017 87.017 0 01.057-9.127q.069-1.291.169-2.583c.236-3.068.582-6.107.98-9.02q.175-1.3.365-2.569c.479-3.193.995-6.2 1.468-8.884l.451-2.543c.322-1.813.6-3.43.807-4.8a83.567 83.567 0 01-7.567-4.3c-.424.681-2.928 4.479-6.218 4.762-3.607.313-6.808-3.923-6.808-3.923v-.81c-1.399.966-3.671 2.241-6.305 3.676z" fill="#fff"/><path d="M76.646 100.427c.123.827.245 1.685.371 2.566a47.665 47.665 0 0011.615-1.468 30.931 30.931 0 0112.638-.3l.451-2.543a33.5 33.5 0 00-13.665.345 44.587 44.587 0 01-11.41 1.4zm1.56 11.738c.1.85.188 1.7.273 2.552a51.71 51.71 0 0010.153-1.465 30.881 30.881 0 0110.805-.573q.175-1.3.365-2.569a33.68 33.68 0 00-11.747.642 49.4 49.4 0 01-9.849 1.413zm.915 11.693q.043 1.314.034 2.561a53.822 53.822 0 009.477-1.439 31.048 31.048 0 019.656-.7q.069-1.291.169-2.583a33.811 33.811 0 00-10.4.779 52.314 52.314 0 01-8.936 1.382zm-1.118 14.32a50.6 50.6 0 0010.628-1.474 30.991 30.991 0 019.768-.684c-.02-.29-.04-.585-.063-.881a54.629 54.629 0 01-.105-1.73 33.775 33.775 0 00-10.175.8 49.542 49.542 0 01-9.753 1.408q-.168 1.297-.3 2.561zm-.57 11.726a48.782 48.782 0 0011.2-1.474 31.052 31.052 0 0110.158-.655q.008-1.27-.009-2.594a33.808 33.808 0 00-10.726.749 46.909 46.909 0 01-10.614 1.418q-.022 1.308-.009 2.556zm.479 9.169c.08.864.169 1.713.26 2.552a51 51 0 0010.461-1.469 31 31 0 019.61-.7c.074-.838.14-1.7.2-2.574a33.745 33.745 0 00-10.389.778 48.5 48.5 0 01-10.142 1.413zm1.44 11.675q.175 1.275.342 2.543a55.477 55.477 0 008.938-1.409 31.191 31.191 0 018.327-.786c.1-.841.205-1.7.311-2.569a33.972 33.972 0 00-9.215.855 53.324 53.324 0 01-8.703 1.366zm1.117 11.643c.023.822.034 1.679.037 2.566a57.633 57.633 0 008.126-1.351 31.517 31.517 0 017.427-.81c0-.861.026-1.716.065-2.574a34.192 34.192 0 00-8.069.886 57.149 57.149 0 01-7.586 1.283zm-.268 14.32a57.613 57.613 0 008.431-1.378 31.157 31.157 0 018.214-.784 71.06 71.06 0 00-.16-2.588 34.1 34.1 0 00-8.631.873 56.246 56.246 0 01-7.741 1.3q-.05 1.271-.113 2.577zm-.741 11.774a55.157 55.157 0 009.172-1.426 31.3 31.3 0 018.165-.792c.038-.858.068-1.719.092-2.577a34.037 34.037 0 00-8.833.87 53.847 53.847 0 01-8.4 1.348q-.1 1.296-.196 2.577zm-1.004 11.765a51.8 51.8 0 0010.175-1.466 31.252 31.252 0 017.415-.81c.068-.835.134-1.7.2-2.574a34.068 34.068 0 00-8.191.883 51.011 51.011 0 01-9.36 1.4c-.079.877-.159 1.735-.239 2.567z" fill="#e3e3e3"/><path d="M98.719 228.625c.391-.026.778-.054 1.169-.083 2.309-13.577.977-33.505.482-39.612-.513-6.34.473-14.495 2.706-22.363 1.733-6.113.67-20.285-.183-31.672-.239-3.2-.467-6.215-.6-8.7-.436-8.017 2.466-22.854 4.066-30.289l-1.052-.558c-1.6 7.361-4.61 22.535-4.154 30.911.137 2.491.365 5.516.6 8.718.847 11.3 1.9 25.357.226 31.273-2.269 8-3.27 16.3-2.746 22.769.495 6.118 1.835 26.171-.514 39.606zm-23.655-55.242c1.357 8.348.929 13.771.433 20.045-.16 2.03-.325 4.126-.442 6.441-.362 7.264-1.591 21.893-2.135 28.219.379.043.755.083 1.135.12.545-6.327 1.777-20.992 2.141-28.283.114-2.3.28-4.388.439-6.406.5-6.349.932-11.835-.448-20.319-.293-1.822-.607-3.669-.918-5.508-1.537-9.1-3.128-18.506-2.375-23.014.182-1.1.416-2.349.667-3.672 1.021-5.44 2.295-12.208 1.893-18.081-.4-5.822-2.785-21.586-3.7-27.527-.354.191-.707.385-1.063.579.955 6.213 3.239 21.371 3.626 27.025.391 5.728-.866 12.419-1.876 17.793a177.716 177.716 0 00-.673 3.695c-.781 4.7.752 13.776 2.378 23.393.311 1.836.622 3.681.918 5.5z" fill="#264cbe"/><path d="M52.623 115.352s-11.616 38.736-14.492 52.54-3.1 42.5-3.1 42.5-5.078 10.541-5.2 15.233c-.128 5 2.5 8.98 2.2 12.253s3.685 1.5 2.56-5.133 2.068-12.633 3.446-12.44-1.14 7.238.084 9.777 2.808-2.393 4.383-5.385c1.636-3.108 1.54-9.887.8-14.727s8.029-34.236 8.071-42.754l11.109-37.54s-3.675-15.673-9.861-14.324z" fill="#ffa681"/><path d="M63.903 128.73a99.2 99.2 0 01-3.549 12.139c-.151.453-.305.915-.459 1.385a.426.426 0 00-.023.066c-.445 1.337-.91 2.737-1.389 4.185l-.008.026c-1.97 5.981-4.151 12.824-5.981 19.854a170.515 170.515 0 00-1.739 7.261 123.218 123.218 0 00-1.646 9.2c-1.485 10.876-4.324 24.653-4.324 24.653-4.166 1.71-10.677-.548-10.677-.548s-.169-19.84.761-27.549a206.506 206.506 0 014.424-24.099c4.99-21.437 13.771-42.411 16.179-47.974.191-.445.342-.789.448-1.029h2.073c4.08 2.587 6.974 15.725 5.91 22.43z" fill="#006bde"/><path d="M33.766 202.981l.327 4.566s6.191 2.012 10.832.6l1.227-4.072c-4.467.231-8.595.121-12.386-1.094z" fill="#009cf8"/><path d="M60.353 140.87a.6.6 0 01-.034.2c-.14.385-.283.782-.425 1.189a.428.428 0 00-.023.066 130.22 130.22 0 00-1.389 4.185l-.008.026a225.125 225.125 0 00-6.027 23.6c.011-1.246.026-2.5.046-3.75a170.515 170.515 0 00-1.739 7.261 87.439 87.439 0 011.77-9.534 223.459 223.459 0 016.723-23.438.57.57 0 011.106.191z" fill="#264cbe"/><path d="M268.136 243.309h27.438c-.09-1.9-.181-3.728-.269-5.451-.479-9.4-.885-15.793-.885-15.793l-22.314.991-1.85.084-3.282.147a4602.029 4602.029 0 001.162 20.022z" fill="#18315b"/><path d="M270.255 223.141l-3.282.147s.317 5.72.81 14.1a199.318 199.318 0 0027.522.47c-.479-9.4-.885-15.793-.885-15.793l-22.314.991z" fill="#000b29"/><path d="M273.243 243.309c-.5-8.7-.913-16.126-1.139-20.251l-1.85.084c.225 4.106.634 11.5 1.135 20.167z" fill="#000b29"/><path d="M260.086 243.309c.141-2.356.274-4.591.394-6.649.473-7.983.769-13.372.769-13.372l-3.561-.159-1.847-.084-22.041-.98s-.242 3.813-.573 9.873c-.175 3.23-.376 7.1-.579 11.37z" fill="#18315b"/><path d="M233.226 231.939a242.406 242.406 0 0027.254 4.721c.473-7.983.769-13.372.769-13.372l-3.561-.159-1.847-.084-22.041-.98s-.242 3.814-.574 9.874z" fill="#000b29"/><path d="M256.553 243.309c.5-8.675.91-16.076 1.133-20.18l-1.847-.083c-.226 4.122-.637 11.558-1.139 20.263z" fill="#000b29"/><path d="M298.403 226.347a131.766 131.766 0 01-16.767 3.479q-2.917.41-5.828.679-3.929.363-7.856.488a124.353 124.353 0 01-12.99-.283 131.61 131.61 0 01-25.119-4.362c-.078-7.807.04-35.807.626-62.813.029-1.212.055-2.424.085-3.63 0-.257.011-.512.017-.768.005-.279.014-.558.021-.834.019-.857.041-1.711.062-2.561q.066-2.6.138-5.158l.091-3.035c.005-.208.013-.415.019-.622l.062-1.974c.008-.2.014-.406.021-.609l.059-1.8c.019-.506.036-1 .053-1.506.649-18.218 1.6-32.587 2.954-34.612 2.3-3.435 10.145-7.994 16.452-11.705 2.247-1.32 4.931-2.693 6.467-3.712 2.24 1.8 3.865 3.433 7.186 3.321 3.715-.127 4.631-2.361 6.047-4.277.865.561 3.061 2.363 4.2 3.032a358.15 358.15 0 003.138 1.822c1.707.977 3.521 2.014 5.32 3.072 2.664 1.569 5.291 3.187 7.47 4.732a19.7 19.7 0 014.758 4.3c1.233 1.851 2.031 13.835 2.545 29.606.021.552.036 1.111.057 1.675v.206c.021.573.038 1.161.052 1.749q.077 2.663.147 5.432c.01.388.019.781.025 1.172.008.294.017.59.019.88l.051 2.287c0 .154.006.308.01.461.041 2.023.081 4.075.117 6.145q.017.907.03 1.819c.477 28.393.369 59.51.261 67.904z" fill="#006bde"/><path d="M298.151 158.443l-8.85 8.978-8.246-8.359-8.244 8.359-8.276-8.394-8.28 8.394-8.331-8.449-8.333 8.449-9-9.124c.019-.857.041-1.711.062-2.561q.066-2.6.138-5.158l8.8-8.921 8.333 8.451 8.331-8.451 8.28 8.394 8.276-8.394 8.244 8.36 8.246-8.36 8.7 8.823c.041 2.023.081 4.075.117 6.145q.02.907.033 1.818zm-15.277 46.274c-11.851-.052-21.966-5.445-28.365-9.96a64.966 64.966 0 01-11.157-9.88.57.57 0 01.873-.734 63.734 63.734 0 0010.967 9.7c6.26 4.412 16.145 9.682 27.687 9.733a.57.57 0 010 1.14zm-7.392-7.009c-10.09-1.983-19.022-9.711-19.428-10.066a.57.57 0 01.75-.859c.105.092 10.616 9.181 21.328 10.158a.57.57 0 11-.1 1.135 24.842 24.842 0 01-2.55-.368zm-20.209-87.699a.571.571 0 01-.105-1.131c14.448-2.741 18.8-12.036 18.845-12.13a.57.57 0 111.039.47c-.183.4-4.646 9.93-19.672 12.78a.572.572 0 01-.107.011zm-17.629 25.02a.553.553 0 01-.077.182c-.216.347-.442.706-.667 1.072a.6.6 0 00-.034.061 137.422 137.422 0 00-2.251 3.793.044.044 0 01-.014.023 235.705 235.705 0 00-3.7 6.759l.062-1.974c.008-.2.014-.406.021-.609 1.982-3.679 3.958-7.121 5.616-9.731a.571.571 0 011.041.423z" fill="#264cbe"/><path d="M310.45 113.895s18.477-5.938 23.944-18.063c1.582-3.512-11.446-39.162-11.446-39.162l-6.288.3s1.792 12.369 2.878 19.373c.894 5.759 2.337 12.64 2.823 14.906l.166.764c-.309.053-.618.113-.932.175-8.633 1.753-19.654 7.376-19.654 7.376z" fill="#ffa681"/><path d="M327.167 95.435a.593.593 0 00.827-.13.582.582 0 00-.13-.826 46.442 46.442 0 00-5.5-3.225l.166.764c-.309.053-.618.113-.932.175a46.673 46.673 0 015.569 3.242z" fill="#f97853"/><path d="M282.18 97.585s-5.589 13.115 8.639 20.417c9.847 5.053 32.278-8.14 32.278-8.14l-8-16.979s-20.52 8.466-32.917 4.702z" fill="#006bde"/><path d="M319.729 36.627c-.556.391-.442 2.8-.2 5.068l-.239.039c-.661-3.028-1.977-8.178-3.1-7.195-.737.643.25 5.084.923 7.741q-.209.064-.418.132c-.848-3.153-2.676-9.226-3.892-8.045-.812.789.746 6.136 1.612 8.864l-.354.139c-.828-2.646-2.6-7.652-3.807-6.476-1.1 1.065 2.046 8.633 2.046 8.633l.825 2.971s-.98.423-2.508-1.306-3.357-2.033-2.087.468c1.435 2.827 3.558 4.854 4.493 6.854s3.876 2.662 3.876 2.662l5.9-.286s1.145-9.98-1.057-14.737c-.378-2.829-1.044-6.206-2.013-5.526z" fill="#ffa681"/><path d="M246.673 59.641c0 10.058 6.192 16.987 16.245 16.987s17.069-7.45 17.069-17.507a21.555 21.555 0 00-1.323-7.655c-.051-.136-.1-.273-.158-.406a15.65 15.65 0 00-.337-.772 14.9 14.9 0 00-.576-1.135c-2.62-4.71-7.314-7.706-13.621-7.706-12.059 0-17.299 8.137-17.299 18.194z" fill="#18315b"/><path d="M248.931 63.972s-2.794-3.725-4.871-.645.859 12.179 5.946 9.958z" fill="#f97853"/><path d="M248.894 70.473a.43.43 0 01-.414-.315 6.645 6.645 0 00-3.728-3.959.43.43 0 01.3-.8 7.4 7.4 0 014.251 4.531.429.429 0 01-.3.53.42.42 0 01-.109.013z" fill="#ea5143"/><path d="M245.958 69.059a.43.43 0 01-.361-.663 3.925 3.925 0 011.614-1.3.43.43 0 01.351.785 3.106 3.106 0 00-1.242.981.428.428 0 01-.362.197z" fill="#ea5143"/><path d="M277.726 63.972s2.794-3.725 4.871-.645-.859 12.179-5.946 9.958z" fill="#f97853"/><path d="M277.761 70.473a.431.431 0 00.414-.315 6.645 6.645 0 013.728-3.959.43.43 0 00-.3-.8 7.407 7.407 0 00-4.251 4.531.43.43 0 00.3.53.42.42 0 00.109.013z" fill="#ea5143"/><path d="M280.699 69.059a.422.422 0 00.232-.068.429.429 0 00.129-.594 3.913 3.913 0 00-1.613-1.3.43.43 0 00-.351.785 3.105 3.105 0 011.242.981.429.429 0 00.361.196z" fill="#ea5143"/><path d="M270.206 81.002v9.048s-2.7 4.608-6.348 4.922-6.885-3.967-6.885-3.967v-9.367z" fill="#ffa681"/><path d="M270.206 81.002v4.015c-2.448 2.717-6.8 3.4-13.233 2.445v-5.824z" fill="#f97853"/><path d="M279.746 57.765a88.106 88.106 0 01-1.174 11.43c-.167.877-.357 1.7-.567 2.442-1.9 6.667-6.667 18.1-20 13.338-5.889-2.1-8.618-8.662-9.835-15.333a64.488 64.488 0 01-.89-12.38 9.447 9.447 0 014.793-8.038c7.871-4.462 16.176-2.8 21.643-.7a9.416 9.416 0 016.03 9.241z" fill="#ffa681"/><path d="M257.61 65.153c0 .965-.5 1.749-1.111 1.749s-1.112-.783-1.112-1.749.5-1.749 1.112-1.749 1.111.783 1.111 1.749zm13.106-.036c0 .965-.5 1.749-1.112 1.749s-1.112-.783-1.112-1.749.5-1.749 1.112-1.749 1.112.783 1.112 1.749zm2.514-6.011s-3.508-1.386-6.209-.219l.27 1.5s3.965-.335 5.962.474a2.606 2.606 0 00-.023-1.755zm-20.441 0s3.508-1.386 6.209-.219l-.27 1.5s-3.965-.335-5.962.474a2.606 2.606 0 01.023-1.755z" fill="#18315b"/><path d="M263.478 72.482a4.6 4.6 0 001.556-.327.432.432 0 00-.325-.8 2.58 2.58 0 01-1.725.163.466.466 0 01-.211-.4 64.846 64.846 0 01.26-6.583.43.43 0 10-.857-.07 63.714 63.714 0 00-.258 6.742 1.314 1.314 0 00.625 1.05 1.814 1.814 0 00.935.225z" fill="#f97853"/><path d="M257.705 74.665c.715 2.48 2.746 4.954 5.544 4.988 2.8-.034 4.826-2.508 5.541-4.988z" fill="#fff"/><path d="M263.01 82.347a4.493 4.493 0 002.1-.588.43.43 0 00-.445-.735 3.65 3.65 0 01-1.65.464 3.488 3.488 0 01-1.564-.461.43.43 0 10-.451.731 4.293 4.293 0 002.01.589z" fill="#f97853"/><path d="M279.291 64.048h-1.948c.215-1.956.524-5.4-1.083-5.894-5.076-1.559 1.5-5.146-.789-6.934s-7.994-1.025-11.96-1.153c-3.99-.129-10.4-.073-11.96.288s-.705 2.947-.133 4.955-1.913 4.221-2.33 6.3a9.128 9.128 0 000 2.44h-1.625a72.897 72.897 0 01-.187-6.786 9.447 9.447 0 014.793-8.038c7.871-4.462 16.176-2.8 21.643-.7a9.416 9.416 0 016.031 9.237 116.438 116.438 0 01-.452 6.285z" fill="#18315b"/><g fill="#fff"><path d="M256.302 70.216a4.866 4.866 0 114.866-4.866 4.872 4.872 0 01-4.866 4.866zm0-8.974a4.108 4.108 0 104.108 4.108 4.112 4.112 0 00-4.108-4.108zm13.302 8.974a4.866 4.866 0 114.866-4.866 4.872 4.872 0 01-4.866 4.866zm0-8.974a4.108 4.108 0 104.108 4.108 4.112 4.112 0 00-4.108-4.108z"/><path d="M252.259 63.783a.376.376 0 01-.267-.11 5.978 5.978 0 00-5.133-1.49.38.38 0 01-.172-.739 6.645 6.645 0 015.84 1.691.379.379 0 01-.268.648zm21.478-.001a.379.379 0 01-.208-.7c.145-.095 3.588-2.316 6.519-1.833a.379.379 0 11-.123.748c-2.637-.434-5.947 1.7-5.981 1.72a.373.373 0 01-.207.065zm-8.733.476a3.064 3.064 0 00-2.094-1.231 2.8 2.8 0 00-2 1.229l-.635-.415a3.515 3.515 0 012.631-1.573 3.784 3.784 0 012.71 1.546z"/></g><path d="M236.042 134.314a138.106 138.106 0 01-11.163 17.789 46.358 46.358 0 01-5.472 6.111c-2.968 2.68-5.862 4.081-8.219 2.892-8.743-4.407-28.233-39.483-28.233-39.483l4.8-5.693s8.674 10.017 15.018 16.012c5.85 5.528 10.349 9.661 10.349 9.661.81-1.233 1.673-2.583 2.57-4.013a405.919 405.919 0 002.951-4.776c7.3-11.993 15.41-26.391 15.41-26.391z" fill="#ffa681"/><path d="M224.879 152.103a46.36 46.36 0 01-5.472 6.111l-3.715-20.624a405.919 405.919 0 002.951-4.776z" fill="#f97853"/><path d="M234.053 106.423l-17.52 27.555 5.88 24.236 14.5-23.608s1.757-16.15-2.86-28.183zm-22.028 136.886c-1.251-6.935-2.485-14.756-3.606-22.351q-.369-2.519-.724-4.987c-.9-6.288-1.7-12.235-2.347-17.169-.245-1.874-.467-3.605-.667-5.149-.625-4.925-.992-7.984-.992-7.984l-27.667 1.046-27.752-1.046s-.715 6.053-1.86 14.83c-.209 1.6-.433 3.282-.667 5.041-.616 4.606-1.321 9.692-2.078 14.9l-.034.229a894.348 894.348 0 01-.727 4.892.484.484 0 01-.011.065 744.052 744.052 0 01-1.849 11.689c-.26 1.567-.524 3.1-.789 4.6q-.123.7-.247 1.388z" fill="#006bde"/><path d="M154.647 193.978a2.607 2.607 0 11-2.607-2.607 2.608 2.608 0 012.607 2.607zm6.471 10.103a2.608 2.608 0 11-2.607-2.608 2.607 2.607 0 012.607 2.608zm12.731-5.216a2.607 2.607 0 11-2.607-2.608 2.607 2.607 0 012.607 2.608zm-20.093 15.944a2.608 2.608 0 11-2.608-2.607 2.608 2.608 0 012.608 2.607zm15.908-1.115a2.608 2.608 0 11-2.608-2.607 2.608 2.608 0 012.608 2.607zm-21.559-10.75a2.6 2.6 0 01-2.363 2.6c.235-1.759.458-3.444.667-5.041a2.605 2.605 0 011.696 2.441zm47.484 26.07a2.608 2.608 0 11-2.608-2.607 2.608 2.608 0 012.608 2.607zm-1.232-14.205a2.608 2.608 0 11-2.608-2.607 2.608 2.608 0 012.608 2.607zm14.062 6.15a2.608 2.608 0 11-1.023-5.007 2.076 2.076 0 01.3.02q.355 2.464.723 4.987zm-11.455 18.465a2.608 2.608 0 11-2.607-2.608 2.607 2.607 0 012.607 2.608zm11.154-4.162a2.608 2.608 0 11-2.607-2.608 2.607 2.607 0 012.607 2.608zm-23.209 8.047a2.6 2.6 0 00-4.3 0zm-32.87-12.027a2.608 2.608 0 11-2.607-2.608 2.607 2.607 0 012.607 2.608zm-6.879-8.236a2.6 2.6 0 01-2.268 2.581.489.489 0 00.011-.065c.249-1.634.489-3.269.727-4.892a2.614 2.614 0 011.53 2.376zm-3.048 16.376a2.614 2.614 0 01-1.858 2.5c.266-1.5.529-3.037.789-4.6a2.608 2.608 0 011.069 2.1zm16.399 1.104a2.608 2.608 0 11-2.608-2.608 2.608 2.608 0 012.608 2.608zm13.761-2.042a2.608 2.608 0 11-2.607-2.608 2.607 2.607 0 012.607 2.608zm-9.818-12.821a2.608 2.608 0 11-2.608-2.607 2.608 2.608 0 012.608 2.607zm14.003-2.608a2.608 2.608 0 11-2.608-2.607 2.608 2.608 0 012.608 2.607zm6.303-13.759a2.608 2.608 0 11-2.608-2.608 2.608 2.608 0 012.608 2.608zm22.588-10.494a2.455 2.455 0 01-.56.062 2.607 2.607 0 01-.107-5.212c.201 1.545.422 3.276.667 5.15zm-13.599.063a2.608 2.608 0 11-2.607-2.608 2.607 2.607 0 012.607 2.608zm9.551 9.293a2.608 2.608 0 11-2.608-2.607 2.608 2.608 0 012.608 2.607zm-15.933 23.124a2.608 2.608 0 11-2.607-2.608 2.607 2.607 0 012.607 2.608z" fill="#264cbe"/><path d="M205.372 186.353c-14.6 9.528-41.394 8.782-58.235 0 1.609-10.02 3.727-20.052 3.272-33.39q-.077-2.193-.187-4.354-.1-1.879-.218-3.727c-1.453-22.187-5.239-40.328-3.379-42.673a17.66 17.66 0 013.837-3.268c.656-.447 1.357-.9 2.1-1.352 1.747-1.065 3.69-2.14 5.641-3.187 4.628-2.471 9.327-4.764 11.683-6.33a14.97 14.97 0 006.2 1.564 1.709 1.709 0 00.172-.006 1.558 1.558 0 00.167.006 14.988 14.988 0 006.2-1.564c2.186 1.453 6.3 3.481 10.5 5.692a90.935 90.935 0 018.652 5.025 17.349 17.349 0 013.7 3.175c.922 1.162.534 6.257-.254 13.806-.78 7.428-1.948 17.237-2.655 28.018-.2 2.994-.357 6.062-.464 9.175-.456 13.335 1.659 23.369 3.268 33.39z" fill="#009cf8"/><path d="M196.445 175.27c-11.753-.052-21.786-5.4-28.131-9.878a64.354 64.354 0 01-11.064-9.8.565.565 0 01.865-.728 63.258 63.258 0 0010.872 9.625c6.208 4.376 16.011 9.6 27.458 9.653a.566.566 0 010 1.131zm-7.78-6.841c-10.008-1.967-18.866-9.631-19.268-9.984a.566.566 0 11.745-.851c.1.09 10.528 9.1 21.151 10.074a.566.566 0 11-.1 1.126 24.822 24.822 0 01-2.528-.365zm-14.816-51.774a.566.566 0 01-.105-1.121c14.33-2.719 18.648-11.938 18.69-12.03a.566.566 0 011.031.466c-.181.4-4.609 9.848-19.51 12.675a.577.577 0 01-.106.01z" fill="#006bde"/><path d="M193.125 93.765c-2.844 6.487-9.836 13.2-18.929 11.635-8.805-1.522-12.981-6.179-15.995-11 4.629-2.472 9.328-4.762 11.683-6.33a15.029 15.029 0 006.2 1.564 1.507 1.507 0 00.173-.007 1.412 1.412 0 00.169.007 15.053 15.053 0 006.2-1.564c2.187 1.455 6.305 3.482 10.499 5.695z" fill="#ffa681"/><path d="M185.523 88.548a.447.447 0 00-.452.447c0 .364-.152 8.94-7.85 9.6-7.14.621-10.1-6.215-11.009-9.05a.4.4 0 00-.382-.278h-.084a.4.4 0 00-.382.528c.974 2.926 4.087 9.99 11.361 9.731q.283-.01.574-.035c8.52-.735 8.671-10.4 8.672-10.5a.45.45 0 00-.448-.443z" fill="#fff"/><path d="M190.965 42.967s6.88 10.656 6.126 21.756 1.014 23.913-8.918 23.35-27.648 3.982-33.278-4.663 36.07-40.443 36.07-40.443z" fill="#18315b"/><path d="M193.514 62.561s1.786 16.089-5.849 20.519-13.159-.515-13.159-.515 16.092-22.427 19.008-20.004z" fill="#000b29"/><path d="M161.802 62.487s-2.741-3.655-4.78-.633.844 11.949 5.834 9.77z" fill="#f97853"/><path d="M161.768 68.865a.423.423 0 01-.406-.308 6.519 6.519 0 00-3.657-3.884.422.422 0 01.3-.789 7.265 7.265 0 014.171 4.446.423.423 0 01-.406.536z" fill="#ea5143"/><path d="M158.884 67.477a.422.422 0 01-.354-.65 3.853 3.853 0 011.582-1.276.422.422 0 11.345.771 3.052 3.052 0 00-1.218.962.42.42 0 01-.355.193z" fill="#ea5143"/><path d="M190.054 62.487s2.741-3.655 4.78-.633-.844 11.949-5.835 9.77z" fill="#f97853"/><path d="M190.088 68.865a.422.422 0 00.406-.308 6.517 6.517 0 013.658-3.884.422.422 0 00-.3-.789 7.263 7.263 0 00-4.171 4.446.421.421 0 00.292.52.431.431 0 00.115.015z" fill="#ea5143"/><path d="M192.971 67.477a.422.422 0 00.354-.65 3.859 3.859 0 00-1.583-1.276.422.422 0 00-.345.771 3.051 3.051 0 011.218.962.421.421 0 00.356.193z" fill="#ea5143"/><path d="M182.676 79.195v8.877s-2.647 4.521-6.227 4.829-6.756-3.893-6.756-3.893v-9.19z" fill="#ffa681"/><path d="M182.676 79.195v3.939c-2.4 2.666-6.668 3.61-12.981 2.679V79.82z" fill="#f97853"/><path d="M192.036 56.396a86.5 86.5 0 01-1.151 11.215c-.165.86-.35 1.67-.557 2.4-1.868 6.541-6.541 17.759-19.623 13.087-5.778-2.062-8.456-8.5-9.65-15.044a63.247 63.247 0 01-.873-12.145 9.267 9.267 0 014.7-7.886c7.722-4.378 15.87-2.746 21.234-.683a9.238 9.238 0 015.92 9.056z" fill="#ffa681"/><path d="M170.167 63.008c0 .947-.489 1.716-1.091 1.716s-1.091-.768-1.091-1.716.488-1.716 1.091-1.716 1.091.767 1.091 1.716zm13.47 0c0 .947-.488 1.716-1.09 1.716s-1.091-.768-1.091-1.716.488-1.716 1.091-1.716 1.09.767 1.09 1.716zm-16.722-5.109a18.21 18.21 0 014.667-.7.811.811 0 01.807.95v.012a.807.807 0 01-.834.663 20.506 20.506 0 00-6.39.783 1.221 1.221 0 01.372-.868 2.81 2.81 0 011.378-.84zm17.626.035a18.21 18.21 0 00-4.667-.7.81.81 0 00-.807.95v.013a.808.808 0 00.835.663 20.484 20.484 0 016.39.783 1.221 1.221 0 00-.372-.868 2.808 2.808 0 00-1.379-.841z" fill="#18315b"/><path d="M176.075 70.836a1.786 1.786 0 01-.917-.218 1.29 1.29 0 01-.613-1.03 62.388 62.388 0 01.254-6.615.422.422 0 11.84.069 63.807 63.807 0 00-.255 6.459.459.459 0 00.208.393 2.53 2.53 0 001.692-.16.422.422 0 01.319.781 4.507 4.507 0 01-1.528.321z" fill="#f97853"/><path d="M170.718 73.499c.319 1.6 1.379 4.556 4.949 4.556s4.582-2.7 4.927-4.556z" fill="#fff"/><path d="M175.618 80.515a4.2 4.2 0 01-1.978-.579.422.422 0 01.442-.718 3.394 3.394 0 001.536.453 3.589 3.589 0 001.619-.454.422.422 0 01.436.722 4.412 4.412 0 01-2.055.576z" fill="#f97853"/><path d="M193.734 55.709a1.392 1.392 0 01-1.016.777 26.92 26.92 0 01-.152 3.121c-.521 6.1-2.059 7.166-2.406 5.659a70.354 70.354 0 01-.1-8.613 19.875 19.875 0 01-2.234-.28l-1.414-5.918-.494 5.844c-2.121.738-7.069-.444-7.069-.444l-1.659-5.833-1.026 5.613c-3.181 1.549-7.157.518-7.157.518l-.913-6.054-2.109 6.054s-6.786 2.434-6.859 0c-.045-1.417.992-5.406 1.869-8.5a12.783 12.783 0 016.164-7.824c8.417-4.518 17.318-2.115 20.372-.291 6.469 3.868 6.203 16.171 6.203 16.171z" fill="#18315b"/><path d="M162.857 43.417s-5.587 6.644-7.424 18.511-4.382 20.635 2.768 24.553c7.739 4.241 7.069-4.457 6.958-6.821s-6.7-8.826-2.3-27.025c1.416-5.874-.002-9.218-.002-9.218z" fill="#18315b"/><path d="M161.551 67.94v.014c0 .088.008.56.042 1.3.017.458.045 1.015.087 1.649.263 4 1.041 10.9 3.325 13.3.9.947 2.641 1.422 4.689 1.615v-3.142a12.432 12.432 0 01-5.143-4.776 29.379 29.379 0 01-2.845-8.771z" fill="#000b29"/><path d="M192.137 71.823a.988.988 0 11-.988-.988.988.988 0 01.988.988z" fill="#fff"/><path d="M212.272 146.258c-2.8 8.012-15.332 7.429-29.608 3.049-.021-.006-.041-.014-.062-.019-.045-.014-.088-.029-.133-.041l-1.964-.626a64.719 64.719 0 01-.814-.272q-2.308-.772-4.644-1.662a159.3 159.3 0 01-15.088-6.683l.034-.085 1.459-3.791.5-1.29s26.465 2.883 39.772.1c.226-.047.445-.094.662-.144a8.291 8.291 0 00-.153-.878c-7.051-24 .661-28.606 3.241-31.954-.001 0 12.078 29.166 6.798 44.296z" fill="#009cf8"/><path d="M207.96 138.829a.576.576 0 01-.247.056.566.566 0 01-.508-.316c-1.008-2.065-4.431-3.294-5.482-3.631.226-.047.445-.094.662-.144-.053-.295-.1-.588-.153-.878 1.338.442 4.83 1.789 5.987 4.158a.565.565 0 01-.259.755zm-37.068-1.006c-5.4 0-9.787-.31-10.169-.338a.564.564 0 01.082-1.126c.2.014 20.051 1.418 27.879-1.757a.564.564 0 01.424 1.046c-4.335 1.756-11.956 2.175-18.216 2.175zm9.613 10.798c4.529-1.249 8.646-2.466 11.023-3.228 3.3-1.059 6.032-4.4 7.273-7.232a.565.565 0 011.034.454c-1.342 3.068-4.326 6.686-7.963 7.854-1.725.553-4.361 1.343-7.406 2.212a6.853 6.853 0 01-3.964-.06z" fill="#006bde"/><path d="M192.713 144.74c-40.9 13.775-53.483 4.76-53.483 4.76-2.754-24.9 7.394-47.291 7.394-47.291a113.368 113.368 0 016.387 13.57l.9 19.087-.068.53-.032.25-.169 1.306v.026l.263.056c12.372 2.61 35-.306 35-.306z" fill="#009cf8"/><path d="M153.897 137.034a40.31 40.31 0 00-6.175 6.434.565.565 0 01-.9-.682 41.373 41.373 0 016.989-7.139l-.169 1.306v.026z" fill="#006bde"/><path d="M188.895 136.728s4.528-10.286 11.413-9.37l2.076 7.435c-3.768 1.6-4.32 8.063-9.67 9.945zm-26.944-1.89a16.391 16.391 0 00-10.385-8.661c-7.525-1.949-12.32 1.6-12.826 2.936s2.838.059 2.838.059a6.5 6.5 0 00-3.427 2.663c-1.249 2.046 3.041-.162 3.041-.162s-3.076 1.348-3.467 2.6 3.666-.862 4.429-.821c0 0-3.623 1.439-3.6 2.729s4.161-.813 7.251-.647a48.811 48.811 0 017.826 1.446 51.893 51.893 0 007.13.938z" fill="#ffa681"/><path d="M234.624 30.477a5.052 5.052 0 115.052-5.051 5.058 5.058 0 01-5.052 5.051zm0-8.519a3.467 3.467 0 103.467 3.467 3.47 3.47 0 00-3.467-3.466z" fill="#006bde"/><path d="M278.699 21.894a5.052 5.052 0 115.052-5.052 5.058 5.058 0 01-5.052 5.052zm0-8.519a3.467 3.467 0 103.467 3.467 3.47 3.47 0 00-3.467-3.466z" fill="#009cf8"/><path d="M284.94 38.312a.793.793 0 01-.792-.793v-3.494a.792.792 0 111.585 0v3.494a.793.793 0 01-.793.793zm0 6.117a.792.792 0 01-.792-.792v-3.494a.792.792 0 011.585 0v3.494a.792.792 0 01-.793.792zm4.906-4.807h-3.139a.792.792 0 010-1.585h3.139a.792.792 0 010 1.585zm-6.671 0h-3.139a.792.792 0 010-1.585h3.139a.792.792 0 110 1.585z" fill="#006bde"/><path d="M258.257 17.141a.793.793 0 01-.792-.792v-3.5a.792.792 0 011.585 0v3.5a.792.792 0 01-.793.792zm0 6.115a.792.792 0 01-.792-.792V18.97a.792.792 0 111.585 0v3.494a.792.792 0 01-.793.792zm4.906-4.805h-3.139a.793.793 0 010-1.585h3.139a.793.793 0 010 1.585zm-6.674 0h-3.139a.793.793 0 010-1.585h3.139a.793.793 0 110 1.585z" fill="#1c31b5"/><path d="M54.059 12.607a5.052 5.052 0 115.052 5.051 5.058 5.058 0 01-5.052-5.051zm1.585 0a3.467 3.467 0 103.467-3.467 3.471 3.471 0 00-3.467 3.467z" fill="#006bde"/><path d="M33.772 31.863a5.052 5.052 0 115.051 5.052 5.057 5.057 0 01-5.051-5.052zm1.585 0a3.467 3.467 0 103.467-3.467 3.471 3.471 0 00-3.467 3.467z" fill="#009cf8"/><path d="M23.268 38.951a.792.792 0 00.792-.792v-3.494a.792.792 0 00-1.585 0v3.494a.792.792 0 00.793.792zm0 6.116a.792.792 0 00.792-.792v-3.5a.792.792 0 00-1.585 0v3.5a.793.793 0 00.793.792zm-4.905-4.805h3.139a.792.792 0 100-1.585h-3.139a.792.792 0 100 1.585zm6.671 0h3.139a.792.792 0 100-1.585h-3.139a.792.792 0 100 1.585z" fill="#006bde"/><path d="M41.528 12.089a.792.792 0 00.792-.792V7.802a.792.792 0 10-1.585 0v3.494a.792.792 0 00.793.793zm0 6.115a.792.792 0 00.792-.792v-3.494a.792.792 0 10-1.585 0v3.494a.792.792 0 00.793.792zm-4.905-4.805h3.139a.793.793 0 000-1.585h-3.139a.793.793 0 000 1.585zm6.67 0h3.139a.793.793 0 000-1.585h-3.139a.793.793 0 000 1.585z" fill="#1c31b5"/><path d="M192.603 12.969a.559.559 0 01-.278-.041c-.962-.406-1.525-.6-1.531-.6a.563.563 0 01.357-1.068c.024.008.6.2 1.613.628a.563.563 0 01-.16 1.078zm28.676 30.18a54.52 54.52 0 011.065 3.129.563.563 0 00.6.394.5.5 0 00.107-.022.563.563 0 00.372-.7 58.703 58.703 0 00-1.087-3.193.563.563 0 00-1.054.394zm1.942 6.318c.258 1.057.491 2.145.693 3.235a.562.562 0 00.612.457.428.428 0 00.044-.006.562.562 0 00.451-.655 60.274 60.274 0 00-.706-3.3.563.563 0 10-1.093.266zm2.373 16.991a.562.562 0 00.5-.551c.017-1.129.01-2.262-.024-3.367a.563.563 0 00-1.125.034c.033 1.089.041 2.2.024 3.316a.562.562 0 00.554.571.517.517 0 00.071-.003zm-.681-11.119a.563.563 0 00-.485.631 63.399 63.399 0 01.343 3.295.562.562 0 00.605.517h.015a.563.563 0 00.5-.6c-.047-.6-.1-1.2-.166-1.8a56.634 56.634 0 00-.183-1.555.562.562 0 00-.616-.487zm-4.889-15.246a.563.563 0 001.027-.46 52.481 52.481 0 00-1.476-3.036.564.564 0 10-1 .524c.514.969.999 1.968 1.449 2.972zm-24.71-25.766a52.967 52.967 0 012.9 1.6.563.563 0 00.573-.968 54.35 54.35 0 00-2.959-1.631.563.563 0 00-.512 1zm8.386 5.298a.563.563 0 00.683-.895 58.812 58.812 0 00-2.743-1.969.563.563 0 10-.629.933 55.045 55.045 0 012.689 1.931zm9.455 9.212a.563.563 0 00.5.208.556.556 0 00.292-.12.563.563 0 00.087-.791 54.404 54.404 0 00-2.192-2.568.563.563 0 10-.833.757 53.303 53.303 0 012.146 2.514zm-4.445-4.893a.563.563 0 00.785-.807 55.735 55.735 0 00-2.491-2.281.563.563 0 00-.734.853 55.8 55.8 0 012.44 2.235zm8.239 10.302a.562.562 0 10.96-.586 53.13 53.13 0 00-1.85-2.825.563.563 0 00-.922.646c.63.899 1.24 1.826 1.812 2.765z" fill="#bbe2f2"/><path d="M192.591 9.12L195.053 0l-30.172.259z" fill="#009cf8"/><path d="M164.882.258l26.25 11.063.069.03 1.129 1.87.266-4.1z" fill="#006bde"/><path d="M192.326 13.222l-2.446-.386 1.317-1.485z" fill="#006bde"/><path d="M187.894 9.959l3.3 1.392-6.8 7.664L164.882.259z" fill="#009cf8"/><path d="M27.928 243.309h297.381a6.017 6.017 0 016.017 6.017 6.017 6.017 0 01-6.017 6.017H27.926a6.017 6.017 0 01-6.017-6.015 6.019 6.019 0 016.019-6.019z" fill="#1c31b5"/><path d="M331.33 249.051v.275H21.909v-.275a5.742 5.742 0 015.743-5.742h297.934a5.743 5.743 0 015.744 5.742z" fill="#006bde"/><g transform="translate(124.571 168.177)"><rect width="101.692" height="57.065" rx="5.381" fill="#18315b"/><path fill="#000b29" d="M42.972 57h15.749v17.954H42.972z"/><circle cx="7.816" cy="7.816" r="7.816" transform="translate(42.854 21.416)" fill="#1d567e"/><path d="M36.652 68.585h27.885a6.369 6.369 0 016.369 6.369H30.283a6.369 6.369 0 016.369-6.369z" fill="#18315b"/></g></svg>